M48
; DRILL file {KiCad 8.0.4} date 2024-08-22T17:22:38+0200
; FORMAT={-:-/ absolute / metric / decimal}
; #@! TF.CreationDate,2024-08-22T17:22:38+02:00
; #@! TF.GenerationSoftware,Kicad,Pcbnew,8.0.4
; #@! TF.FileFunction,Plated,1,2,PTH
FMAT,2
METRIC
; #@! TA.AperFunction,Plated,PTH,ViaDrill
T1C0.350
; #@! TA.AperFunction,Plated,PTH,ComponentDrill
T2C0.800
; #@! TA.AperFunction,Plated,PTH,ComponentDrill
T3C0.813
; #@! TA.AperFunction,Plated,PTH,ComponentDrill
T4C1.000
; #@! TA.AperFunction,Plated,PTH,ComponentDrill
T5C1.016
; #@! TA.AperFunction,Plated,PTH,ComponentDrill
T6C1.100
; #@! TA.AperFunction,Plated,PTH,ComponentDrill
T7C1.200
; #@! TA.AperFunction,Plated,PTH,ComponentDrill
T8C1.300
%
G90
G05
T1
X100.5Y-138.5
X101.0Y-100.0
X103.5Y-93.0
X109.22Y-99.412
X109.22Y-109.22
X109.5Y-93.5
X110.657Y-110.148
X111.06Y-100.148
X111.5Y-117.5
X113.148Y-85.659
X114.021Y-94.259
X114.3Y-99.707
X114.437Y-102.218
X116.0Y-116.5
X116.0Y-128.0
X117.011Y-107.676
X117.5Y-89.5
X117.5Y-113.0
X117.958Y-93.326
X117.958Y-95.612
X119.528Y-99.939
X120.244Y-106.471
X124.46Y-121.92
X125.0Y-102.5
X127.673Y-118.948
X129.54Y-88.9
X133.08Y-90.564
X134.15Y-98.66
X134.734Y-88.766
X135.484Y-95.802
X136.846Y-90.075
X140.056Y-103.994
X141.533Y-92.247
X142.24Y-96.415
X142.446Y-112.537
X147.32Y-132.08
X148.0Y-105.5
X149.5Y-106.511
X149.97Y-93.818
X152.248Y-86.182
X152.336Y-106.511
X154.0Y-124.0
X154.5Y-114.0
X156.0Y-101.6
X159.106Y-86.277
X162.56Y-96.52
X164.5Y-132.5
X165.1Y-93.98
X167.297Y-81.134
X167.419Y-84.206
X168.015Y-134.62
X171.141Y-120.912
X173.203Y-132.95
X173.5Y-73.5
X176.5Y-127.5
X179.5Y-106.0
X181.5Y-111.5
X183.871Y-99.993
X183.871Y-107.233
X185.5Y-105.0
X186.919Y-114.09
X188.0Y-118.0
X188.5Y-70.5
X194.0Y-114.5
T2
X174.816Y-78.344
X179.616Y-75.344
T3
X105.956Y-94.85
X105.956Y-97.39
X105.956Y-99.93
X105.956Y-102.47
X105.956Y-105.01
X105.956Y-107.55
X105.956Y-110.09
X105.956Y-112.63
X105.956Y-115.17
X105.956Y-117.71
X105.956Y-120.25
X105.956Y-122.79
X105.956Y-125.33
X105.956Y-127.87
X105.956Y-130.41
X120.168Y-112.368
X120.168Y-114.908
X131.356Y-94.85
X131.356Y-97.39
X131.356Y-99.93
X131.356Y-102.47
X131.356Y-105.01
X131.356Y-107.55
X131.356Y-110.09
X131.356Y-112.63
X131.356Y-115.17
X131.356Y-117.71
X131.356Y-120.25
X131.356Y-122.79
X131.356Y-125.33
X131.356Y-127.87
X131.356Y-130.41
X139.086Y-84.92
X141.626Y-84.92
X144.048Y-85.054
X146.588Y-85.054
X185.69Y-120.415
X188.152Y-103.177
X188.152Y-105.718
X188.152Y-108.257
X190.692Y-105.718
X193.232Y-103.177
X193.232Y-108.257
X193.31Y-120.415
T4
X160.709Y-120.527
X163.249Y-120.527
X165.789Y-120.527
X168.329Y-120.527
X179.616Y-81.344
T5
X100.876Y-89.298
X100.876Y-91.838
X100.876Y-94.378
X100.876Y-96.918
X100.876Y-103.141
X100.876Y-105.681
X100.876Y-108.221
X100.876Y-110.761
X100.876Y-113.301
X100.876Y-115.841
X100.876Y-118.381
X100.876Y-120.921
X100.876Y-123.461
X100.876Y-126.001
X100.876Y-128.541
X100.876Y-131.081
X100.876Y-133.621
X106.273Y-80.408
X106.273Y-82.948
X112.941Y-80.884
X114.211Y-83.424
X115.481Y-80.884
X116.751Y-83.424
X118.021Y-80.884
X119.291Y-83.424
X119.926Y-88.5
X122.466Y-88.5
X125.006Y-88.5
X126.911Y-80.884
X128.181Y-83.424
X129.451Y-80.884
X130.721Y-83.424
X131.991Y-80.884
X133.261Y-83.424
X137.487Y-102.744
X137.487Y-105.284
X137.487Y-107.824
X137.487Y-110.364
X137.519Y-130.779
X137.519Y-133.319
X137.519Y-135.859
X137.519Y-138.399
X137.706Y-125.33
X140.246Y-125.33
X140.342Y-80.858
X142.786Y-125.33
X142.882Y-80.858
X145.326Y-125.33
X145.422Y-80.858
X160.02Y-111.76
X161.493Y-125.411
X162.56Y-111.76
X164.033Y-125.411
X165.1Y-111.76
X166.573Y-125.411
X169.113Y-125.411
X175.212Y-85.583
X175.212Y-90.663
X188.386Y-125.452
X188.587Y-80.315
X188.587Y-82.855
X190.926Y-125.452
X193.466Y-125.452
X196.003Y-130.868
X196.003Y-133.408
X196.003Y-135.948
X196.003Y-138.488
X196.006Y-125.452
T6
X141.132Y-72.581
X144.094Y-132.05
X144.094Y-136.55
X144.632Y-72.581
X150.594Y-132.05
X150.594Y-136.55
X160.627Y-131.908
X160.627Y-136.408
X167.127Y-131.908
X167.127Y-136.408
X182.788Y-131.97
X182.788Y-136.47
X189.288Y-131.97
X189.288Y-136.47
T7
X141.134Y-131.72
X141.134Y-136.72
X145.787Y-99.004
X145.787Y-101.544
X145.787Y-110.942
X145.787Y-113.482
X150.802Y-100.198
X150.802Y-102.738
X150.802Y-110.866
X150.802Y-113.406
X152.066Y-79.138
X153.634Y-131.72
X153.634Y-136.72
X153.766Y-74.058
X155.466Y-79.138
X157.166Y-74.058
X157.552Y-131.675
X157.552Y-136.675
X158.866Y-79.138
X160.566Y-74.058
X162.266Y-79.138
X163.966Y-74.058
X165.666Y-79.138
X167.366Y-74.058
X169.066Y-79.138
X169.344Y-100.198
X169.344Y-102.738
X169.344Y-110.866
X169.344Y-113.406
X170.052Y-131.675
X170.052Y-136.675
X171.949Y-99.004
X171.949Y-101.544
X171.949Y-110.942
X171.949Y-113.482
X179.823Y-131.72
X179.823Y-136.72
X192.323Y-131.72
X192.323Y-136.72
T8
X140.286Y-74.806
X145.286Y-74.806
M30
