G04 #@! TF.GenerationSoftware,KiCad,Pcbnew,8.0.4*
G04 #@! TF.CreationDate,2024-08-22T17:22:31+02:00*
G04 #@! TF.ProjectId,CENTRALE,43454e54-5241-44c4-952e-6b696361645f,rev?*
G04 #@! TF.SameCoordinates,Original*
G04 #@! TF.FileFunction,Paste,Bot*
G04 #@! TF.FilePolarity,Positive*
%FSLAX46Y46*%
G04 Gerber Fmt 4.6, Leading zero omitted, Abs format (unit mm)*
G04 Created by KiCad (PCBNEW 8.0.4) date 2024-08-22 17:22:31*
%MOMM*%
%LPD*%
G01*
G04 APERTURE LIST*
%ADD10R,1.600000X1.800000*%
%ADD11R,1.600000X2.000000*%
%ADD12R,1.500000X1.300000*%
%ADD13R,1.168400X1.600200*%
%ADD14R,1.300000X1.500000*%
%ADD15R,3.200000X1.800000*%
%ADD16R,1.470000X1.270000*%
%ADD17R,1.600200X1.168400*%
%ADD18R,1.500000X0.600000*%
%ADD19R,1.800000X1.600000*%
%ADD20R,2.200000X0.600000*%
%ADD21R,1.500000X2.120000*%
G04 APERTURE END LIST*
D10*
X155289790Y-83002519D03*
X152489790Y-83002519D03*
D11*
X106100043Y-86195350D03*
X108900043Y-86195350D03*
D12*
X179771512Y-114801760D03*
X179771512Y-116701760D03*
D13*
X191484975Y-108238985D03*
X189960975Y-108238985D03*
D12*
X108500000Y-105325297D03*
X108500000Y-107225297D03*
D14*
X182113612Y-100801225D03*
X180213612Y-100801225D03*
D15*
X183552093Y-91413747D03*
X183552093Y-85813747D03*
D12*
X149508071Y-85133829D03*
X149508071Y-83233829D03*
X110709944Y-105300243D03*
X110709944Y-107200243D03*
D10*
X175299406Y-111061338D03*
X178099406Y-111061338D03*
X185414259Y-98079794D03*
X182614259Y-98079794D03*
D13*
X192015350Y-116344582D03*
X190491350Y-116344582D03*
D16*
X157063737Y-92265129D03*
X157063737Y-87965129D03*
D10*
X186334734Y-116431269D03*
X183534734Y-116431269D03*
X165999943Y-82946682D03*
X168799943Y-82946682D03*
D14*
X190510262Y-112581413D03*
X192410262Y-112581413D03*
D10*
X165940982Y-87137240D03*
X168740982Y-87137240D03*
D13*
X191421346Y-103079913D03*
X189897346Y-103079913D03*
D12*
X114500000Y-113000000D03*
X114500000Y-111100000D03*
D17*
X127000000Y-99822000D03*
X127000000Y-98298000D03*
D18*
X112797100Y-103401638D03*
X112797100Y-102131638D03*
X112797100Y-100861638D03*
X112797100Y-99591638D03*
X118097100Y-99591638D03*
X118097100Y-100861638D03*
X118097100Y-102131638D03*
X118097100Y-103401638D03*
D15*
X188199653Y-91468250D03*
X188199653Y-85868250D03*
D19*
X111871887Y-93899225D03*
X111871887Y-91099225D03*
X138385334Y-92553788D03*
X138385334Y-95353788D03*
X125610640Y-113559397D03*
X125610640Y-116359397D03*
D20*
X176413796Y-107120872D03*
X176413796Y-105850872D03*
X176413796Y-104580872D03*
X176413796Y-103310872D03*
X181613796Y-103310872D03*
X181613796Y-104580872D03*
X181613796Y-105850872D03*
X181613796Y-107120872D03*
D14*
X162874081Y-117759250D03*
X160974081Y-117759250D03*
X160660000Y-99060000D03*
X162560000Y-99060000D03*
D21*
X187089204Y-73094271D03*
X187089204Y-77324271D03*
D19*
X114500000Y-108300000D03*
X114500000Y-105500000D03*
D13*
X186476565Y-112488969D03*
X184952565Y-112488969D03*
D14*
X181599562Y-120352054D03*
X179699562Y-120352054D03*
D19*
X102146100Y-84820000D03*
X102146100Y-82020000D03*
D16*
X152973528Y-92152594D03*
X152973528Y-87852594D03*
D14*
X166377696Y-117786360D03*
X168277696Y-117786360D03*
D12*
X185632687Y-106944422D03*
X185632687Y-108844422D03*
D14*
X162560000Y-101600000D03*
X160660000Y-101600000D03*
D12*
X185615787Y-103005182D03*
X185615787Y-101105182D03*
M02*
