G04 #@! TF.GenerationSoftware,KiCad,Pcbnew,8.0.4*
G04 #@! TF.CreationDate,2024-08-22T17:22:31+02:00*
G04 #@! TF.ProjectId,CENTRALE,43454e54-5241-44c4-952e-6b696361645f,rev?*
G04 #@! TF.SameCoordinates,Original*
G04 #@! TF.FileFunction,Legend,Bot*
G04 #@! TF.FilePolarity,Positive*
%FSLAX46Y46*%
G04 Gerber Fmt 4.6, Leading zero omitted, Abs format (unit mm)*
G04 Created by KiCad (PCBNEW 8.0.4) date 2024-08-22 17:22:31*
%MOMM*%
%LPD*%
G01*
G04 APERTURE LIST*
G04 Aperture macros list*
%AMRoundRect*
0 Rectangle with rounded corners*
0 $1 Rounding radius*
0 $2 $3 $4 $5 $6 $7 $8 $9 X,Y pos of 4 corners*
0 Add a 4 corners polygon primitive as box body*
4,1,4,$2,$3,$4,$5,$6,$7,$8,$9,$2,$3,0*
0 Add four circle primitives for the rounded corners*
1,1,$1+$1,$2,$3*
1,1,$1+$1,$4,$5*
1,1,$1+$1,$6,$7*
1,1,$1+$1,$8,$9*
0 Add four rect primitives between the rounded corners*
20,1,$1+$1,$2,$3,$4,$5,0*
20,1,$1+$1,$4,$5,$6,$7,0*
20,1,$1+$1,$6,$7,$8,$9,0*
20,1,$1+$1,$8,$9,$2,$3,0*%
%AMFreePoly0*
4,1,25,0.389919,0.742596,0.402042,0.732242,0.732242,0.402042,0.760749,0.346094,0.762000,0.330200,0.762000,-0.330200,0.742596,-0.389919,0.732242,-0.402042,0.402042,-0.732242,0.346094,-0.760749,0.330200,-0.762000,-0.330200,-0.762000,-0.389919,-0.742596,-0.402042,-0.732242,-0.732242,-0.402042,-0.760749,-0.346094,-0.762000,-0.330200,-0.762000,0.330200,-0.742596,0.389919,-0.732242,0.402042,
-0.402042,0.732242,-0.346094,0.760749,-0.330200,0.762000,0.330200,0.762000,0.389919,0.742596,0.389919,0.742596,$1*%
%AMFreePoly1*
4,1,25,0.459769,0.882296,0.471892,0.871942,0.871942,0.471892,0.900449,0.415944,0.901700,0.400050,0.901700,-0.400050,0.882296,-0.459769,0.871942,-0.471892,0.471892,-0.871942,0.415944,-0.900449,0.400050,-0.901700,-0.400050,-0.901700,-0.459769,-0.882296,-0.471892,-0.871942,-0.871942,-0.471892,-0.900449,-0.415944,-0.901700,-0.400050,-0.901700,0.400050,-0.882296,0.459769,-0.871942,0.471892,
-0.471892,0.871942,-0.415944,0.900449,-0.400050,0.901700,0.400050,0.901700,0.459769,0.882296,0.459769,0.882296,$1*%
%AMFreePoly2*
4,1,25,0.478819,0.920396,0.490942,0.910042,0.910042,0.490942,0.938549,0.434994,0.939800,0.419100,0.939800,-0.419100,0.920396,-0.478819,0.910042,-0.490942,0.490942,-0.910042,0.434994,-0.938549,0.419100,-0.939800,-0.419100,-0.939800,-0.478819,-0.920396,-0.490942,-0.910042,-0.910042,-0.490942,-0.938549,-0.434994,-0.939800,-0.419100,-0.939800,0.419100,-0.920396,0.478819,-0.910042,0.490942,
-0.490942,0.910042,-0.434994,0.938549,-0.419100,0.939800,0.419100,0.939800,0.478819,0.920396,0.478819,0.920396,$1*%
%AMFreePoly3*
4,1,25,0.694719,1.352196,0.706842,1.341842,1.341842,0.706842,1.370349,0.650894,1.371600,0.635000,1.371600,-0.635000,1.352196,-0.694719,1.341842,-0.706842,0.706842,-1.341842,0.650894,-1.370349,0.635000,-1.371600,-0.635000,-1.371600,-0.694719,-1.352196,-0.706842,-1.341842,-1.341842,-0.706842,-1.370349,-0.650894,-1.371600,-0.635000,-1.371600,0.635000,-1.352196,0.694719,-1.341842,0.706842,
-0.706842,1.341842,-0.650894,1.370349,-0.635000,1.371600,0.635000,1.371600,0.694719,1.352196,0.694719,1.352196,$1*%
G04 Aperture macros list end*
%ADD10C,0.093472*%
%ADD11C,0.091440*%
%ADD12C,0.029928*%
%ADD13C,0.093474*%
%ADD14C,0.080000*%
%ADD15C,0.060960*%
%ADD16C,0.152400*%
%ADD17C,0.203200*%
%ADD18C,0.200000*%
%ADD19C,0.050000*%
%ADD20C,0.127000*%
%ADD21C,0.000000*%
%ADD22C,2.003200*%
%ADD23O,3.251200X1.727200*%
%ADD24RoundRect,0.101600X1.524000X0.762000X-1.524000X0.762000X-1.524000X-0.762000X1.524000X-0.762000X0*%
%ADD25RoundRect,0.101600X-1.524000X-0.762000X1.524000X-0.762000X1.524000X0.762000X-1.524000X0.762000X0*%
%ADD26O,2.844800X1.524000*%
%ADD27RoundRect,0.101600X-1.320800X-0.660400X1.320800X-0.660400X1.320800X0.660400X-1.320800X0.660400X0*%
%ADD28RoundRect,0.101600X-2.184400X-1.092200X2.184400X-1.092200X2.184400X1.092200X-2.184400X1.092200X0*%
%ADD29O,2.387600X4.572000*%
%ADD30O,4.572000X2.387600*%
%ADD31FreePoly0,180.000000*%
%ADD32C,1.803400*%
%ADD33FreePoly1,270.000000*%
%ADD34C,1.903200*%
%ADD35FreePoly2,270.000000*%
%ADD36C,2.800000*%
%ADD37FreePoly0,0.000000*%
%ADD38RoundRect,0.101600X1.000000X1.000000X-1.000000X1.000000X-1.000000X-1.000000X1.000000X-1.000000X0*%
%ADD39C,2.203200*%
%ADD40C,2.743200*%
%ADD41FreePoly3,270.000000*%
%ADD42C,3.251200*%
%ADD43C,2.082800*%
%ADD44C,2.000000*%
%ADD45O,1.727200X3.251200*%
%ADD46RoundRect,0.101600X0.762000X-1.524000X0.762000X1.524000X-0.762000X1.524000X-0.762000X-1.524000X0*%
%ADD47O,2.003200X3.803200*%
%ADD48RoundRect,0.101600X0.900000X-1.800000X0.900000X1.800000X-0.900000X1.800000X-0.900000X-1.800000X0*%
%ADD49RoundRect,0.101600X-0.762000X1.524000X-0.762000X-1.524000X0.762000X-1.524000X0.762000X1.524000X0*%
%ADD50RoundRect,0.101600X0.754000X0.754000X-0.754000X0.754000X-0.754000X-0.754000X0.754000X-0.754000X0*%
%ADD51C,1.711200*%
%ADD52C,2.153200*%
%ADD53RoundRect,0.101600X0.800000X0.900000X-0.800000X0.900000X-0.800000X-0.900000X0.800000X-0.900000X0*%
%ADD54RoundRect,0.101600X-0.800000X-1.000000X0.800000X-1.000000X0.800000X1.000000X-0.800000X1.000000X0*%
%ADD55RoundRect,0.101600X-0.750000X0.650000X-0.750000X-0.650000X0.750000X-0.650000X0.750000X0.650000X0*%
%ADD56RoundRect,0.101600X0.584200X0.800100X-0.584200X0.800100X-0.584200X-0.800100X0.584200X-0.800100X0*%
%ADD57RoundRect,0.101600X0.650000X0.750000X-0.650000X0.750000X-0.650000X-0.750000X0.650000X-0.750000X0*%
%ADD58RoundRect,0.101600X1.600000X-0.900000X1.600000X0.900000X-1.600000X0.900000X-1.600000X-0.900000X0*%
%ADD59RoundRect,0.101600X0.750000X-0.650000X0.750000X0.650000X-0.750000X0.650000X-0.750000X-0.650000X0*%
%ADD60RoundRect,0.101600X-0.800000X-0.900000X0.800000X-0.900000X0.800000X0.900000X-0.800000X0.900000X0*%
%ADD61RoundRect,0.101600X-0.735000X0.635000X-0.735000X-0.635000X0.735000X-0.635000X0.735000X0.635000X0*%
%ADD62RoundRect,0.101600X0.735000X-0.635000X0.735000X0.635000X-0.735000X0.635000X-0.735000X-0.635000X0*%
%ADD63RoundRect,0.101600X-0.650000X-0.750000X0.650000X-0.750000X0.650000X0.750000X-0.650000X0.750000X0*%
%ADD64RoundRect,0.101600X0.800100X-0.584200X0.800100X0.584200X-0.800100X0.584200X-0.800100X-0.584200X0*%
%ADD65RoundRect,0.101600X-0.750000X-0.300000X0.750000X-0.300000X0.750000X0.300000X-0.750000X0.300000X0*%
%ADD66RoundRect,0.101600X0.750000X0.300000X-0.750000X0.300000X-0.750000X-0.300000X0.750000X-0.300000X0*%
%ADD67RoundRect,0.101600X0.900000X-0.800000X0.900000X0.800000X-0.900000X0.800000X-0.900000X-0.800000X0*%
%ADD68RoundRect,0.101600X-0.900000X0.800000X-0.900000X-0.800000X0.900000X-0.800000X0.900000X0.800000X0*%
%ADD69RoundRect,0.101600X1.100000X-0.300000X1.100000X0.300000X-1.100000X0.300000X-1.100000X-0.300000X0*%
%ADD70RoundRect,0.101600X0.750000X-1.060000X0.750000X1.060000X-0.750000X1.060000X-0.750000X-1.060000X0*%
G04 APERTURE END LIST*
D10*
X154406097Y-85451373D02*
X154462122Y-85507399D01*
X154462122Y-85507399D02*
X154630198Y-85563424D01*
X154630198Y-85563424D02*
X154742248Y-85563424D01*
X154742248Y-85563424D02*
X154910323Y-85507399D01*
X154910323Y-85507399D02*
X155022374Y-85395348D01*
X155022374Y-85395348D02*
X155078399Y-85283298D01*
X155078399Y-85283298D02*
X155134424Y-85059197D01*
X155134424Y-85059197D02*
X155134424Y-84891122D01*
X155134424Y-84891122D02*
X155078399Y-84667021D01*
X155078399Y-84667021D02*
X155022374Y-84554971D01*
X155022374Y-84554971D02*
X154910323Y-84442921D01*
X154910323Y-84442921D02*
X154742248Y-84386896D01*
X154742248Y-84386896D02*
X154630198Y-84386896D01*
X154630198Y-84386896D02*
X154462122Y-84442921D01*
X154462122Y-84442921D02*
X154406097Y-84498946D01*
X153285594Y-85563424D02*
X153957896Y-85563424D01*
X153621745Y-85563424D02*
X153621745Y-84386896D01*
X153621745Y-84386896D02*
X153733795Y-84554971D01*
X153733795Y-84554971D02*
X153845846Y-84667021D01*
X153845846Y-84667021D02*
X153957896Y-84723047D01*
X107486078Y-89063424D02*
X107878254Y-88503172D01*
X108158380Y-89063424D02*
X108158380Y-87886896D01*
X108158380Y-87886896D02*
X107710179Y-87886896D01*
X107710179Y-87886896D02*
X107598128Y-87942921D01*
X107598128Y-87942921D02*
X107542103Y-87998946D01*
X107542103Y-87998946D02*
X107486078Y-88110996D01*
X107486078Y-88110996D02*
X107486078Y-88279072D01*
X107486078Y-88279072D02*
X107542103Y-88391122D01*
X107542103Y-88391122D02*
X107598128Y-88447147D01*
X107598128Y-88447147D02*
X107710179Y-88503172D01*
X107710179Y-88503172D02*
X108158380Y-88503172D01*
X106925827Y-89063424D02*
X106701726Y-89063424D01*
X106701726Y-89063424D02*
X106589676Y-89007399D01*
X106589676Y-89007399D02*
X106533651Y-88951373D01*
X106533651Y-88951373D02*
X106421600Y-88783298D01*
X106421600Y-88783298D02*
X106365575Y-88559197D01*
X106365575Y-88559197D02*
X106365575Y-88110996D01*
X106365575Y-88110996D02*
X106421600Y-87998946D01*
X106421600Y-87998946D02*
X106477626Y-87942921D01*
X106477626Y-87942921D02*
X106589676Y-87886896D01*
X106589676Y-87886896D02*
X106813776Y-87886896D01*
X106813776Y-87886896D02*
X106925827Y-87942921D01*
X106925827Y-87942921D02*
X106981852Y-87998946D01*
X106981852Y-87998946D02*
X107037877Y-88110996D01*
X107037877Y-88110996D02*
X107037877Y-88391122D01*
X107037877Y-88391122D02*
X106981852Y-88503172D01*
X106981852Y-88503172D02*
X106925827Y-88559197D01*
X106925827Y-88559197D02*
X106813776Y-88615223D01*
X106813776Y-88615223D02*
X106589676Y-88615223D01*
X106589676Y-88615223D02*
X106477626Y-88559197D01*
X106477626Y-88559197D02*
X106421600Y-88503172D01*
X106421600Y-88503172D02*
X106365575Y-88391122D01*
X178539424Y-115617902D02*
X177979172Y-115225726D01*
X178539424Y-114945600D02*
X177362896Y-114945600D01*
X177362896Y-114945600D02*
X177362896Y-115393801D01*
X177362896Y-115393801D02*
X177418921Y-115505852D01*
X177418921Y-115505852D02*
X177474946Y-115561877D01*
X177474946Y-115561877D02*
X177586996Y-115617902D01*
X177586996Y-115617902D02*
X177755072Y-115617902D01*
X177755072Y-115617902D02*
X177867122Y-115561877D01*
X177867122Y-115561877D02*
X177923147Y-115505852D01*
X177923147Y-115505852D02*
X177979172Y-115393801D01*
X177979172Y-115393801D02*
X177979172Y-114945600D01*
X177362896Y-116010078D02*
X177362896Y-116738405D01*
X177362896Y-116738405D02*
X177811097Y-116346229D01*
X177811097Y-116346229D02*
X177811097Y-116514304D01*
X177811097Y-116514304D02*
X177867122Y-116626355D01*
X177867122Y-116626355D02*
X177923147Y-116682380D01*
X177923147Y-116682380D02*
X178035197Y-116738405D01*
X178035197Y-116738405D02*
X178315323Y-116738405D01*
X178315323Y-116738405D02*
X178427373Y-116682380D01*
X178427373Y-116682380D02*
X178483399Y-116626355D01*
X178483399Y-116626355D02*
X178539424Y-116514304D01*
X178539424Y-116514304D02*
X178539424Y-116178153D01*
X178539424Y-116178153D02*
X178483399Y-116066103D01*
X178483399Y-116066103D02*
X178427373Y-116010078D01*
D11*
X192089330Y-110984348D02*
X191920964Y-111040469D01*
X191920964Y-111040469D02*
X191640355Y-111040469D01*
X191640355Y-111040469D02*
X191528111Y-110984348D01*
X191528111Y-110984348D02*
X191471989Y-110928226D01*
X191471989Y-110928226D02*
X191415867Y-110815982D01*
X191415867Y-110815982D02*
X191415867Y-110703738D01*
X191415867Y-110703738D02*
X191471989Y-110591494D01*
X191471989Y-110591494D02*
X191528111Y-110535372D01*
X191528111Y-110535372D02*
X191640355Y-110479250D01*
X191640355Y-110479250D02*
X191864842Y-110423128D01*
X191864842Y-110423128D02*
X191977086Y-110367007D01*
X191977086Y-110367007D02*
X192033208Y-110310885D01*
X192033208Y-110310885D02*
X192089330Y-110198641D01*
X192089330Y-110198641D02*
X192089330Y-110086397D01*
X192089330Y-110086397D02*
X192033208Y-109974153D01*
X192033208Y-109974153D02*
X191977086Y-109918031D01*
X191977086Y-109918031D02*
X191864842Y-109861909D01*
X191864842Y-109861909D02*
X191584233Y-109861909D01*
X191584233Y-109861909D02*
X191415867Y-109918031D01*
X190574039Y-109861909D02*
X190574039Y-110703738D01*
X190574039Y-110703738D02*
X190630160Y-110872104D01*
X190630160Y-110872104D02*
X190742404Y-110984348D01*
X190742404Y-110984348D02*
X190910770Y-111040469D01*
X190910770Y-111040469D02*
X191023014Y-111040469D01*
X190068942Y-109974153D02*
X190012820Y-109918031D01*
X190012820Y-109918031D02*
X189900576Y-109861909D01*
X189900576Y-109861909D02*
X189619967Y-109861909D01*
X189619967Y-109861909D02*
X189507723Y-109918031D01*
X189507723Y-109918031D02*
X189451601Y-109974153D01*
X189451601Y-109974153D02*
X189395479Y-110086397D01*
X189395479Y-110086397D02*
X189395479Y-110198641D01*
X189395479Y-110198641D02*
X189451601Y-110367007D01*
X189451601Y-110367007D02*
X190125064Y-111040469D01*
X190125064Y-111040469D02*
X189395479Y-111040469D01*
D10*
X109233856Y-108973399D02*
X108673604Y-108581223D01*
X109233856Y-108301097D02*
X108057328Y-108301097D01*
X108057328Y-108301097D02*
X108057328Y-108749298D01*
X108057328Y-108749298D02*
X108113353Y-108861349D01*
X108113353Y-108861349D02*
X108169378Y-108917374D01*
X108169378Y-108917374D02*
X108281428Y-108973399D01*
X108281428Y-108973399D02*
X108449504Y-108973399D01*
X108449504Y-108973399D02*
X108561554Y-108917374D01*
X108561554Y-108917374D02*
X108617579Y-108861349D01*
X108617579Y-108861349D02*
X108673604Y-108749298D01*
X108673604Y-108749298D02*
X108673604Y-108301097D01*
X108169378Y-109421600D02*
X108113353Y-109477625D01*
X108113353Y-109477625D02*
X108057328Y-109589676D01*
X108057328Y-109589676D02*
X108057328Y-109869801D01*
X108057328Y-109869801D02*
X108113353Y-109981852D01*
X108113353Y-109981852D02*
X108169378Y-110037877D01*
X108169378Y-110037877D02*
X108281428Y-110093902D01*
X108281428Y-110093902D02*
X108393479Y-110093902D01*
X108393479Y-110093902D02*
X108561554Y-110037877D01*
X108561554Y-110037877D02*
X109233856Y-109365575D01*
X109233856Y-109365575D02*
X109233856Y-110093902D01*
X108057328Y-110822229D02*
X108057328Y-110934279D01*
X108057328Y-110934279D02*
X108113353Y-111046329D01*
X108113353Y-111046329D02*
X108169378Y-111102355D01*
X108169378Y-111102355D02*
X108281428Y-111158380D01*
X108281428Y-111158380D02*
X108505529Y-111214405D01*
X108505529Y-111214405D02*
X108785655Y-111214405D01*
X108785655Y-111214405D02*
X109009755Y-111158380D01*
X109009755Y-111158380D02*
X109121805Y-111102355D01*
X109121805Y-111102355D02*
X109177831Y-111046329D01*
X109177831Y-111046329D02*
X109233856Y-110934279D01*
X109233856Y-110934279D02*
X109233856Y-110822229D01*
X109233856Y-110822229D02*
X109177831Y-110710179D01*
X109177831Y-110710179D02*
X109121805Y-110654153D01*
X109121805Y-110654153D02*
X109009755Y-110598128D01*
X109009755Y-110598128D02*
X108785655Y-110542103D01*
X108785655Y-110542103D02*
X108505529Y-110542103D01*
X108505529Y-110542103D02*
X108281428Y-110598128D01*
X108281428Y-110598128D02*
X108169378Y-110654153D01*
X108169378Y-110654153D02*
X108113353Y-110710179D01*
X108113353Y-110710179D02*
X108057328Y-110822229D01*
X178486078Y-101563424D02*
X178878254Y-101003172D01*
X179158380Y-101563424D02*
X179158380Y-100386896D01*
X179158380Y-100386896D02*
X178710179Y-100386896D01*
X178710179Y-100386896D02*
X178598128Y-100442921D01*
X178598128Y-100442921D02*
X178542103Y-100498946D01*
X178542103Y-100498946D02*
X178486078Y-100610996D01*
X178486078Y-100610996D02*
X178486078Y-100779072D01*
X178486078Y-100779072D02*
X178542103Y-100891122D01*
X178542103Y-100891122D02*
X178598128Y-100947147D01*
X178598128Y-100947147D02*
X178710179Y-101003172D01*
X178710179Y-101003172D02*
X179158380Y-101003172D01*
X177421600Y-100386896D02*
X177981852Y-100386896D01*
X177981852Y-100386896D02*
X178037877Y-100947147D01*
X178037877Y-100947147D02*
X177981852Y-100891122D01*
X177981852Y-100891122D02*
X177869802Y-100835097D01*
X177869802Y-100835097D02*
X177589676Y-100835097D01*
X177589676Y-100835097D02*
X177477626Y-100891122D01*
X177477626Y-100891122D02*
X177421600Y-100947147D01*
X177421600Y-100947147D02*
X177365575Y-101059197D01*
X177365575Y-101059197D02*
X177365575Y-101339323D01*
X177365575Y-101339323D02*
X177421600Y-101451373D01*
X177421600Y-101451373D02*
X177477626Y-101507399D01*
X177477626Y-101507399D02*
X177589676Y-101563424D01*
X177589676Y-101563424D02*
X177869802Y-101563424D01*
X177869802Y-101563424D02*
X177981852Y-101507399D01*
X177981852Y-101507399D02*
X178037877Y-101451373D01*
X184486078Y-94039424D02*
X184878254Y-93479172D01*
X185158380Y-94039424D02*
X185158380Y-92862896D01*
X185158380Y-92862896D02*
X184710179Y-92862896D01*
X184710179Y-92862896D02*
X184598128Y-92918921D01*
X184598128Y-92918921D02*
X184542103Y-92974946D01*
X184542103Y-92974946D02*
X184486078Y-93086996D01*
X184486078Y-93086996D02*
X184486078Y-93255072D01*
X184486078Y-93255072D02*
X184542103Y-93367122D01*
X184542103Y-93367122D02*
X184598128Y-93423147D01*
X184598128Y-93423147D02*
X184710179Y-93479172D01*
X184710179Y-93479172D02*
X185158380Y-93479172D01*
X183365575Y-94039424D02*
X184037877Y-94039424D01*
X183701726Y-94039424D02*
X183701726Y-92862896D01*
X183701726Y-92862896D02*
X183813776Y-93030971D01*
X183813776Y-93030971D02*
X183925827Y-93143021D01*
X183925827Y-93143021D02*
X184037877Y-93199047D01*
X182973399Y-92862896D02*
X182245072Y-92862896D01*
X182245072Y-92862896D02*
X182637248Y-93311097D01*
X182637248Y-93311097D02*
X182469173Y-93311097D01*
X182469173Y-93311097D02*
X182357123Y-93367122D01*
X182357123Y-93367122D02*
X182301097Y-93423147D01*
X182301097Y-93423147D02*
X182245072Y-93535197D01*
X182245072Y-93535197D02*
X182245072Y-93815323D01*
X182245072Y-93815323D02*
X182301097Y-93927373D01*
X182301097Y-93927373D02*
X182357123Y-93983399D01*
X182357123Y-93983399D02*
X182469173Y-94039424D01*
X182469173Y-94039424D02*
X182805324Y-94039424D01*
X182805324Y-94039424D02*
X182917374Y-93983399D01*
X182917374Y-93983399D02*
X182973399Y-93927373D01*
X149486078Y-87563424D02*
X149878254Y-87003172D01*
X150158380Y-87563424D02*
X150158380Y-86386896D01*
X150158380Y-86386896D02*
X149710179Y-86386896D01*
X149710179Y-86386896D02*
X149598128Y-86442921D01*
X149598128Y-86442921D02*
X149542103Y-86498946D01*
X149542103Y-86498946D02*
X149486078Y-86610996D01*
X149486078Y-86610996D02*
X149486078Y-86779072D01*
X149486078Y-86779072D02*
X149542103Y-86891122D01*
X149542103Y-86891122D02*
X149598128Y-86947147D01*
X149598128Y-86947147D02*
X149710179Y-87003172D01*
X149710179Y-87003172D02*
X150158380Y-87003172D01*
X148477626Y-86386896D02*
X148701726Y-86386896D01*
X148701726Y-86386896D02*
X148813776Y-86442921D01*
X148813776Y-86442921D02*
X148869802Y-86498946D01*
X148869802Y-86498946D02*
X148981852Y-86667021D01*
X148981852Y-86667021D02*
X149037877Y-86891122D01*
X149037877Y-86891122D02*
X149037877Y-87339323D01*
X149037877Y-87339323D02*
X148981852Y-87451373D01*
X148981852Y-87451373D02*
X148925827Y-87507399D01*
X148925827Y-87507399D02*
X148813776Y-87563424D01*
X148813776Y-87563424D02*
X148589676Y-87563424D01*
X148589676Y-87563424D02*
X148477626Y-87507399D01*
X148477626Y-87507399D02*
X148421600Y-87451373D01*
X148421600Y-87451373D02*
X148365575Y-87339323D01*
X148365575Y-87339323D02*
X148365575Y-87059197D01*
X148365575Y-87059197D02*
X148421600Y-86947147D01*
X148421600Y-86947147D02*
X148477626Y-86891122D01*
X148477626Y-86891122D02*
X148589676Y-86835097D01*
X148589676Y-86835097D02*
X148813776Y-86835097D01*
X148813776Y-86835097D02*
X148925827Y-86891122D01*
X148925827Y-86891122D02*
X148981852Y-86947147D01*
X148981852Y-86947147D02*
X149037877Y-87059197D01*
X111399034Y-108773642D02*
X110838782Y-108381466D01*
X111399034Y-108101340D02*
X110222506Y-108101340D01*
X110222506Y-108101340D02*
X110222506Y-108549541D01*
X110222506Y-108549541D02*
X110278531Y-108661592D01*
X110278531Y-108661592D02*
X110334556Y-108717617D01*
X110334556Y-108717617D02*
X110446606Y-108773642D01*
X110446606Y-108773642D02*
X110614682Y-108773642D01*
X110614682Y-108773642D02*
X110726732Y-108717617D01*
X110726732Y-108717617D02*
X110782757Y-108661592D01*
X110782757Y-108661592D02*
X110838782Y-108549541D01*
X110838782Y-108549541D02*
X110838782Y-108101340D01*
X110334556Y-109221843D02*
X110278531Y-109277868D01*
X110278531Y-109277868D02*
X110222506Y-109389919D01*
X110222506Y-109389919D02*
X110222506Y-109670044D01*
X110222506Y-109670044D02*
X110278531Y-109782095D01*
X110278531Y-109782095D02*
X110334556Y-109838120D01*
X110334556Y-109838120D02*
X110446606Y-109894145D01*
X110446606Y-109894145D02*
X110558657Y-109894145D01*
X110558657Y-109894145D02*
X110726732Y-109838120D01*
X110726732Y-109838120D02*
X111399034Y-109165818D01*
X111399034Y-109165818D02*
X111399034Y-109894145D01*
X111399034Y-111014648D02*
X111399034Y-110342346D01*
X111399034Y-110678497D02*
X110222506Y-110678497D01*
X110222506Y-110678497D02*
X110390581Y-110566447D01*
X110390581Y-110566447D02*
X110502631Y-110454396D01*
X110502631Y-110454396D02*
X110558657Y-110342346D01*
X178026600Y-113427373D02*
X178082625Y-113483399D01*
X178082625Y-113483399D02*
X178250701Y-113539424D01*
X178250701Y-113539424D02*
X178362751Y-113539424D01*
X178362751Y-113539424D02*
X178530826Y-113483399D01*
X178530826Y-113483399D02*
X178642877Y-113371348D01*
X178642877Y-113371348D02*
X178698902Y-113259298D01*
X178698902Y-113259298D02*
X178754927Y-113035197D01*
X178754927Y-113035197D02*
X178754927Y-112867122D01*
X178754927Y-112867122D02*
X178698902Y-112643021D01*
X178698902Y-112643021D02*
X178642877Y-112530971D01*
X178642877Y-112530971D02*
X178530826Y-112418921D01*
X178530826Y-112418921D02*
X178362751Y-112362896D01*
X178362751Y-112362896D02*
X178250701Y-112362896D01*
X178250701Y-112362896D02*
X178082625Y-112418921D01*
X178082625Y-112418921D02*
X178026600Y-112474946D01*
X176906097Y-113539424D02*
X177578399Y-113539424D01*
X177242248Y-113539424D02*
X177242248Y-112362896D01*
X177242248Y-112362896D02*
X177354298Y-112530971D01*
X177354298Y-112530971D02*
X177466349Y-112643021D01*
X177466349Y-112643021D02*
X177578399Y-112699047D01*
X176457896Y-112474946D02*
X176401871Y-112418921D01*
X176401871Y-112418921D02*
X176289821Y-112362896D01*
X176289821Y-112362896D02*
X176009695Y-112362896D01*
X176009695Y-112362896D02*
X175897645Y-112418921D01*
X175897645Y-112418921D02*
X175841619Y-112474946D01*
X175841619Y-112474946D02*
X175785594Y-112586996D01*
X175785594Y-112586996D02*
X175785594Y-112699047D01*
X175785594Y-112699047D02*
X175841619Y-112867122D01*
X175841619Y-112867122D02*
X176513921Y-113539424D01*
X176513921Y-113539424D02*
X175785594Y-113539424D01*
X185446171Y-96978233D02*
X185502196Y-97034259D01*
X185502196Y-97034259D02*
X185670272Y-97090284D01*
X185670272Y-97090284D02*
X185782322Y-97090284D01*
X185782322Y-97090284D02*
X185950397Y-97034259D01*
X185950397Y-97034259D02*
X186062448Y-96922208D01*
X186062448Y-96922208D02*
X186118473Y-96810158D01*
X186118473Y-96810158D02*
X186174498Y-96586057D01*
X186174498Y-96586057D02*
X186174498Y-96417982D01*
X186174498Y-96417982D02*
X186118473Y-96193881D01*
X186118473Y-96193881D02*
X186062448Y-96081831D01*
X186062448Y-96081831D02*
X185950397Y-95969781D01*
X185950397Y-95969781D02*
X185782322Y-95913756D01*
X185782322Y-95913756D02*
X185670272Y-95913756D01*
X185670272Y-95913756D02*
X185502196Y-95969781D01*
X185502196Y-95969781D02*
X185446171Y-96025806D01*
X184773869Y-96417982D02*
X184885920Y-96361957D01*
X184885920Y-96361957D02*
X184941945Y-96305932D01*
X184941945Y-96305932D02*
X184997970Y-96193881D01*
X184997970Y-96193881D02*
X184997970Y-96137856D01*
X184997970Y-96137856D02*
X184941945Y-96025806D01*
X184941945Y-96025806D02*
X184885920Y-95969781D01*
X184885920Y-95969781D02*
X184773869Y-95913756D01*
X184773869Y-95913756D02*
X184549769Y-95913756D01*
X184549769Y-95913756D02*
X184437719Y-95969781D01*
X184437719Y-95969781D02*
X184381693Y-96025806D01*
X184381693Y-96025806D02*
X184325668Y-96137856D01*
X184325668Y-96137856D02*
X184325668Y-96193881D01*
X184325668Y-96193881D02*
X184381693Y-96305932D01*
X184381693Y-96305932D02*
X184437719Y-96361957D01*
X184437719Y-96361957D02*
X184549769Y-96417982D01*
X184549769Y-96417982D02*
X184773869Y-96417982D01*
X184773869Y-96417982D02*
X184885920Y-96474007D01*
X184885920Y-96474007D02*
X184941945Y-96530032D01*
X184941945Y-96530032D02*
X184997970Y-96642083D01*
X184997970Y-96642083D02*
X184997970Y-96866183D01*
X184997970Y-96866183D02*
X184941945Y-96978233D01*
X184941945Y-96978233D02*
X184885920Y-97034259D01*
X184885920Y-97034259D02*
X184773869Y-97090284D01*
X184773869Y-97090284D02*
X184549769Y-97090284D01*
X184549769Y-97090284D02*
X184437719Y-97034259D01*
X184437719Y-97034259D02*
X184381693Y-96978233D01*
X184381693Y-96978233D02*
X184325668Y-96866183D01*
X184325668Y-96866183D02*
X184325668Y-96642083D01*
X184325668Y-96642083D02*
X184381693Y-96530032D01*
X184381693Y-96530032D02*
X184437719Y-96474007D01*
X184437719Y-96474007D02*
X184549769Y-96417982D01*
D11*
X196032026Y-117408252D02*
X195863660Y-117464373D01*
X195863660Y-117464373D02*
X195583051Y-117464373D01*
X195583051Y-117464373D02*
X195470807Y-117408252D01*
X195470807Y-117408252D02*
X195414685Y-117352130D01*
X195414685Y-117352130D02*
X195358563Y-117239886D01*
X195358563Y-117239886D02*
X195358563Y-117127642D01*
X195358563Y-117127642D02*
X195414685Y-117015398D01*
X195414685Y-117015398D02*
X195470807Y-116959276D01*
X195470807Y-116959276D02*
X195583051Y-116903154D01*
X195583051Y-116903154D02*
X195807538Y-116847032D01*
X195807538Y-116847032D02*
X195919782Y-116790911D01*
X195919782Y-116790911D02*
X195975904Y-116734789D01*
X195975904Y-116734789D02*
X196032026Y-116622545D01*
X196032026Y-116622545D02*
X196032026Y-116510301D01*
X196032026Y-116510301D02*
X195975904Y-116398057D01*
X195975904Y-116398057D02*
X195919782Y-116341935D01*
X195919782Y-116341935D02*
X195807538Y-116285813D01*
X195807538Y-116285813D02*
X195526929Y-116285813D01*
X195526929Y-116285813D02*
X195358563Y-116341935D01*
X194516735Y-116285813D02*
X194516735Y-117127642D01*
X194516735Y-117127642D02*
X194572856Y-117296008D01*
X194572856Y-117296008D02*
X194685100Y-117408252D01*
X194685100Y-117408252D02*
X194853466Y-117464373D01*
X194853466Y-117464373D02*
X194965710Y-117464373D01*
X193394297Y-116285813D02*
X193955516Y-116285813D01*
X193955516Y-116285813D02*
X194011638Y-116847032D01*
X194011638Y-116847032D02*
X193955516Y-116790911D01*
X193955516Y-116790911D02*
X193843272Y-116734789D01*
X193843272Y-116734789D02*
X193562663Y-116734789D01*
X193562663Y-116734789D02*
X193450419Y-116790911D01*
X193450419Y-116790911D02*
X193394297Y-116847032D01*
X193394297Y-116847032D02*
X193338175Y-116959276D01*
X193338175Y-116959276D02*
X193338175Y-117239886D01*
X193338175Y-117239886D02*
X193394297Y-117352130D01*
X193394297Y-117352130D02*
X193450419Y-117408252D01*
X193450419Y-117408252D02*
X193562663Y-117464373D01*
X193562663Y-117464373D02*
X193843272Y-117464373D01*
X193843272Y-117464373D02*
X193955516Y-117408252D01*
X193955516Y-117408252D02*
X194011638Y-117352130D01*
D12*
X157685055Y-90572124D02*
X157685055Y-89332052D01*
X157685055Y-89332052D02*
X157389800Y-89332052D01*
X157389800Y-89332052D02*
X157212647Y-89391103D01*
X157212647Y-89391103D02*
X157094545Y-89509205D01*
X157094545Y-89509205D02*
X157035494Y-89627307D01*
X157035494Y-89627307D02*
X156976443Y-89863511D01*
X156976443Y-89863511D02*
X156976443Y-90040664D01*
X156976443Y-90040664D02*
X157035494Y-90276868D01*
X157035494Y-90276868D02*
X157094545Y-90394970D01*
X157094545Y-90394970D02*
X157212647Y-90513073D01*
X157212647Y-90513073D02*
X157389800Y-90572124D01*
X157389800Y-90572124D02*
X157685055Y-90572124D01*
X156504034Y-89450154D02*
X156444983Y-89391103D01*
X156444983Y-89391103D02*
X156326881Y-89332052D01*
X156326881Y-89332052D02*
X156031626Y-89332052D01*
X156031626Y-89332052D02*
X155913524Y-89391103D01*
X155913524Y-89391103D02*
X155854473Y-89450154D01*
X155854473Y-89450154D02*
X155795422Y-89568256D01*
X155795422Y-89568256D02*
X155795422Y-89686358D01*
X155795422Y-89686358D02*
X155854473Y-89863511D01*
X155854473Y-89863511D02*
X156563085Y-90572124D01*
X156563085Y-90572124D02*
X155795422Y-90572124D01*
D10*
X184986078Y-118451373D02*
X185042103Y-118507399D01*
X185042103Y-118507399D02*
X185210179Y-118563424D01*
X185210179Y-118563424D02*
X185322229Y-118563424D01*
X185322229Y-118563424D02*
X185490304Y-118507399D01*
X185490304Y-118507399D02*
X185602355Y-118395348D01*
X185602355Y-118395348D02*
X185658380Y-118283298D01*
X185658380Y-118283298D02*
X185714405Y-118059197D01*
X185714405Y-118059197D02*
X185714405Y-117891122D01*
X185714405Y-117891122D02*
X185658380Y-117667021D01*
X185658380Y-117667021D02*
X185602355Y-117554971D01*
X185602355Y-117554971D02*
X185490304Y-117442921D01*
X185490304Y-117442921D02*
X185322229Y-117386896D01*
X185322229Y-117386896D02*
X185210179Y-117386896D01*
X185210179Y-117386896D02*
X185042103Y-117442921D01*
X185042103Y-117442921D02*
X184986078Y-117498946D01*
X183921600Y-117386896D02*
X184481852Y-117386896D01*
X184481852Y-117386896D02*
X184537877Y-117947147D01*
X184537877Y-117947147D02*
X184481852Y-117891122D01*
X184481852Y-117891122D02*
X184369802Y-117835097D01*
X184369802Y-117835097D02*
X184089676Y-117835097D01*
X184089676Y-117835097D02*
X183977626Y-117891122D01*
X183977626Y-117891122D02*
X183921600Y-117947147D01*
X183921600Y-117947147D02*
X183865575Y-118059197D01*
X183865575Y-118059197D02*
X183865575Y-118339323D01*
X183865575Y-118339323D02*
X183921600Y-118451373D01*
X183921600Y-118451373D02*
X183977626Y-118507399D01*
X183977626Y-118507399D02*
X184089676Y-118563424D01*
X184089676Y-118563424D02*
X184369802Y-118563424D01*
X184369802Y-118563424D02*
X184481852Y-118507399D01*
X184481852Y-118507399D02*
X184537877Y-118451373D01*
X167761891Y-85217414D02*
X167817916Y-85273440D01*
X167817916Y-85273440D02*
X167985992Y-85329465D01*
X167985992Y-85329465D02*
X168098042Y-85329465D01*
X168098042Y-85329465D02*
X168266117Y-85273440D01*
X168266117Y-85273440D02*
X168378168Y-85161389D01*
X168378168Y-85161389D02*
X168434193Y-85049339D01*
X168434193Y-85049339D02*
X168490218Y-84825238D01*
X168490218Y-84825238D02*
X168490218Y-84657163D01*
X168490218Y-84657163D02*
X168434193Y-84433062D01*
X168434193Y-84433062D02*
X168378168Y-84321012D01*
X168378168Y-84321012D02*
X168266117Y-84208962D01*
X168266117Y-84208962D02*
X168098042Y-84152937D01*
X168098042Y-84152937D02*
X167985992Y-84152937D01*
X167985992Y-84152937D02*
X167817916Y-84208962D01*
X167817916Y-84208962D02*
X167761891Y-84264987D01*
X167313690Y-84264987D02*
X167257665Y-84208962D01*
X167257665Y-84208962D02*
X167145615Y-84152937D01*
X167145615Y-84152937D02*
X166865489Y-84152937D01*
X166865489Y-84152937D02*
X166753439Y-84208962D01*
X166753439Y-84208962D02*
X166697413Y-84264987D01*
X166697413Y-84264987D02*
X166641388Y-84377037D01*
X166641388Y-84377037D02*
X166641388Y-84489088D01*
X166641388Y-84489088D02*
X166697413Y-84657163D01*
X166697413Y-84657163D02*
X167369715Y-85329465D01*
X167369715Y-85329465D02*
X166641388Y-85329465D01*
X196026600Y-113039424D02*
X196418776Y-112479172D01*
X196698902Y-113039424D02*
X196698902Y-111862896D01*
X196698902Y-111862896D02*
X196250701Y-111862896D01*
X196250701Y-111862896D02*
X196138650Y-111918921D01*
X196138650Y-111918921D02*
X196082625Y-111974946D01*
X196082625Y-111974946D02*
X196026600Y-112086996D01*
X196026600Y-112086996D02*
X196026600Y-112255072D01*
X196026600Y-112255072D02*
X196082625Y-112367122D01*
X196082625Y-112367122D02*
X196138650Y-112423147D01*
X196138650Y-112423147D02*
X196250701Y-112479172D01*
X196250701Y-112479172D02*
X196698902Y-112479172D01*
X194906097Y-113039424D02*
X195578399Y-113039424D01*
X195242248Y-113039424D02*
X195242248Y-111862896D01*
X195242248Y-111862896D02*
X195354298Y-112030971D01*
X195354298Y-112030971D02*
X195466349Y-112143021D01*
X195466349Y-112143021D02*
X195578399Y-112199047D01*
X194345846Y-113039424D02*
X194121745Y-113039424D01*
X194121745Y-113039424D02*
X194009695Y-112983399D01*
X194009695Y-112983399D02*
X193953670Y-112927373D01*
X193953670Y-112927373D02*
X193841619Y-112759298D01*
X193841619Y-112759298D02*
X193785594Y-112535197D01*
X193785594Y-112535197D02*
X193785594Y-112086996D01*
X193785594Y-112086996D02*
X193841619Y-111974946D01*
X193841619Y-111974946D02*
X193897645Y-111918921D01*
X193897645Y-111918921D02*
X194009695Y-111862896D01*
X194009695Y-111862896D02*
X194233795Y-111862896D01*
X194233795Y-111862896D02*
X194345846Y-111918921D01*
X194345846Y-111918921D02*
X194401871Y-111974946D01*
X194401871Y-111974946D02*
X194457896Y-112086996D01*
X194457896Y-112086996D02*
X194457896Y-112367122D01*
X194457896Y-112367122D02*
X194401871Y-112479172D01*
X194401871Y-112479172D02*
X194345846Y-112535197D01*
X194345846Y-112535197D02*
X194233795Y-112591223D01*
X194233795Y-112591223D02*
X194009695Y-112591223D01*
X194009695Y-112591223D02*
X193897645Y-112535197D01*
X193897645Y-112535197D02*
X193841619Y-112479172D01*
X193841619Y-112479172D02*
X193785594Y-112367122D01*
X167566028Y-89750224D02*
X167622053Y-89806250D01*
X167622053Y-89806250D02*
X167790129Y-89862275D01*
X167790129Y-89862275D02*
X167902179Y-89862275D01*
X167902179Y-89862275D02*
X168070254Y-89806250D01*
X168070254Y-89806250D02*
X168182305Y-89694199D01*
X168182305Y-89694199D02*
X168238330Y-89582149D01*
X168238330Y-89582149D02*
X168294355Y-89358048D01*
X168294355Y-89358048D02*
X168294355Y-89189973D01*
X168294355Y-89189973D02*
X168238330Y-88965872D01*
X168238330Y-88965872D02*
X168182305Y-88853822D01*
X168182305Y-88853822D02*
X168070254Y-88741772D01*
X168070254Y-88741772D02*
X167902179Y-88685747D01*
X167902179Y-88685747D02*
X167790129Y-88685747D01*
X167790129Y-88685747D02*
X167622053Y-88741772D01*
X167622053Y-88741772D02*
X167566028Y-88797797D01*
X167173852Y-88685747D02*
X166445525Y-88685747D01*
X166445525Y-88685747D02*
X166837701Y-89133948D01*
X166837701Y-89133948D02*
X166669626Y-89133948D01*
X166669626Y-89133948D02*
X166557576Y-89189973D01*
X166557576Y-89189973D02*
X166501550Y-89245998D01*
X166501550Y-89245998D02*
X166445525Y-89358048D01*
X166445525Y-89358048D02*
X166445525Y-89638174D01*
X166445525Y-89638174D02*
X166501550Y-89750224D01*
X166501550Y-89750224D02*
X166557576Y-89806250D01*
X166557576Y-89806250D02*
X166669626Y-89862275D01*
X166669626Y-89862275D02*
X167005777Y-89862275D01*
X167005777Y-89862275D02*
X167117827Y-89806250D01*
X167117827Y-89806250D02*
X167173852Y-89750224D01*
D11*
X192025701Y-101508348D02*
X191857335Y-101564469D01*
X191857335Y-101564469D02*
X191576726Y-101564469D01*
X191576726Y-101564469D02*
X191464482Y-101508348D01*
X191464482Y-101508348D02*
X191408360Y-101452226D01*
X191408360Y-101452226D02*
X191352238Y-101339982D01*
X191352238Y-101339982D02*
X191352238Y-101227738D01*
X191352238Y-101227738D02*
X191408360Y-101115494D01*
X191408360Y-101115494D02*
X191464482Y-101059372D01*
X191464482Y-101059372D02*
X191576726Y-101003250D01*
X191576726Y-101003250D02*
X191801213Y-100947128D01*
X191801213Y-100947128D02*
X191913457Y-100891007D01*
X191913457Y-100891007D02*
X191969579Y-100834885D01*
X191969579Y-100834885D02*
X192025701Y-100722641D01*
X192025701Y-100722641D02*
X192025701Y-100610397D01*
X192025701Y-100610397D02*
X191969579Y-100498153D01*
X191969579Y-100498153D02*
X191913457Y-100442031D01*
X191913457Y-100442031D02*
X191801213Y-100385909D01*
X191801213Y-100385909D02*
X191520604Y-100385909D01*
X191520604Y-100385909D02*
X191352238Y-100442031D01*
X190510410Y-100385909D02*
X190510410Y-101227738D01*
X190510410Y-101227738D02*
X190566531Y-101396104D01*
X190566531Y-101396104D02*
X190678775Y-101508348D01*
X190678775Y-101508348D02*
X190847141Y-101564469D01*
X190847141Y-101564469D02*
X190959385Y-101564469D01*
X189331850Y-101564469D02*
X190005313Y-101564469D01*
X189668581Y-101564469D02*
X189668581Y-100385909D01*
X189668581Y-100385909D02*
X189780825Y-100554275D01*
X189780825Y-100554275D02*
X189893069Y-100666519D01*
X189893069Y-100666519D02*
X190005313Y-100722641D01*
D10*
X117039424Y-111513921D02*
X116479172Y-111121745D01*
X117039424Y-110841619D02*
X115862896Y-110841619D01*
X115862896Y-110841619D02*
X115862896Y-111289820D01*
X115862896Y-111289820D02*
X115918921Y-111401871D01*
X115918921Y-111401871D02*
X115974946Y-111457896D01*
X115974946Y-111457896D02*
X116086996Y-111513921D01*
X116086996Y-111513921D02*
X116255072Y-111513921D01*
X116255072Y-111513921D02*
X116367122Y-111457896D01*
X116367122Y-111457896D02*
X116423147Y-111401871D01*
X116423147Y-111401871D02*
X116479172Y-111289820D01*
X116479172Y-111289820D02*
X116479172Y-110841619D01*
X117039424Y-112634424D02*
X117039424Y-111962122D01*
X117039424Y-112298273D02*
X115862896Y-112298273D01*
X115862896Y-112298273D02*
X116030971Y-112186223D01*
X116030971Y-112186223D02*
X116143021Y-112074172D01*
X116143021Y-112074172D02*
X116199047Y-111962122D01*
X115862896Y-113362751D02*
X115862896Y-113474801D01*
X115862896Y-113474801D02*
X115918921Y-113586851D01*
X115918921Y-113586851D02*
X115974946Y-113642877D01*
X115974946Y-113642877D02*
X116086996Y-113698902D01*
X116086996Y-113698902D02*
X116311097Y-113754927D01*
X116311097Y-113754927D02*
X116591223Y-113754927D01*
X116591223Y-113754927D02*
X116815323Y-113698902D01*
X116815323Y-113698902D02*
X116927373Y-113642877D01*
X116927373Y-113642877D02*
X116983399Y-113586851D01*
X116983399Y-113586851D02*
X117039424Y-113474801D01*
X117039424Y-113474801D02*
X117039424Y-113362751D01*
X117039424Y-113362751D02*
X116983399Y-113250701D01*
X116983399Y-113250701D02*
X116927373Y-113194675D01*
X116927373Y-113194675D02*
X116815323Y-113138650D01*
X116815323Y-113138650D02*
X116591223Y-113082625D01*
X116591223Y-113082625D02*
X116311097Y-113082625D01*
X116311097Y-113082625D02*
X116086996Y-113138650D01*
X116086996Y-113138650D02*
X115974946Y-113194675D01*
X115974946Y-113194675D02*
X115918921Y-113250701D01*
X115918921Y-113250701D02*
X115862896Y-113362751D01*
D11*
X125451073Y-97803840D02*
X125507194Y-97972206D01*
X125507194Y-97972206D02*
X125507194Y-98252815D01*
X125507194Y-98252815D02*
X125451073Y-98365059D01*
X125451073Y-98365059D02*
X125394951Y-98421181D01*
X125394951Y-98421181D02*
X125282707Y-98477303D01*
X125282707Y-98477303D02*
X125170463Y-98477303D01*
X125170463Y-98477303D02*
X125058219Y-98421181D01*
X125058219Y-98421181D02*
X125002097Y-98365059D01*
X125002097Y-98365059D02*
X124945975Y-98252815D01*
X124945975Y-98252815D02*
X124889853Y-98028328D01*
X124889853Y-98028328D02*
X124833732Y-97916084D01*
X124833732Y-97916084D02*
X124777610Y-97859962D01*
X124777610Y-97859962D02*
X124665366Y-97803840D01*
X124665366Y-97803840D02*
X124553122Y-97803840D01*
X124553122Y-97803840D02*
X124440878Y-97859962D01*
X124440878Y-97859962D02*
X124384756Y-97916084D01*
X124384756Y-97916084D02*
X124328634Y-98028328D01*
X124328634Y-98028328D02*
X124328634Y-98308937D01*
X124328634Y-98308937D02*
X124384756Y-98477303D01*
X124328634Y-99319131D02*
X125170463Y-99319131D01*
X125170463Y-99319131D02*
X125338829Y-99263010D01*
X125338829Y-99263010D02*
X125451073Y-99150766D01*
X125451073Y-99150766D02*
X125507194Y-98982400D01*
X125507194Y-98982400D02*
X125507194Y-98870156D01*
X124328634Y-99768106D02*
X124328634Y-100497691D01*
X124328634Y-100497691D02*
X124777610Y-100104838D01*
X124777610Y-100104838D02*
X124777610Y-100273203D01*
X124777610Y-100273203D02*
X124833732Y-100385447D01*
X124833732Y-100385447D02*
X124889853Y-100441569D01*
X124889853Y-100441569D02*
X125002097Y-100497691D01*
X125002097Y-100497691D02*
X125282707Y-100497691D01*
X125282707Y-100497691D02*
X125394951Y-100441569D01*
X125394951Y-100441569D02*
X125451073Y-100385447D01*
X125451073Y-100385447D02*
X125507194Y-100273203D01*
X125507194Y-100273203D02*
X125507194Y-99936472D01*
X125507194Y-99936472D02*
X125451073Y-99824228D01*
X125451073Y-99824228D02*
X125394951Y-99768106D01*
D13*
X116380933Y-101124609D02*
X116380933Y-102077060D01*
X116380933Y-102077060D02*
X116324906Y-102189113D01*
X116324906Y-102189113D02*
X116268880Y-102245140D01*
X116268880Y-102245140D02*
X116156827Y-102301166D01*
X116156827Y-102301166D02*
X115932721Y-102301166D01*
X115932721Y-102301166D02*
X115820668Y-102245140D01*
X115820668Y-102245140D02*
X115764641Y-102189113D01*
X115764641Y-102189113D02*
X115708615Y-102077060D01*
X115708615Y-102077060D02*
X115708615Y-101124609D01*
X114532057Y-102301166D02*
X115204375Y-102301166D01*
X114868216Y-102301166D02*
X114868216Y-101124609D01*
X114868216Y-101124609D02*
X114980269Y-101292689D01*
X114980269Y-101292689D02*
X115092322Y-101404742D01*
X115092322Y-101404742D02*
X115204375Y-101460768D01*
D10*
X188986078Y-94039424D02*
X189378254Y-93479172D01*
X189658380Y-94039424D02*
X189658380Y-92862896D01*
X189658380Y-92862896D02*
X189210179Y-92862896D01*
X189210179Y-92862896D02*
X189098128Y-92918921D01*
X189098128Y-92918921D02*
X189042103Y-92974946D01*
X189042103Y-92974946D02*
X188986078Y-93086996D01*
X188986078Y-93086996D02*
X188986078Y-93255072D01*
X188986078Y-93255072D02*
X189042103Y-93367122D01*
X189042103Y-93367122D02*
X189098128Y-93423147D01*
X189098128Y-93423147D02*
X189210179Y-93479172D01*
X189210179Y-93479172D02*
X189658380Y-93479172D01*
X187865575Y-94039424D02*
X188537877Y-94039424D01*
X188201726Y-94039424D02*
X188201726Y-92862896D01*
X188201726Y-92862896D02*
X188313776Y-93030971D01*
X188313776Y-93030971D02*
X188425827Y-93143021D01*
X188425827Y-93143021D02*
X188537877Y-93199047D01*
X186857123Y-93255072D02*
X186857123Y-94039424D01*
X187137248Y-92806871D02*
X187417374Y-93647248D01*
X187417374Y-93647248D02*
X186689047Y-93647248D01*
X115486078Y-92951373D02*
X115542103Y-93007399D01*
X115542103Y-93007399D02*
X115710179Y-93063424D01*
X115710179Y-93063424D02*
X115822229Y-93063424D01*
X115822229Y-93063424D02*
X115990304Y-93007399D01*
X115990304Y-93007399D02*
X116102355Y-92895348D01*
X116102355Y-92895348D02*
X116158380Y-92783298D01*
X116158380Y-92783298D02*
X116214405Y-92559197D01*
X116214405Y-92559197D02*
X116214405Y-92391122D01*
X116214405Y-92391122D02*
X116158380Y-92167021D01*
X116158380Y-92167021D02*
X116102355Y-92054971D01*
X116102355Y-92054971D02*
X115990304Y-91942921D01*
X115990304Y-91942921D02*
X115822229Y-91886896D01*
X115822229Y-91886896D02*
X115710179Y-91886896D01*
X115710179Y-91886896D02*
X115542103Y-91942921D01*
X115542103Y-91942921D02*
X115486078Y-91998946D01*
X114365575Y-93063424D02*
X115037877Y-93063424D01*
X114701726Y-93063424D02*
X114701726Y-91886896D01*
X114701726Y-91886896D02*
X114813776Y-92054971D01*
X114813776Y-92054971D02*
X114925827Y-92167021D01*
X114925827Y-92167021D02*
X115037877Y-92223047D01*
X113245072Y-93063424D02*
X113917374Y-93063424D01*
X113581223Y-93063424D02*
X113581223Y-91886896D01*
X113581223Y-91886896D02*
X113693273Y-92054971D01*
X113693273Y-92054971D02*
X113805324Y-92167021D01*
X113805324Y-92167021D02*
X113917374Y-92223047D01*
X136927373Y-92997399D02*
X136983399Y-92941374D01*
X136983399Y-92941374D02*
X137039424Y-92773298D01*
X137039424Y-92773298D02*
X137039424Y-92661248D01*
X137039424Y-92661248D02*
X136983399Y-92493173D01*
X136983399Y-92493173D02*
X136871348Y-92381122D01*
X136871348Y-92381122D02*
X136759298Y-92325097D01*
X136759298Y-92325097D02*
X136535197Y-92269072D01*
X136535197Y-92269072D02*
X136367122Y-92269072D01*
X136367122Y-92269072D02*
X136143021Y-92325097D01*
X136143021Y-92325097D02*
X136030971Y-92381122D01*
X136030971Y-92381122D02*
X135918921Y-92493173D01*
X135918921Y-92493173D02*
X135862896Y-92661248D01*
X135862896Y-92661248D02*
X135862896Y-92773298D01*
X135862896Y-92773298D02*
X135918921Y-92941374D01*
X135918921Y-92941374D02*
X135974946Y-92997399D01*
X137039424Y-94117902D02*
X137039424Y-93445600D01*
X137039424Y-93781751D02*
X135862896Y-93781751D01*
X135862896Y-93781751D02*
X136030971Y-93669701D01*
X136030971Y-93669701D02*
X136143021Y-93557650D01*
X136143021Y-93557650D02*
X136199047Y-93445600D01*
X135862896Y-94510078D02*
X135862896Y-95238405D01*
X135862896Y-95238405D02*
X136311097Y-94846229D01*
X136311097Y-94846229D02*
X136311097Y-95014304D01*
X136311097Y-95014304D02*
X136367122Y-95126355D01*
X136367122Y-95126355D02*
X136423147Y-95182380D01*
X136423147Y-95182380D02*
X136535197Y-95238405D01*
X136535197Y-95238405D02*
X136815323Y-95238405D01*
X136815323Y-95238405D02*
X136927373Y-95182380D01*
X136927373Y-95182380D02*
X136983399Y-95126355D01*
X136983399Y-95126355D02*
X137039424Y-95014304D01*
X137039424Y-95014304D02*
X137039424Y-94678153D01*
X137039424Y-94678153D02*
X136983399Y-94566103D01*
X136983399Y-94566103D02*
X136927373Y-94510078D01*
X124427373Y-114617902D02*
X124483399Y-114561877D01*
X124483399Y-114561877D02*
X124539424Y-114393801D01*
X124539424Y-114393801D02*
X124539424Y-114281751D01*
X124539424Y-114281751D02*
X124483399Y-114113676D01*
X124483399Y-114113676D02*
X124371348Y-114001625D01*
X124371348Y-114001625D02*
X124259298Y-113945600D01*
X124259298Y-113945600D02*
X124035197Y-113889575D01*
X124035197Y-113889575D02*
X123867122Y-113889575D01*
X123867122Y-113889575D02*
X123643021Y-113945600D01*
X123643021Y-113945600D02*
X123530971Y-114001625D01*
X123530971Y-114001625D02*
X123418921Y-114113676D01*
X123418921Y-114113676D02*
X123362896Y-114281751D01*
X123362896Y-114281751D02*
X123362896Y-114393801D01*
X123362896Y-114393801D02*
X123418921Y-114561877D01*
X123418921Y-114561877D02*
X123474946Y-114617902D01*
X123755072Y-115626355D02*
X124539424Y-115626355D01*
X123306871Y-115346229D02*
X124147248Y-115066103D01*
X124147248Y-115066103D02*
X124147248Y-115794430D01*
X180138650Y-105039424D02*
X180138650Y-103862896D01*
X178906097Y-104927373D02*
X178962122Y-104983399D01*
X178962122Y-104983399D02*
X179130198Y-105039424D01*
X179130198Y-105039424D02*
X179242248Y-105039424D01*
X179242248Y-105039424D02*
X179410323Y-104983399D01*
X179410323Y-104983399D02*
X179522374Y-104871348D01*
X179522374Y-104871348D02*
X179578399Y-104759298D01*
X179578399Y-104759298D02*
X179634424Y-104535197D01*
X179634424Y-104535197D02*
X179634424Y-104367122D01*
X179634424Y-104367122D02*
X179578399Y-104143021D01*
X179578399Y-104143021D02*
X179522374Y-104030971D01*
X179522374Y-104030971D02*
X179410323Y-103918921D01*
X179410323Y-103918921D02*
X179242248Y-103862896D01*
X179242248Y-103862896D02*
X179130198Y-103862896D01*
X179130198Y-103862896D02*
X178962122Y-103918921D01*
X178962122Y-103918921D02*
X178906097Y-103974946D01*
X178457896Y-103974946D02*
X178401871Y-103918921D01*
X178401871Y-103918921D02*
X178289821Y-103862896D01*
X178289821Y-103862896D02*
X178009695Y-103862896D01*
X178009695Y-103862896D02*
X177897645Y-103918921D01*
X177897645Y-103918921D02*
X177841619Y-103974946D01*
X177841619Y-103974946D02*
X177785594Y-104086996D01*
X177785594Y-104086996D02*
X177785594Y-104199047D01*
X177785594Y-104199047D02*
X177841619Y-104367122D01*
X177841619Y-104367122D02*
X178513921Y-105039424D01*
X178513921Y-105039424D02*
X177785594Y-105039424D01*
X158666747Y-118187690D02*
X159058923Y-117627438D01*
X159339049Y-118187690D02*
X159339049Y-117011162D01*
X159339049Y-117011162D02*
X158890848Y-117011162D01*
X158890848Y-117011162D02*
X158778797Y-117067187D01*
X158778797Y-117067187D02*
X158722772Y-117123212D01*
X158722772Y-117123212D02*
X158666747Y-117235262D01*
X158666747Y-117235262D02*
X158666747Y-117403338D01*
X158666747Y-117403338D02*
X158722772Y-117515388D01*
X158722772Y-117515388D02*
X158778797Y-117571413D01*
X158778797Y-117571413D02*
X158890848Y-117627438D01*
X158890848Y-117627438D02*
X159339049Y-117627438D01*
X157546244Y-118187690D02*
X158218546Y-118187690D01*
X157882395Y-118187690D02*
X157882395Y-117011162D01*
X157882395Y-117011162D02*
X157994445Y-117179237D01*
X157994445Y-117179237D02*
X158106496Y-117291287D01*
X158106496Y-117291287D02*
X158218546Y-117347313D01*
X156481766Y-117011162D02*
X157042018Y-117011162D01*
X157042018Y-117011162D02*
X157098043Y-117571413D01*
X157098043Y-117571413D02*
X157042018Y-117515388D01*
X157042018Y-117515388D02*
X156929968Y-117459363D01*
X156929968Y-117459363D02*
X156649842Y-117459363D01*
X156649842Y-117459363D02*
X156537792Y-117515388D01*
X156537792Y-117515388D02*
X156481766Y-117571413D01*
X156481766Y-117571413D02*
X156425741Y-117683463D01*
X156425741Y-117683463D02*
X156425741Y-117963589D01*
X156425741Y-117963589D02*
X156481766Y-118075639D01*
X156481766Y-118075639D02*
X156537792Y-118131665D01*
X156537792Y-118131665D02*
X156649842Y-118187690D01*
X156649842Y-118187690D02*
X156929968Y-118187690D01*
X156929968Y-118187690D02*
X157042018Y-118131665D01*
X157042018Y-118131665D02*
X157098043Y-118075639D01*
X158679997Y-99790945D02*
X159072173Y-99230693D01*
X159352299Y-99790945D02*
X159352299Y-98614417D01*
X159352299Y-98614417D02*
X158904098Y-98614417D01*
X158904098Y-98614417D02*
X158792047Y-98670442D01*
X158792047Y-98670442D02*
X158736022Y-98726467D01*
X158736022Y-98726467D02*
X158679997Y-98838517D01*
X158679997Y-98838517D02*
X158679997Y-99006593D01*
X158679997Y-99006593D02*
X158736022Y-99118643D01*
X158736022Y-99118643D02*
X158792047Y-99174668D01*
X158792047Y-99174668D02*
X158904098Y-99230693D01*
X158904098Y-99230693D02*
X159352299Y-99230693D01*
X158007695Y-99118643D02*
X158119746Y-99062618D01*
X158119746Y-99062618D02*
X158175771Y-99006593D01*
X158175771Y-99006593D02*
X158231796Y-98894542D01*
X158231796Y-98894542D02*
X158231796Y-98838517D01*
X158231796Y-98838517D02*
X158175771Y-98726467D01*
X158175771Y-98726467D02*
X158119746Y-98670442D01*
X158119746Y-98670442D02*
X158007695Y-98614417D01*
X158007695Y-98614417D02*
X157783595Y-98614417D01*
X157783595Y-98614417D02*
X157671545Y-98670442D01*
X157671545Y-98670442D02*
X157615519Y-98726467D01*
X157615519Y-98726467D02*
X157559494Y-98838517D01*
X157559494Y-98838517D02*
X157559494Y-98894542D01*
X157559494Y-98894542D02*
X157615519Y-99006593D01*
X157615519Y-99006593D02*
X157671545Y-99062618D01*
X157671545Y-99062618D02*
X157783595Y-99118643D01*
X157783595Y-99118643D02*
X158007695Y-99118643D01*
X158007695Y-99118643D02*
X158119746Y-99174668D01*
X158119746Y-99174668D02*
X158175771Y-99230693D01*
X158175771Y-99230693D02*
X158231796Y-99342744D01*
X158231796Y-99342744D02*
X158231796Y-99566844D01*
X158231796Y-99566844D02*
X158175771Y-99678894D01*
X158175771Y-99678894D02*
X158119746Y-99734920D01*
X158119746Y-99734920D02*
X158007695Y-99790945D01*
X158007695Y-99790945D02*
X157783595Y-99790945D01*
X157783595Y-99790945D02*
X157671545Y-99734920D01*
X157671545Y-99734920D02*
X157615519Y-99678894D01*
X157615519Y-99678894D02*
X157559494Y-99566844D01*
X157559494Y-99566844D02*
X157559494Y-99342744D01*
X157559494Y-99342744D02*
X157615519Y-99230693D01*
X157615519Y-99230693D02*
X157671545Y-99174668D01*
X157671545Y-99174668D02*
X157783595Y-99118643D01*
D14*
X185303249Y-73931678D02*
X184383249Y-73931678D01*
X184383249Y-73931678D02*
X184383249Y-74150726D01*
X184383249Y-74150726D02*
X184427059Y-74282154D01*
X184427059Y-74282154D02*
X184514678Y-74369773D01*
X184514678Y-74369773D02*
X184602297Y-74413583D01*
X184602297Y-74413583D02*
X184777535Y-74457392D01*
X184777535Y-74457392D02*
X184908963Y-74457392D01*
X184908963Y-74457392D02*
X185084201Y-74413583D01*
X185084201Y-74413583D02*
X185171820Y-74369773D01*
X185171820Y-74369773D02*
X185259440Y-74282154D01*
X185259440Y-74282154D02*
X185303249Y-74150726D01*
X185303249Y-74150726D02*
X185303249Y-73931678D01*
X184383249Y-74764059D02*
X184383249Y-75333583D01*
X184383249Y-75333583D02*
X184733725Y-75026916D01*
X184733725Y-75026916D02*
X184733725Y-75158345D01*
X184733725Y-75158345D02*
X184777535Y-75245964D01*
X184777535Y-75245964D02*
X184821344Y-75289773D01*
X184821344Y-75289773D02*
X184908963Y-75333583D01*
X184908963Y-75333583D02*
X185128011Y-75333583D01*
X185128011Y-75333583D02*
X185215630Y-75289773D01*
X185215630Y-75289773D02*
X185259440Y-75245964D01*
X185259440Y-75245964D02*
X185303249Y-75158345D01*
X185303249Y-75158345D02*
X185303249Y-74895488D01*
X185303249Y-74895488D02*
X185259440Y-74807869D01*
X185259440Y-74807869D02*
X185215630Y-74764059D01*
D10*
X116927373Y-106513921D02*
X116983399Y-106457896D01*
X116983399Y-106457896D02*
X117039424Y-106289820D01*
X117039424Y-106289820D02*
X117039424Y-106177770D01*
X117039424Y-106177770D02*
X116983399Y-106009695D01*
X116983399Y-106009695D02*
X116871348Y-105897644D01*
X116871348Y-105897644D02*
X116759298Y-105841619D01*
X116759298Y-105841619D02*
X116535197Y-105785594D01*
X116535197Y-105785594D02*
X116367122Y-105785594D01*
X116367122Y-105785594D02*
X116143021Y-105841619D01*
X116143021Y-105841619D02*
X116030971Y-105897644D01*
X116030971Y-105897644D02*
X115918921Y-106009695D01*
X115918921Y-106009695D02*
X115862896Y-106177770D01*
X115862896Y-106177770D02*
X115862896Y-106289820D01*
X115862896Y-106289820D02*
X115918921Y-106457896D01*
X115918921Y-106457896D02*
X115974946Y-106513921D01*
X117039424Y-107634424D02*
X117039424Y-106962122D01*
X117039424Y-107298273D02*
X115862896Y-107298273D01*
X115862896Y-107298273D02*
X116030971Y-107186223D01*
X116030971Y-107186223D02*
X116143021Y-107074172D01*
X116143021Y-107074172D02*
X116199047Y-106962122D01*
X115862896Y-108362751D02*
X115862896Y-108474801D01*
X115862896Y-108474801D02*
X115918921Y-108586851D01*
X115918921Y-108586851D02*
X115974946Y-108642877D01*
X115974946Y-108642877D02*
X116086996Y-108698902D01*
X116086996Y-108698902D02*
X116311097Y-108754927D01*
X116311097Y-108754927D02*
X116591223Y-108754927D01*
X116591223Y-108754927D02*
X116815323Y-108698902D01*
X116815323Y-108698902D02*
X116927373Y-108642877D01*
X116927373Y-108642877D02*
X116983399Y-108586851D01*
X116983399Y-108586851D02*
X117039424Y-108474801D01*
X117039424Y-108474801D02*
X117039424Y-108362751D01*
X117039424Y-108362751D02*
X116983399Y-108250701D01*
X116983399Y-108250701D02*
X116927373Y-108194675D01*
X116927373Y-108194675D02*
X116815323Y-108138650D01*
X116815323Y-108138650D02*
X116591223Y-108082625D01*
X116591223Y-108082625D02*
X116311097Y-108082625D01*
X116311097Y-108082625D02*
X116086996Y-108138650D01*
X116086996Y-108138650D02*
X115974946Y-108194675D01*
X115974946Y-108194675D02*
X115918921Y-108250701D01*
X115918921Y-108250701D02*
X115862896Y-108362751D01*
D11*
X187080920Y-111008348D02*
X186912554Y-111064469D01*
X186912554Y-111064469D02*
X186631945Y-111064469D01*
X186631945Y-111064469D02*
X186519701Y-111008348D01*
X186519701Y-111008348D02*
X186463579Y-110952226D01*
X186463579Y-110952226D02*
X186407457Y-110839982D01*
X186407457Y-110839982D02*
X186407457Y-110727738D01*
X186407457Y-110727738D02*
X186463579Y-110615494D01*
X186463579Y-110615494D02*
X186519701Y-110559372D01*
X186519701Y-110559372D02*
X186631945Y-110503250D01*
X186631945Y-110503250D02*
X186856432Y-110447128D01*
X186856432Y-110447128D02*
X186968676Y-110391007D01*
X186968676Y-110391007D02*
X187024798Y-110334885D01*
X187024798Y-110334885D02*
X187080920Y-110222641D01*
X187080920Y-110222641D02*
X187080920Y-110110397D01*
X187080920Y-110110397D02*
X187024798Y-109998153D01*
X187024798Y-109998153D02*
X186968676Y-109942031D01*
X186968676Y-109942031D02*
X186856432Y-109885909D01*
X186856432Y-109885909D02*
X186575823Y-109885909D01*
X186575823Y-109885909D02*
X186407457Y-109942031D01*
X185565629Y-109885909D02*
X185565629Y-110727738D01*
X185565629Y-110727738D02*
X185621750Y-110896104D01*
X185621750Y-110896104D02*
X185733994Y-111008348D01*
X185733994Y-111008348D02*
X185902360Y-111064469D01*
X185902360Y-111064469D02*
X186014604Y-111064469D01*
X184499313Y-110278763D02*
X184499313Y-111064469D01*
X184779922Y-109829788D02*
X185060532Y-110671616D01*
X185060532Y-110671616D02*
X184330947Y-110671616D01*
D10*
X181486078Y-122563424D02*
X181878254Y-122003172D01*
X182158380Y-122563424D02*
X182158380Y-121386896D01*
X182158380Y-121386896D02*
X181710179Y-121386896D01*
X181710179Y-121386896D02*
X181598128Y-121442921D01*
X181598128Y-121442921D02*
X181542103Y-121498946D01*
X181542103Y-121498946D02*
X181486078Y-121610996D01*
X181486078Y-121610996D02*
X181486078Y-121779072D01*
X181486078Y-121779072D02*
X181542103Y-121891122D01*
X181542103Y-121891122D02*
X181598128Y-121947147D01*
X181598128Y-121947147D02*
X181710179Y-122003172D01*
X181710179Y-122003172D02*
X182158380Y-122003172D01*
X180365575Y-122563424D02*
X181037877Y-122563424D01*
X180701726Y-122563424D02*
X180701726Y-121386896D01*
X180701726Y-121386896D02*
X180813776Y-121554971D01*
X180813776Y-121554971D02*
X180925827Y-121667021D01*
X180925827Y-121667021D02*
X181037877Y-121723047D01*
X179693273Y-121891122D02*
X179805324Y-121835097D01*
X179805324Y-121835097D02*
X179861349Y-121779072D01*
X179861349Y-121779072D02*
X179917374Y-121667021D01*
X179917374Y-121667021D02*
X179917374Y-121610996D01*
X179917374Y-121610996D02*
X179861349Y-121498946D01*
X179861349Y-121498946D02*
X179805324Y-121442921D01*
X179805324Y-121442921D02*
X179693273Y-121386896D01*
X179693273Y-121386896D02*
X179469173Y-121386896D01*
X179469173Y-121386896D02*
X179357123Y-121442921D01*
X179357123Y-121442921D02*
X179301097Y-121498946D01*
X179301097Y-121498946D02*
X179245072Y-121610996D01*
X179245072Y-121610996D02*
X179245072Y-121667021D01*
X179245072Y-121667021D02*
X179301097Y-121779072D01*
X179301097Y-121779072D02*
X179357123Y-121835097D01*
X179357123Y-121835097D02*
X179469173Y-121891122D01*
X179469173Y-121891122D02*
X179693273Y-121891122D01*
X179693273Y-121891122D02*
X179805324Y-121947147D01*
X179805324Y-121947147D02*
X179861349Y-122003172D01*
X179861349Y-122003172D02*
X179917374Y-122115223D01*
X179917374Y-122115223D02*
X179917374Y-122339323D01*
X179917374Y-122339323D02*
X179861349Y-122451373D01*
X179861349Y-122451373D02*
X179805324Y-122507399D01*
X179805324Y-122507399D02*
X179693273Y-122563424D01*
X179693273Y-122563424D02*
X179469173Y-122563424D01*
X179469173Y-122563424D02*
X179357123Y-122507399D01*
X179357123Y-122507399D02*
X179301097Y-122451373D01*
X179301097Y-122451373D02*
X179245072Y-122339323D01*
X179245072Y-122339323D02*
X179245072Y-122115223D01*
X179245072Y-122115223D02*
X179301097Y-122003172D01*
X179301097Y-122003172D02*
X179357123Y-121947147D01*
X179357123Y-121947147D02*
X179469173Y-121891122D01*
D15*
X122782697Y-125731252D02*
X122849462Y-125697870D01*
X122849462Y-125697870D02*
X122882845Y-125664487D01*
X122882845Y-125664487D02*
X122916228Y-125597721D01*
X122916228Y-125597721D02*
X122916228Y-125397424D01*
X122916228Y-125397424D02*
X122882845Y-125330658D01*
X122882845Y-125330658D02*
X122849462Y-125297275D01*
X122849462Y-125297275D02*
X122782697Y-125263892D01*
X122782697Y-125263892D02*
X122682548Y-125263892D01*
X122682548Y-125263892D02*
X122615782Y-125297275D01*
X122615782Y-125297275D02*
X122582400Y-125330658D01*
X122582400Y-125330658D02*
X122549017Y-125397424D01*
X122549017Y-125397424D02*
X122549017Y-125597721D01*
X122549017Y-125597721D02*
X122582400Y-125664487D01*
X122582400Y-125664487D02*
X122615782Y-125697870D01*
X122615782Y-125697870D02*
X122682548Y-125731252D01*
X122682548Y-125731252D02*
X122782697Y-125731252D01*
X122248571Y-125263892D02*
X122248571Y-125964932D01*
X122248571Y-125297275D02*
X122181806Y-125263892D01*
X122181806Y-125263892D02*
X122048274Y-125263892D01*
X122048274Y-125263892D02*
X121981508Y-125297275D01*
X121981508Y-125297275D02*
X121948126Y-125330658D01*
X121948126Y-125330658D02*
X121914743Y-125397424D01*
X121914743Y-125397424D02*
X121914743Y-125597721D01*
X121914743Y-125597721D02*
X121948126Y-125664487D01*
X121948126Y-125664487D02*
X121981508Y-125697870D01*
X121981508Y-125697870D02*
X122048274Y-125731252D01*
X122048274Y-125731252D02*
X122181806Y-125731252D01*
X122181806Y-125731252D02*
X122248571Y-125697870D01*
X121347234Y-125697870D02*
X121414000Y-125731252D01*
X121414000Y-125731252D02*
X121547532Y-125731252D01*
X121547532Y-125731252D02*
X121614297Y-125697870D01*
X121614297Y-125697870D02*
X121647680Y-125631104D01*
X121647680Y-125631104D02*
X121647680Y-125364041D01*
X121647680Y-125364041D02*
X121614297Y-125297275D01*
X121614297Y-125297275D02*
X121547532Y-125263892D01*
X121547532Y-125263892D02*
X121414000Y-125263892D01*
X121414000Y-125263892D02*
X121347234Y-125297275D01*
X121347234Y-125297275D02*
X121313852Y-125364041D01*
X121313852Y-125364041D02*
X121313852Y-125430807D01*
X121313852Y-125430807D02*
X121647680Y-125497572D01*
X121013406Y-125263892D02*
X121013406Y-125731252D01*
X121013406Y-125330658D02*
X120980023Y-125297275D01*
X120980023Y-125297275D02*
X120913258Y-125263892D01*
X120913258Y-125263892D02*
X120813109Y-125263892D01*
X120813109Y-125263892D02*
X120746343Y-125297275D01*
X120746343Y-125297275D02*
X120712961Y-125364041D01*
X120712961Y-125364041D02*
X120712961Y-125731252D01*
X119878389Y-125697870D02*
X119811623Y-125731252D01*
X119811623Y-125731252D02*
X119678092Y-125731252D01*
X119678092Y-125731252D02*
X119611326Y-125697870D01*
X119611326Y-125697870D02*
X119577943Y-125631104D01*
X119577943Y-125631104D02*
X119577943Y-125597721D01*
X119577943Y-125597721D02*
X119611326Y-125530955D01*
X119611326Y-125530955D02*
X119678092Y-125497572D01*
X119678092Y-125497572D02*
X119778241Y-125497572D01*
X119778241Y-125497572D02*
X119845006Y-125464190D01*
X119845006Y-125464190D02*
X119878389Y-125397424D01*
X119878389Y-125397424D02*
X119878389Y-125364041D01*
X119878389Y-125364041D02*
X119845006Y-125297275D01*
X119845006Y-125297275D02*
X119778241Y-125263892D01*
X119778241Y-125263892D02*
X119678092Y-125263892D01*
X119678092Y-125263892D02*
X119611326Y-125297275D01*
X119177349Y-125731252D02*
X119244114Y-125697870D01*
X119244114Y-125697870D02*
X119277497Y-125664487D01*
X119277497Y-125664487D02*
X119310880Y-125597721D01*
X119310880Y-125597721D02*
X119310880Y-125397424D01*
X119310880Y-125397424D02*
X119277497Y-125330658D01*
X119277497Y-125330658D02*
X119244114Y-125297275D01*
X119244114Y-125297275D02*
X119177349Y-125263892D01*
X119177349Y-125263892D02*
X119077200Y-125263892D01*
X119077200Y-125263892D02*
X119010434Y-125297275D01*
X119010434Y-125297275D02*
X118977052Y-125330658D01*
X118977052Y-125330658D02*
X118943669Y-125397424D01*
X118943669Y-125397424D02*
X118943669Y-125597721D01*
X118943669Y-125597721D02*
X118977052Y-125664487D01*
X118977052Y-125664487D02*
X119010434Y-125697870D01*
X119010434Y-125697870D02*
X119077200Y-125731252D01*
X119077200Y-125731252D02*
X119177349Y-125731252D01*
X118342778Y-125263892D02*
X118342778Y-125731252D01*
X118643223Y-125263892D02*
X118643223Y-125631104D01*
X118643223Y-125631104D02*
X118609840Y-125697870D01*
X118609840Y-125697870D02*
X118543075Y-125731252D01*
X118543075Y-125731252D02*
X118442926Y-125731252D01*
X118442926Y-125731252D02*
X118376160Y-125697870D01*
X118376160Y-125697870D02*
X118342778Y-125664487D01*
X118008949Y-125731252D02*
X118008949Y-125263892D01*
X118008949Y-125397424D02*
X117975566Y-125330658D01*
X117975566Y-125330658D02*
X117942184Y-125297275D01*
X117942184Y-125297275D02*
X117875418Y-125263892D01*
X117875418Y-125263892D02*
X117808652Y-125263892D01*
X117274527Y-125697870D02*
X117341292Y-125731252D01*
X117341292Y-125731252D02*
X117474824Y-125731252D01*
X117474824Y-125731252D02*
X117541589Y-125697870D01*
X117541589Y-125697870D02*
X117574972Y-125664487D01*
X117574972Y-125664487D02*
X117608355Y-125597721D01*
X117608355Y-125597721D02*
X117608355Y-125397424D01*
X117608355Y-125397424D02*
X117574972Y-125330658D01*
X117574972Y-125330658D02*
X117541589Y-125297275D01*
X117541589Y-125297275D02*
X117474824Y-125263892D01*
X117474824Y-125263892D02*
X117341292Y-125263892D01*
X117341292Y-125263892D02*
X117274527Y-125297275D01*
X116707018Y-125697870D02*
X116773784Y-125731252D01*
X116773784Y-125731252D02*
X116907316Y-125731252D01*
X116907316Y-125731252D02*
X116974081Y-125697870D01*
X116974081Y-125697870D02*
X117007464Y-125631104D01*
X117007464Y-125631104D02*
X117007464Y-125364041D01*
X117007464Y-125364041D02*
X116974081Y-125297275D01*
X116974081Y-125297275D02*
X116907316Y-125263892D01*
X116907316Y-125263892D02*
X116773784Y-125263892D01*
X116773784Y-125263892D02*
X116707018Y-125297275D01*
X116707018Y-125297275D02*
X116673636Y-125364041D01*
X116673636Y-125364041D02*
X116673636Y-125430807D01*
X116673636Y-125430807D02*
X117007464Y-125497572D01*
X121113554Y-126859887D02*
X121113554Y-126158847D01*
X120813109Y-126859887D02*
X120813109Y-126492676D01*
X120813109Y-126492676D02*
X120846491Y-126425910D01*
X120846491Y-126425910D02*
X120913257Y-126392527D01*
X120913257Y-126392527D02*
X121013406Y-126392527D01*
X121013406Y-126392527D02*
X121080171Y-126425910D01*
X121080171Y-126425910D02*
X121113554Y-126459293D01*
X120178835Y-126859887D02*
X120178835Y-126492676D01*
X120178835Y-126492676D02*
X120212217Y-126425910D01*
X120212217Y-126425910D02*
X120278983Y-126392527D01*
X120278983Y-126392527D02*
X120412515Y-126392527D01*
X120412515Y-126392527D02*
X120479280Y-126425910D01*
X120178835Y-126826505D02*
X120245600Y-126859887D01*
X120245600Y-126859887D02*
X120412515Y-126859887D01*
X120412515Y-126859887D02*
X120479280Y-126826505D01*
X120479280Y-126826505D02*
X120512663Y-126759739D01*
X120512663Y-126759739D02*
X120512663Y-126692973D01*
X120512663Y-126692973D02*
X120479280Y-126626207D01*
X120479280Y-126626207D02*
X120412515Y-126592825D01*
X120412515Y-126592825D02*
X120245600Y-126592825D01*
X120245600Y-126592825D02*
X120178835Y-126559442D01*
X119845006Y-126859887D02*
X119845006Y-126392527D01*
X119845006Y-126526059D02*
X119811623Y-126459293D01*
X119811623Y-126459293D02*
X119778241Y-126425910D01*
X119778241Y-126425910D02*
X119711475Y-126392527D01*
X119711475Y-126392527D02*
X119644709Y-126392527D01*
X119110584Y-126859887D02*
X119110584Y-126158847D01*
X119110584Y-126826505D02*
X119177349Y-126859887D01*
X119177349Y-126859887D02*
X119310881Y-126859887D01*
X119310881Y-126859887D02*
X119377646Y-126826505D01*
X119377646Y-126826505D02*
X119411029Y-126793122D01*
X119411029Y-126793122D02*
X119444412Y-126726356D01*
X119444412Y-126726356D02*
X119444412Y-126526059D01*
X119444412Y-126526059D02*
X119411029Y-126459293D01*
X119411029Y-126459293D02*
X119377646Y-126425910D01*
X119377646Y-126425910D02*
X119310881Y-126392527D01*
X119310881Y-126392527D02*
X119177349Y-126392527D01*
X119177349Y-126392527D02*
X119110584Y-126425910D01*
X118843521Y-126392527D02*
X118709990Y-126859887D01*
X118709990Y-126859887D02*
X118576458Y-126526059D01*
X118576458Y-126526059D02*
X118442927Y-126859887D01*
X118442927Y-126859887D02*
X118309395Y-126392527D01*
X117741887Y-126859887D02*
X117741887Y-126492676D01*
X117741887Y-126492676D02*
X117775269Y-126425910D01*
X117775269Y-126425910D02*
X117842035Y-126392527D01*
X117842035Y-126392527D02*
X117975567Y-126392527D01*
X117975567Y-126392527D02*
X118042332Y-126425910D01*
X117741887Y-126826505D02*
X117808652Y-126859887D01*
X117808652Y-126859887D02*
X117975567Y-126859887D01*
X117975567Y-126859887D02*
X118042332Y-126826505D01*
X118042332Y-126826505D02*
X118075715Y-126759739D01*
X118075715Y-126759739D02*
X118075715Y-126692973D01*
X118075715Y-126692973D02*
X118042332Y-126626207D01*
X118042332Y-126626207D02*
X117975567Y-126592825D01*
X117975567Y-126592825D02*
X117808652Y-126592825D01*
X117808652Y-126592825D02*
X117741887Y-126559442D01*
X117408058Y-126859887D02*
X117408058Y-126392527D01*
X117408058Y-126526059D02*
X117374675Y-126459293D01*
X117374675Y-126459293D02*
X117341293Y-126425910D01*
X117341293Y-126425910D02*
X117274527Y-126392527D01*
X117274527Y-126392527D02*
X117207761Y-126392527D01*
X116707018Y-126826505D02*
X116773784Y-126859887D01*
X116773784Y-126859887D02*
X116907316Y-126859887D01*
X116907316Y-126859887D02*
X116974081Y-126826505D01*
X116974081Y-126826505D02*
X117007464Y-126759739D01*
X117007464Y-126759739D02*
X117007464Y-126492676D01*
X117007464Y-126492676D02*
X116974081Y-126425910D01*
X116974081Y-126425910D02*
X116907316Y-126392527D01*
X116907316Y-126392527D02*
X116773784Y-126392527D01*
X116773784Y-126392527D02*
X116707018Y-126425910D01*
X116707018Y-126425910D02*
X116673636Y-126492676D01*
X116673636Y-126492676D02*
X116673636Y-126559442D01*
X116673636Y-126559442D02*
X117007464Y-126626207D01*
D10*
X102310365Y-80951373D02*
X102366390Y-81007399D01*
X102366390Y-81007399D02*
X102534466Y-81063424D01*
X102534466Y-81063424D02*
X102646516Y-81063424D01*
X102646516Y-81063424D02*
X102814591Y-81007399D01*
X102814591Y-81007399D02*
X102926642Y-80895348D01*
X102926642Y-80895348D02*
X102982667Y-80783298D01*
X102982667Y-80783298D02*
X103038692Y-80559197D01*
X103038692Y-80559197D02*
X103038692Y-80391122D01*
X103038692Y-80391122D02*
X102982667Y-80167021D01*
X102982667Y-80167021D02*
X102926642Y-80054971D01*
X102926642Y-80054971D02*
X102814591Y-79942921D01*
X102814591Y-79942921D02*
X102646516Y-79886896D01*
X102646516Y-79886896D02*
X102534466Y-79886896D01*
X102534466Y-79886896D02*
X102366390Y-79942921D01*
X102366390Y-79942921D02*
X102310365Y-79998946D01*
X101750114Y-81063424D02*
X101526013Y-81063424D01*
X101526013Y-81063424D02*
X101413963Y-81007399D01*
X101413963Y-81007399D02*
X101357938Y-80951373D01*
X101357938Y-80951373D02*
X101245887Y-80783298D01*
X101245887Y-80783298D02*
X101189862Y-80559197D01*
X101189862Y-80559197D02*
X101189862Y-80110996D01*
X101189862Y-80110996D02*
X101245887Y-79998946D01*
X101245887Y-79998946D02*
X101301913Y-79942921D01*
X101301913Y-79942921D02*
X101413963Y-79886896D01*
X101413963Y-79886896D02*
X101638063Y-79886896D01*
X101638063Y-79886896D02*
X101750114Y-79942921D01*
X101750114Y-79942921D02*
X101806139Y-79998946D01*
X101806139Y-79998946D02*
X101862164Y-80110996D01*
X101862164Y-80110996D02*
X101862164Y-80391122D01*
X101862164Y-80391122D02*
X101806139Y-80503172D01*
X101806139Y-80503172D02*
X101750114Y-80559197D01*
X101750114Y-80559197D02*
X101638063Y-80615223D01*
X101638063Y-80615223D02*
X101413963Y-80615223D01*
X101413963Y-80615223D02*
X101301913Y-80559197D01*
X101301913Y-80559197D02*
X101245887Y-80503172D01*
X101245887Y-80503172D02*
X101189862Y-80391122D01*
D12*
X153534661Y-90745299D02*
X153534661Y-89505227D01*
X153534661Y-89505227D02*
X153239406Y-89505227D01*
X153239406Y-89505227D02*
X153062253Y-89564278D01*
X153062253Y-89564278D02*
X152944151Y-89682380D01*
X152944151Y-89682380D02*
X152885100Y-89800482D01*
X152885100Y-89800482D02*
X152826049Y-90036686D01*
X152826049Y-90036686D02*
X152826049Y-90213839D01*
X152826049Y-90213839D02*
X152885100Y-90450043D01*
X152885100Y-90450043D02*
X152944151Y-90568145D01*
X152944151Y-90568145D02*
X153062253Y-90686248D01*
X153062253Y-90686248D02*
X153239406Y-90745299D01*
X153239406Y-90745299D02*
X153534661Y-90745299D01*
X151645028Y-90745299D02*
X152353640Y-90745299D01*
X151999334Y-90745299D02*
X151999334Y-89505227D01*
X151999334Y-89505227D02*
X152117436Y-89682380D01*
X152117436Y-89682380D02*
X152235538Y-89800482D01*
X152235538Y-89800482D02*
X152353640Y-89859533D01*
D10*
X172026600Y-118063424D02*
X172418776Y-117503172D01*
X172698902Y-118063424D02*
X172698902Y-116886896D01*
X172698902Y-116886896D02*
X172250701Y-116886896D01*
X172250701Y-116886896D02*
X172138650Y-116942921D01*
X172138650Y-116942921D02*
X172082625Y-116998946D01*
X172082625Y-116998946D02*
X172026600Y-117110996D01*
X172026600Y-117110996D02*
X172026600Y-117279072D01*
X172026600Y-117279072D02*
X172082625Y-117391122D01*
X172082625Y-117391122D02*
X172138650Y-117447147D01*
X172138650Y-117447147D02*
X172250701Y-117503172D01*
X172250701Y-117503172D02*
X172698902Y-117503172D01*
X170906097Y-118063424D02*
X171578399Y-118063424D01*
X171242248Y-118063424D02*
X171242248Y-116886896D01*
X171242248Y-116886896D02*
X171354298Y-117054971D01*
X171354298Y-117054971D02*
X171466349Y-117167021D01*
X171466349Y-117167021D02*
X171578399Y-117223047D01*
X170457896Y-116998946D02*
X170401871Y-116942921D01*
X170401871Y-116942921D02*
X170289821Y-116886896D01*
X170289821Y-116886896D02*
X170009695Y-116886896D01*
X170009695Y-116886896D02*
X169897645Y-116942921D01*
X169897645Y-116942921D02*
X169841619Y-116998946D01*
X169841619Y-116998946D02*
X169785594Y-117110996D01*
X169785594Y-117110996D02*
X169785594Y-117223047D01*
X169785594Y-117223047D02*
X169841619Y-117391122D01*
X169841619Y-117391122D02*
X170513921Y-118063424D01*
X170513921Y-118063424D02*
X169785594Y-118063424D01*
X184539424Y-107617902D02*
X183979172Y-107225726D01*
X184539424Y-106945600D02*
X183362896Y-106945600D01*
X183362896Y-106945600D02*
X183362896Y-107393801D01*
X183362896Y-107393801D02*
X183418921Y-107505852D01*
X183418921Y-107505852D02*
X183474946Y-107561877D01*
X183474946Y-107561877D02*
X183586996Y-107617902D01*
X183586996Y-107617902D02*
X183755072Y-107617902D01*
X183755072Y-107617902D02*
X183867122Y-107561877D01*
X183867122Y-107561877D02*
X183923147Y-107505852D01*
X183923147Y-107505852D02*
X183979172Y-107393801D01*
X183979172Y-107393801D02*
X183979172Y-106945600D01*
X183755072Y-108626355D02*
X184539424Y-108626355D01*
X183306871Y-108346229D02*
X184147248Y-108066103D01*
X184147248Y-108066103D02*
X184147248Y-108794430D01*
X158759978Y-102219880D02*
X159152154Y-101659628D01*
X159432280Y-102219880D02*
X159432280Y-101043352D01*
X159432280Y-101043352D02*
X158984079Y-101043352D01*
X158984079Y-101043352D02*
X158872028Y-101099377D01*
X158872028Y-101099377D02*
X158816003Y-101155402D01*
X158816003Y-101155402D02*
X158759978Y-101267452D01*
X158759978Y-101267452D02*
X158759978Y-101435528D01*
X158759978Y-101435528D02*
X158816003Y-101547578D01*
X158816003Y-101547578D02*
X158872028Y-101603603D01*
X158872028Y-101603603D02*
X158984079Y-101659628D01*
X158984079Y-101659628D02*
X159432280Y-101659628D01*
X158367802Y-101043352D02*
X157583450Y-101043352D01*
X157583450Y-101043352D02*
X158087676Y-102219880D01*
X184539424Y-101537921D02*
X183979172Y-101145745D01*
X184539424Y-100865619D02*
X183362896Y-100865619D01*
X183362896Y-100865619D02*
X183362896Y-101313820D01*
X183362896Y-101313820D02*
X183418921Y-101425871D01*
X183418921Y-101425871D02*
X183474946Y-101481896D01*
X183474946Y-101481896D02*
X183586996Y-101537921D01*
X183586996Y-101537921D02*
X183755072Y-101537921D01*
X183755072Y-101537921D02*
X183867122Y-101481896D01*
X183867122Y-101481896D02*
X183923147Y-101425871D01*
X183923147Y-101425871D02*
X183979172Y-101313820D01*
X183979172Y-101313820D02*
X183979172Y-100865619D01*
X184539424Y-102658424D02*
X184539424Y-101986122D01*
X184539424Y-102322273D02*
X183362896Y-102322273D01*
X183362896Y-102322273D02*
X183530971Y-102210223D01*
X183530971Y-102210223D02*
X183643021Y-102098172D01*
X183643021Y-102098172D02*
X183699047Y-101986122D01*
X183362896Y-103666877D02*
X183362896Y-103442776D01*
X183362896Y-103442776D02*
X183418921Y-103330726D01*
X183418921Y-103330726D02*
X183474946Y-103274701D01*
X183474946Y-103274701D02*
X183643021Y-103162650D01*
X183643021Y-103162650D02*
X183867122Y-103106625D01*
X183867122Y-103106625D02*
X184315323Y-103106625D01*
X184315323Y-103106625D02*
X184427373Y-103162650D01*
X184427373Y-103162650D02*
X184483399Y-103218675D01*
X184483399Y-103218675D02*
X184539424Y-103330726D01*
X184539424Y-103330726D02*
X184539424Y-103554826D01*
X184539424Y-103554826D02*
X184483399Y-103666877D01*
X184483399Y-103666877D02*
X184427373Y-103722902D01*
X184427373Y-103722902D02*
X184315323Y-103778927D01*
X184315323Y-103778927D02*
X184035197Y-103778927D01*
X184035197Y-103778927D02*
X183923147Y-103722902D01*
X183923147Y-103722902D02*
X183867122Y-103666877D01*
X183867122Y-103666877D02*
X183811097Y-103554826D01*
X183811097Y-103554826D02*
X183811097Y-103330726D01*
X183811097Y-103330726D02*
X183867122Y-103218675D01*
X183867122Y-103218675D02*
X183923147Y-103162650D01*
X183923147Y-103162650D02*
X184035197Y-103106625D01*
D16*
X189071975Y-109000985D02*
X189071975Y-107476985D01*
X189325975Y-109254985D02*
X192119975Y-109254985D01*
X192119975Y-107222985D02*
X189325975Y-107222985D01*
X192373975Y-109000985D02*
X192373975Y-107476985D01*
X189071975Y-107476985D02*
G75*
G02*
X189325975Y-107222985I254000J0D01*
G01*
X189325975Y-109254985D02*
G75*
G02*
X189071975Y-109000985I0J254000D01*
G01*
X192119975Y-107222985D02*
G75*
G02*
X192373975Y-107476985I0J-254000D01*
G01*
X192373975Y-109000985D02*
G75*
G02*
X192119975Y-109254985I-254000J0D01*
G01*
X189602350Y-117106582D02*
X189602350Y-115582582D01*
X189856350Y-117360582D02*
X192650350Y-117360582D01*
X192650350Y-115328582D02*
X189856350Y-115328582D01*
X192904350Y-117106582D02*
X192904350Y-115582582D01*
X189602350Y-115582582D02*
G75*
G02*
X189856350Y-115328582I254000J0D01*
G01*
X189856350Y-117360582D02*
G75*
G02*
X189602350Y-117106582I0J254000D01*
G01*
X192650350Y-115328582D02*
G75*
G02*
X192904350Y-115582582I0J-254000D01*
G01*
X192904350Y-117106582D02*
G75*
G02*
X192650350Y-117360582I-254000J0D01*
G01*
D17*
X155613737Y-87815129D02*
X155613737Y-92415129D01*
X155613737Y-92415129D02*
X156063737Y-92415129D01*
X156063737Y-87815129D02*
X155613737Y-87815129D01*
X158063737Y-92415129D02*
X158513737Y-92415129D01*
X158513737Y-87815129D02*
X158063737Y-87815129D01*
X158513737Y-92415129D02*
X158513737Y-87815129D01*
D16*
X189008346Y-103841913D02*
X189008346Y-102317913D01*
X189262346Y-104095913D02*
X192056346Y-104095913D01*
X192056346Y-102063913D02*
X189262346Y-102063913D01*
X192310346Y-103841913D02*
X192310346Y-102317913D01*
X189008346Y-102317913D02*
G75*
G02*
X189262346Y-102063913I254000J0D01*
G01*
X189262346Y-104095913D02*
G75*
G02*
X189008346Y-103841913I0J254000D01*
G01*
X192056346Y-102063913D02*
G75*
G02*
X192310346Y-102317913I0J-254000D01*
G01*
X192310346Y-103841913D02*
G75*
G02*
X192056346Y-104095913I-254000J0D01*
G01*
X125984000Y-97663000D02*
X125984000Y-100457000D01*
X126238000Y-97409000D02*
X127762000Y-97409000D01*
X126238000Y-100711000D02*
X127762000Y-100711000D01*
X128016000Y-100457000D02*
X128016000Y-97663000D01*
X125984000Y-97663000D02*
G75*
G02*
X126238000Y-97409000I254000J0D01*
G01*
X126238000Y-100711000D02*
G75*
G02*
X125984000Y-100457000I0J254000D01*
G01*
X127762000Y-97409000D02*
G75*
G02*
X128016000Y-97663000I0J-254000D01*
G01*
X128016000Y-100457000D02*
G75*
G02*
X127762000Y-100711000I-254000J0D01*
G01*
D18*
X113872100Y-99046638D02*
X113872100Y-103946638D01*
X113872100Y-103946638D02*
X117022100Y-103946638D01*
X117022100Y-99046638D02*
X113872100Y-99046638D01*
X117022100Y-103946638D02*
X117022100Y-99046638D01*
D19*
X112888518Y-103996638D02*
G75*
G02*
X112605682Y-103996638I-141418J0D01*
G01*
X112605682Y-103996638D02*
G75*
G02*
X112888518Y-103996638I141418J0D01*
G01*
D20*
X185809204Y-73044271D02*
X186019204Y-73044271D01*
X185809204Y-77374271D02*
X185809204Y-73044271D01*
X185809204Y-77374271D02*
X186019204Y-77374271D01*
X188159204Y-73044271D02*
X188369204Y-73044271D01*
X188369204Y-73044271D02*
X188369204Y-77374271D01*
X188369204Y-77374271D02*
X188159204Y-77374271D01*
D18*
X187189204Y-79209271D02*
G75*
G02*
X186989204Y-79209271I-100000J0D01*
G01*
X186989204Y-79209271D02*
G75*
G02*
X187189204Y-79209271I100000J0D01*
G01*
D16*
X184063565Y-113250969D02*
X184063565Y-111726969D01*
X184317565Y-113504969D02*
X187111565Y-113504969D01*
X187111565Y-111472969D02*
X184317565Y-111472969D01*
X187365565Y-113250969D02*
X187365565Y-111726969D01*
X184063565Y-111726969D02*
G75*
G02*
X184317565Y-111472969I254000J0D01*
G01*
X184317565Y-113504969D02*
G75*
G02*
X184063565Y-113250969I0J254000D01*
G01*
X187111565Y-111472969D02*
G75*
G02*
X187365565Y-111726969I0J-254000D01*
G01*
X187365565Y-113250969D02*
G75*
G02*
X187111565Y-113504969I-254000J0D01*
G01*
D21*
G36*
X120085537Y-120425776D02*
G01*
X120248004Y-120472195D01*
X120377263Y-120510973D01*
X120481556Y-120563120D01*
X120620361Y-120644089D01*
X121131483Y-120273526D01*
X121261598Y-120389184D01*
X121351553Y-120479139D01*
X121453801Y-120594168D01*
X121542818Y-120698022D01*
X121184827Y-121222223D01*
X121343763Y-121526849D01*
X120279367Y-121899387D01*
X120193175Y-121735246D01*
X120085310Y-121616767D01*
X119951055Y-121529335D01*
X119799079Y-121478591D01*
X119639220Y-121467826D01*
X119481813Y-121497733D01*
X119337043Y-121566378D01*
X119214271Y-121669321D01*
X119121435Y-121799906D01*
X119064541Y-121949686D01*
X119047259Y-122109054D01*
X119069104Y-122263126D01*
X119127364Y-122407512D01*
X119218614Y-122533666D01*
X119337504Y-122634196D01*
X119477066Y-122703208D01*
X119629128Y-122736662D01*
X119784767Y-122732593D01*
X119934874Y-122691242D01*
X120069266Y-122615805D01*
X120283948Y-122358472D01*
X121315643Y-122768505D01*
X121241264Y-122947013D01*
X121147925Y-123087023D01*
X121504990Y-123597116D01*
X121402424Y-123714334D01*
X121312398Y-123804360D01*
X121196917Y-123907010D01*
X121067258Y-124007855D01*
X120531818Y-123638147D01*
X120391092Y-123720237D01*
X120235272Y-123772177D01*
X120046992Y-123819247D01*
X119931825Y-124446272D01*
X119617413Y-124446272D01*
X119476451Y-124433457D01*
X119330333Y-124418846D01*
X119215367Y-123792917D01*
X119063438Y-123746170D01*
X118921081Y-123681462D01*
X118768269Y-123592321D01*
X118757322Y-123586848D01*
X118258835Y-123944736D01*
X118115699Y-123830227D01*
X117987106Y-123701634D01*
X117896824Y-123598455D01*
X117822102Y-123493844D01*
X118191604Y-122971445D01*
X118135313Y-122870120D01*
X118084054Y-122754788D01*
X118032221Y-122638164D01*
X118009921Y-122537813D01*
X117385066Y-122423044D01*
X117370665Y-122250229D01*
X117370665Y-121955805D01*
X117385424Y-121808212D01*
X117999104Y-121705932D01*
X118058004Y-121529232D01*
X118109737Y-121399901D01*
X118204077Y-121234806D01*
X117834203Y-120724636D01*
X117935786Y-120594030D01*
X118064432Y-120465384D01*
X118178723Y-120363792D01*
X118256597Y-120285919D01*
X118781251Y-120644219D01*
X118895474Y-120575685D01*
X119063741Y-120498024D01*
X119203781Y-120459831D01*
X119278244Y-120427918D01*
X119381076Y-119798072D01*
X119983054Y-119798072D01*
X120085537Y-120425776D01*
G37*
D17*
X151523528Y-87702594D02*
X151523528Y-92302594D01*
X151523528Y-92302594D02*
X151973528Y-92302594D01*
X151973528Y-87702594D02*
X151523528Y-87702594D01*
X153973528Y-92302594D02*
X154423528Y-92302594D01*
X154423528Y-87702594D02*
X153973528Y-87702594D01*
X154423528Y-92302594D02*
X154423528Y-87702594D01*
%LPC*%
D21*
G36*
X190799175Y-109153385D02*
G01*
X190646775Y-109153385D01*
X190646775Y-107324585D01*
X190799175Y-107324585D01*
X190799175Y-109153385D01*
G37*
G36*
X191329550Y-117258982D02*
G01*
X191177150Y-117258982D01*
X191177150Y-115430182D01*
X191329550Y-115430182D01*
X191329550Y-117258982D01*
G37*
G36*
X190735546Y-103994313D02*
G01*
X190583146Y-103994313D01*
X190583146Y-102165513D01*
X190735546Y-102165513D01*
X190735546Y-103994313D01*
G37*
G36*
X127914400Y-99136200D02*
G01*
X126085600Y-99136200D01*
X126085600Y-98983800D01*
X127914400Y-98983800D01*
X127914400Y-99136200D01*
G37*
G36*
X185790765Y-113403369D02*
G01*
X185638365Y-113403369D01*
X185638365Y-111574569D01*
X185790765Y-111574569D01*
X185790765Y-113403369D01*
G37*
D22*
X157552443Y-131675491D03*
X170052443Y-131675491D03*
X157552443Y-136675491D03*
X170052443Y-136675491D03*
X141134134Y-131720000D03*
X153634134Y-131720000D03*
X141134134Y-136720000D03*
X153634134Y-136720000D03*
D23*
X188587106Y-82854891D03*
D24*
X188587106Y-80314891D03*
D23*
X137487234Y-110364094D03*
X137487234Y-107824094D03*
D24*
X137487234Y-105284094D03*
X137487234Y-102744094D03*
D25*
X196003243Y-130868219D03*
D23*
X196003243Y-133408219D03*
X196003243Y-135948219D03*
X196003243Y-138488219D03*
D26*
X131356100Y-130410000D03*
X105956100Y-130410000D03*
X105956100Y-94850000D03*
D27*
X131356100Y-127870000D03*
X105956100Y-127870000D03*
D26*
X131356100Y-122790000D03*
X131356100Y-120250000D03*
X131356100Y-112630000D03*
X105956100Y-122790000D03*
X105956100Y-125330000D03*
X105956100Y-120250000D03*
X131356100Y-125330000D03*
X131356100Y-117710000D03*
X131356100Y-115170000D03*
X131356100Y-110090000D03*
X131356100Y-107550000D03*
X131356100Y-105010000D03*
X131356100Y-97390000D03*
X131356100Y-94850000D03*
X105956100Y-112630000D03*
X105956100Y-115170000D03*
X105956100Y-117710000D03*
X105956100Y-107550000D03*
X105956100Y-110090000D03*
X105956100Y-102470000D03*
X105956100Y-105010000D03*
X105956100Y-97390000D03*
X105956100Y-99930000D03*
X131356100Y-102470000D03*
X131356100Y-99930000D03*
D28*
X179616100Y-75343522D03*
D29*
X174816100Y-78343522D03*
D30*
X179616100Y-81343522D03*
D31*
X146588500Y-85054319D03*
X144048500Y-85054319D03*
D26*
X193310137Y-120414672D03*
X185690137Y-120414672D03*
D22*
X179822946Y-131720000D03*
X192322946Y-131720000D03*
X179822946Y-136720000D03*
X192322946Y-136720000D03*
D32*
X120168403Y-112368154D03*
D33*
X120168403Y-114908154D03*
D34*
X144631940Y-72580816D03*
X141131940Y-72580816D03*
D35*
X188152243Y-103177500D03*
X188152243Y-105717500D03*
X188152243Y-108257500D03*
X193232243Y-103177500D03*
X190692243Y-105717500D03*
X193232243Y-108257500D03*
D23*
X100876100Y-133620757D03*
X100876100Y-131080757D03*
D24*
X100876100Y-128540757D03*
D23*
X100876100Y-126000757D03*
X100876100Y-123460757D03*
X100876100Y-120920757D03*
X100876100Y-118380757D03*
X100876100Y-115840757D03*
X100876100Y-113300757D03*
X100876100Y-110760757D03*
X100876100Y-108220757D03*
X100876100Y-105680757D03*
X100876100Y-103140757D03*
D36*
X105662762Y-136869144D03*
D37*
X139086431Y-84920313D03*
X141626431Y-84920313D03*
D38*
X171948675Y-101543579D03*
X171948675Y-99003579D03*
D39*
X171948675Y-113481579D03*
X171948675Y-110941579D03*
D38*
X145786675Y-101543579D03*
X145786675Y-99003579D03*
D39*
X145786675Y-113481579D03*
X145786675Y-110941579D03*
D40*
X175212265Y-85583235D03*
D41*
X175212265Y-90663235D03*
D42*
X121196100Y-74533522D03*
X111036100Y-74533522D03*
D43*
X119291100Y-83423522D03*
X118021100Y-80883522D03*
X116751100Y-83423522D03*
X115481100Y-80883522D03*
X114211100Y-83423522D03*
X112941100Y-80883522D03*
D44*
X182787754Y-131970493D03*
X189287754Y-131970493D03*
X182787754Y-136470493D03*
X189287754Y-136470493D03*
D45*
X119926100Y-88500000D03*
X122466100Y-88500000D03*
D46*
X125006100Y-88500000D03*
D25*
X100876100Y-89297522D03*
D23*
X100876100Y-91837522D03*
X100876100Y-94377522D03*
X100876100Y-96917522D03*
D47*
X152066100Y-79137522D03*
X153766100Y-74057522D03*
X155466100Y-79137522D03*
X157166100Y-74057522D03*
X158866100Y-79137522D03*
D48*
X160566100Y-74057522D03*
D47*
X162266100Y-79137522D03*
X163966100Y-74057522D03*
X165666100Y-79137522D03*
X167366100Y-74057522D03*
X169066100Y-79137522D03*
D38*
X169344393Y-102737785D03*
X169344393Y-100197785D03*
D39*
X169344393Y-113405785D03*
X169344393Y-110865785D03*
D38*
X150802393Y-102737785D03*
X150802393Y-100197785D03*
D39*
X150802393Y-113405785D03*
X150802393Y-110865785D03*
D45*
X188385893Y-125452275D03*
D46*
X190925893Y-125452275D03*
D45*
X193465893Y-125452275D03*
X196005893Y-125452275D03*
X145326100Y-125330000D03*
D49*
X142786100Y-125330000D03*
D45*
X140246100Y-125330000D03*
X137706100Y-125330000D03*
D36*
X103538743Y-75327522D03*
D42*
X135166100Y-74533522D03*
X125006100Y-74533522D03*
D43*
X133261100Y-83423522D03*
X131991100Y-80883522D03*
X130721100Y-83423522D03*
X129451100Y-80883522D03*
X128181100Y-83423522D03*
X126911100Y-80883522D03*
D23*
X106272871Y-82947522D03*
X106272871Y-80407522D03*
D44*
X174932815Y-119384238D03*
X174932815Y-96270238D03*
X154104815Y-119384238D03*
X154104815Y-96270238D03*
D50*
X168328815Y-120527238D03*
D51*
X165788815Y-120527238D03*
X163248815Y-120527238D03*
X160708815Y-120527238D03*
D44*
X160627348Y-131907538D03*
X167127348Y-131907538D03*
X160627348Y-136407538D03*
X167127348Y-136407538D03*
D36*
X174928787Y-136882482D03*
D45*
X140341937Y-80858207D03*
X142881937Y-80858207D03*
X145421937Y-80858207D03*
D52*
X145286100Y-74806291D03*
X140286100Y-74806291D03*
D45*
X161493034Y-125411338D03*
X164033034Y-125411338D03*
X166573034Y-125411338D03*
D46*
X169113034Y-125411338D03*
D44*
X144093696Y-132049854D03*
X150593696Y-132049854D03*
X144093696Y-136549854D03*
X150593696Y-136549854D03*
D25*
X137518646Y-130778588D03*
D23*
X137518646Y-133318588D03*
X137518646Y-135858588D03*
X137518646Y-138398588D03*
D45*
X160020000Y-111760000D03*
D46*
X162560000Y-111760000D03*
D45*
X165100000Y-111760000D03*
D36*
X193586100Y-75327522D03*
D53*
X155289790Y-83002519D03*
X152489790Y-83002519D03*
D54*
X106100043Y-86195350D03*
X108900043Y-86195350D03*
D55*
X179771512Y-114801760D03*
X179771512Y-116701760D03*
D56*
X191484975Y-108238985D03*
X189960975Y-108238985D03*
D55*
X108500000Y-105325297D03*
X108500000Y-107225297D03*
D57*
X182113612Y-100801225D03*
X180213612Y-100801225D03*
D58*
X183552093Y-91413747D03*
X183552093Y-85813747D03*
D59*
X149508071Y-85133829D03*
X149508071Y-83233829D03*
D55*
X110709944Y-105300243D03*
X110709944Y-107200243D03*
D60*
X175299406Y-111061338D03*
X178099406Y-111061338D03*
D53*
X185414259Y-98079794D03*
X182614259Y-98079794D03*
D56*
X192015350Y-116344582D03*
X190491350Y-116344582D03*
D61*
X157063737Y-92265129D03*
D62*
X157063737Y-87965129D03*
D53*
X186334734Y-116431269D03*
X183534734Y-116431269D03*
D60*
X165999943Y-82946682D03*
X168799943Y-82946682D03*
D63*
X190510262Y-112581413D03*
X192410262Y-112581413D03*
D60*
X165940982Y-87137240D03*
X168740982Y-87137240D03*
D56*
X191421346Y-103079913D03*
X189897346Y-103079913D03*
D59*
X114500000Y-113000000D03*
X114500000Y-111100000D03*
D64*
X127000000Y-99822000D03*
X127000000Y-98298000D03*
D65*
X112797100Y-103401638D03*
X112797100Y-102131638D03*
X112797100Y-100861638D03*
X112797100Y-99591638D03*
D66*
X118097100Y-99591638D03*
X118097100Y-100861638D03*
X118097100Y-102131638D03*
X118097100Y-103401638D03*
D58*
X188199653Y-91468250D03*
X188199653Y-85868250D03*
D67*
X111871887Y-93899225D03*
X111871887Y-91099225D03*
D68*
X138385334Y-92553788D03*
X138385334Y-95353788D03*
X125610640Y-113559397D03*
X125610640Y-116359397D03*
D69*
X176413796Y-107120872D03*
X176413796Y-105850872D03*
X176413796Y-104580872D03*
X176413796Y-103310872D03*
X181613796Y-103310872D03*
X181613796Y-104580872D03*
X181613796Y-105850872D03*
X181613796Y-107120872D03*
D57*
X162874081Y-117759250D03*
X160974081Y-117759250D03*
D63*
X160660000Y-99060000D03*
X162560000Y-99060000D03*
D70*
X187089204Y-73094271D03*
X187089204Y-77324271D03*
D67*
X114500000Y-108300000D03*
X114500000Y-105500000D03*
D56*
X186476565Y-112488969D03*
X184952565Y-112488969D03*
D57*
X181599562Y-120352054D03*
X179699562Y-120352054D03*
D67*
X102146100Y-84820000D03*
X102146100Y-82020000D03*
D61*
X152973528Y-92152594D03*
D62*
X152973528Y-87852594D03*
D63*
X166377696Y-117786360D03*
X168277696Y-117786360D03*
D55*
X185632687Y-106944422D03*
X185632687Y-108844422D03*
D57*
X162560000Y-101600000D03*
X160660000Y-101600000D03*
D59*
X185615787Y-103005182D03*
X185615787Y-101105182D03*
%LPD*%
M02*
