%TF.GenerationSoftware,KiCad,Pcbnew,8.0.4*%
%TF.CreationDate,2024-08-22T17:22:42+02:00*%
%TF.ProjectId,CENTRALE,43454e54-5241-44c4-952e-6b696361645f,rev?*%
%TF.SameCoordinates,Original*%
%TF.FileFunction,Drillmap*%
%TF.FilePolarity,Positive*%
%FSLAX45Y45*%
G04 Gerber Fmt 4.5, Leading zero omitted, Abs format (unit mm)*
G04 Created by KiCad (PCBNEW 8.0.4) date 2024-08-22 17:22:42*
%MOMM*%
%LPD*%
G01*
G04 APERTURE LIST*
%ADD10C,0.050000*%
%ADD11C,0.152400*%
%ADD12C,0.200000*%
%ADD13C,0.280000*%
%ADD14C,0.325120*%
G04 APERTURE END LIST*
D10*
X19866610Y-14057000D02*
X19866610Y-6843400D01*
X19866610Y-6843400D02*
X9833610Y-6844919D01*
D11*
X19866610Y-14057000D02*
X9833610Y-14057000D01*
D10*
X9833610Y-6844919D02*
X9833610Y-14057000D01*
D12*
X15310481Y-9527024D02*
X15510481Y-9727024D01*
X15510481Y-9527024D02*
X15310481Y-9727024D01*
X15310481Y-11838424D02*
X15510481Y-12038424D01*
X15510481Y-11838424D02*
X15310481Y-12038424D01*
X17393282Y-9527024D02*
X17593282Y-9727024D01*
X17593282Y-9527024D02*
X17393282Y-9727024D01*
X17393282Y-11838424D02*
X17593282Y-12038424D01*
X17593282Y-11838424D02*
X17393282Y-12038424D01*
D13*
X10493874Y-7532752D02*
G75*
G02*
X10213874Y-7532752I-140000J0D01*
G01*
X10213874Y-7532752D02*
G75*
G02*
X10493874Y-7532752I140000J0D01*
G01*
X10706276Y-13686914D02*
G75*
G02*
X10426276Y-13686914I-140000J0D01*
G01*
X10426276Y-13686914D02*
G75*
G02*
X10706276Y-13686914I140000J0D01*
G01*
X17632879Y-13688248D02*
G75*
G02*
X17352879Y-13688248I-140000J0D01*
G01*
X17352879Y-13688248D02*
G75*
G02*
X17632879Y-13688248I140000J0D01*
G01*
X19498610Y-7532752D02*
G75*
G02*
X19218610Y-7532752I-140000J0D01*
G01*
X19218610Y-7532752D02*
G75*
G02*
X19498610Y-7532752I140000J0D01*
G01*
D14*
X11103610Y-7290792D02*
X11103610Y-7615912D01*
X10941050Y-7453352D02*
X11266170Y-7453352D01*
X12119610Y-7290792D02*
X12119610Y-7615912D01*
X11957050Y-7453352D02*
X12282170Y-7453352D01*
X12500610Y-7290792D02*
X12500610Y-7615912D01*
X12338050Y-7453352D02*
X12663170Y-7453352D01*
X13516610Y-7290792D02*
X13516610Y-7615912D01*
X13354050Y-7453352D02*
X13679170Y-7453352D01*
D12*
X10086767Y-14376104D02*
X10086767Y-14176104D01*
X10086767Y-14176104D02*
X10134386Y-14176104D01*
X10134386Y-14176104D02*
X10162957Y-14185628D01*
X10162957Y-14185628D02*
X10182005Y-14204675D01*
X10182005Y-14204675D02*
X10191529Y-14223723D01*
X10191529Y-14223723D02*
X10201053Y-14261818D01*
X10201053Y-14261818D02*
X10201053Y-14290389D01*
X10201053Y-14290389D02*
X10191529Y-14328485D01*
X10191529Y-14328485D02*
X10182005Y-14347532D01*
X10182005Y-14347532D02*
X10162957Y-14366580D01*
X10162957Y-14366580D02*
X10134386Y-14376104D01*
X10134386Y-14376104D02*
X10086767Y-14376104D01*
X10286767Y-14376104D02*
X10286767Y-14242770D01*
X10286767Y-14280866D02*
X10296291Y-14261818D01*
X10296291Y-14261818D02*
X10305814Y-14252294D01*
X10305814Y-14252294D02*
X10324862Y-14242770D01*
X10324862Y-14242770D02*
X10343910Y-14242770D01*
X10410576Y-14376104D02*
X10410576Y-14242770D01*
X10410576Y-14176104D02*
X10401053Y-14185628D01*
X10401053Y-14185628D02*
X10410576Y-14195151D01*
X10410576Y-14195151D02*
X10420100Y-14185628D01*
X10420100Y-14185628D02*
X10410576Y-14176104D01*
X10410576Y-14176104D02*
X10410576Y-14195151D01*
X10534386Y-14376104D02*
X10515338Y-14366580D01*
X10515338Y-14366580D02*
X10505814Y-14347532D01*
X10505814Y-14347532D02*
X10505814Y-14176104D01*
X10639148Y-14376104D02*
X10620100Y-14366580D01*
X10620100Y-14366580D02*
X10610576Y-14347532D01*
X10610576Y-14347532D02*
X10610576Y-14176104D01*
X10867719Y-14376104D02*
X10867719Y-14176104D01*
X10867719Y-14176104D02*
X10934386Y-14318961D01*
X10934386Y-14318961D02*
X11001053Y-14176104D01*
X11001053Y-14176104D02*
X11001053Y-14376104D01*
X11182005Y-14376104D02*
X11182005Y-14271342D01*
X11182005Y-14271342D02*
X11172481Y-14252294D01*
X11172481Y-14252294D02*
X11153434Y-14242770D01*
X11153434Y-14242770D02*
X11115338Y-14242770D01*
X11115338Y-14242770D02*
X11096291Y-14252294D01*
X11182005Y-14366580D02*
X11162957Y-14376104D01*
X11162957Y-14376104D02*
X11115338Y-14376104D01*
X11115338Y-14376104D02*
X11096291Y-14366580D01*
X11096291Y-14366580D02*
X11086767Y-14347532D01*
X11086767Y-14347532D02*
X11086767Y-14328485D01*
X11086767Y-14328485D02*
X11096291Y-14309437D01*
X11096291Y-14309437D02*
X11115338Y-14299913D01*
X11115338Y-14299913D02*
X11162957Y-14299913D01*
X11162957Y-14299913D02*
X11182005Y-14290389D01*
X11277243Y-14242770D02*
X11277243Y-14442770D01*
X11277243Y-14252294D02*
X11296291Y-14242770D01*
X11296291Y-14242770D02*
X11334386Y-14242770D01*
X11334386Y-14242770D02*
X11353433Y-14252294D01*
X11353433Y-14252294D02*
X11362957Y-14261818D01*
X11362957Y-14261818D02*
X11372481Y-14280866D01*
X11372481Y-14280866D02*
X11372481Y-14338008D01*
X11372481Y-14338008D02*
X11362957Y-14357056D01*
X11362957Y-14357056D02*
X11353433Y-14366580D01*
X11353433Y-14366580D02*
X11334386Y-14376104D01*
X11334386Y-14376104D02*
X11296291Y-14376104D01*
X11296291Y-14376104D02*
X11277243Y-14366580D01*
X11458195Y-14357056D02*
X11467719Y-14366580D01*
X11467719Y-14366580D02*
X11458195Y-14376104D01*
X11458195Y-14376104D02*
X11448672Y-14366580D01*
X11448672Y-14366580D02*
X11458195Y-14357056D01*
X11458195Y-14357056D02*
X11458195Y-14376104D01*
X11458195Y-14252294D02*
X11467719Y-14261818D01*
X11467719Y-14261818D02*
X11458195Y-14271342D01*
X11458195Y-14271342D02*
X11448672Y-14261818D01*
X11448672Y-14261818D02*
X11458195Y-14252294D01*
X11458195Y-14252294D02*
X11458195Y-14271342D01*
X9625990Y-14604620D02*
X9825990Y-14804620D01*
X9825990Y-14604620D02*
X9625990Y-14804620D01*
X10077243Y-14615151D02*
X10086767Y-14605628D01*
X10086767Y-14605628D02*
X10105814Y-14596104D01*
X10105814Y-14596104D02*
X10153434Y-14596104D01*
X10153434Y-14596104D02*
X10172481Y-14605628D01*
X10172481Y-14605628D02*
X10182005Y-14615151D01*
X10182005Y-14615151D02*
X10191529Y-14634199D01*
X10191529Y-14634199D02*
X10191529Y-14653247D01*
X10191529Y-14653247D02*
X10182005Y-14681818D01*
X10182005Y-14681818D02*
X10067719Y-14796104D01*
X10067719Y-14796104D02*
X10191529Y-14796104D01*
X10277243Y-14777056D02*
X10286767Y-14786580D01*
X10286767Y-14786580D02*
X10277243Y-14796104D01*
X10277243Y-14796104D02*
X10267719Y-14786580D01*
X10267719Y-14786580D02*
X10277243Y-14777056D01*
X10277243Y-14777056D02*
X10277243Y-14796104D01*
X10410576Y-14596104D02*
X10429624Y-14596104D01*
X10429624Y-14596104D02*
X10448672Y-14605628D01*
X10448672Y-14605628D02*
X10458195Y-14615151D01*
X10458195Y-14615151D02*
X10467719Y-14634199D01*
X10467719Y-14634199D02*
X10477243Y-14672294D01*
X10477243Y-14672294D02*
X10477243Y-14719913D01*
X10477243Y-14719913D02*
X10467719Y-14758008D01*
X10467719Y-14758008D02*
X10458195Y-14777056D01*
X10458195Y-14777056D02*
X10448672Y-14786580D01*
X10448672Y-14786580D02*
X10429624Y-14796104D01*
X10429624Y-14796104D02*
X10410576Y-14796104D01*
X10410576Y-14796104D02*
X10391529Y-14786580D01*
X10391529Y-14786580D02*
X10382005Y-14777056D01*
X10382005Y-14777056D02*
X10372481Y-14758008D01*
X10372481Y-14758008D02*
X10362957Y-14719913D01*
X10362957Y-14719913D02*
X10362957Y-14672294D01*
X10362957Y-14672294D02*
X10372481Y-14634199D01*
X10372481Y-14634199D02*
X10382005Y-14615151D01*
X10382005Y-14615151D02*
X10391529Y-14605628D01*
X10391529Y-14605628D02*
X10410576Y-14596104D01*
X10601053Y-14596104D02*
X10620100Y-14596104D01*
X10620100Y-14596104D02*
X10639148Y-14605628D01*
X10639148Y-14605628D02*
X10648672Y-14615151D01*
X10648672Y-14615151D02*
X10658195Y-14634199D01*
X10658195Y-14634199D02*
X10667719Y-14672294D01*
X10667719Y-14672294D02*
X10667719Y-14719913D01*
X10667719Y-14719913D02*
X10658195Y-14758008D01*
X10658195Y-14758008D02*
X10648672Y-14777056D01*
X10648672Y-14777056D02*
X10639148Y-14786580D01*
X10639148Y-14786580D02*
X10620100Y-14796104D01*
X10620100Y-14796104D02*
X10601053Y-14796104D01*
X10601053Y-14796104D02*
X10582005Y-14786580D01*
X10582005Y-14786580D02*
X10572481Y-14777056D01*
X10572481Y-14777056D02*
X10562957Y-14758008D01*
X10562957Y-14758008D02*
X10553434Y-14719913D01*
X10553434Y-14719913D02*
X10553434Y-14672294D01*
X10553434Y-14672294D02*
X10562957Y-14634199D01*
X10562957Y-14634199D02*
X10572481Y-14615151D01*
X10572481Y-14615151D02*
X10582005Y-14605628D01*
X10582005Y-14605628D02*
X10601053Y-14596104D01*
X10791529Y-14596104D02*
X10810576Y-14596104D01*
X10810576Y-14596104D02*
X10829624Y-14605628D01*
X10829624Y-14605628D02*
X10839148Y-14615151D01*
X10839148Y-14615151D02*
X10848672Y-14634199D01*
X10848672Y-14634199D02*
X10858195Y-14672294D01*
X10858195Y-14672294D02*
X10858195Y-14719913D01*
X10858195Y-14719913D02*
X10848672Y-14758008D01*
X10848672Y-14758008D02*
X10839148Y-14777056D01*
X10839148Y-14777056D02*
X10829624Y-14786580D01*
X10829624Y-14786580D02*
X10810576Y-14796104D01*
X10810576Y-14796104D02*
X10791529Y-14796104D01*
X10791529Y-14796104D02*
X10772481Y-14786580D01*
X10772481Y-14786580D02*
X10762957Y-14777056D01*
X10762957Y-14777056D02*
X10753434Y-14758008D01*
X10753434Y-14758008D02*
X10743910Y-14719913D01*
X10743910Y-14719913D02*
X10743910Y-14672294D01*
X10743910Y-14672294D02*
X10753434Y-14634199D01*
X10753434Y-14634199D02*
X10762957Y-14615151D01*
X10762957Y-14615151D02*
X10772481Y-14605628D01*
X10772481Y-14605628D02*
X10791529Y-14596104D01*
X10943910Y-14796104D02*
X10943910Y-14662770D01*
X10943910Y-14681818D02*
X10953434Y-14672294D01*
X10953434Y-14672294D02*
X10972481Y-14662770D01*
X10972481Y-14662770D02*
X11001053Y-14662770D01*
X11001053Y-14662770D02*
X11020100Y-14672294D01*
X11020100Y-14672294D02*
X11029624Y-14691342D01*
X11029624Y-14691342D02*
X11029624Y-14796104D01*
X11029624Y-14691342D02*
X11039148Y-14672294D01*
X11039148Y-14672294D02*
X11058195Y-14662770D01*
X11058195Y-14662770D02*
X11086767Y-14662770D01*
X11086767Y-14662770D02*
X11105815Y-14672294D01*
X11105815Y-14672294D02*
X11115338Y-14691342D01*
X11115338Y-14691342D02*
X11115338Y-14796104D01*
X11210576Y-14796104D02*
X11210576Y-14662770D01*
X11210576Y-14681818D02*
X11220100Y-14672294D01*
X11220100Y-14672294D02*
X11239148Y-14662770D01*
X11239148Y-14662770D02*
X11267719Y-14662770D01*
X11267719Y-14662770D02*
X11286767Y-14672294D01*
X11286767Y-14672294D02*
X11296291Y-14691342D01*
X11296291Y-14691342D02*
X11296291Y-14796104D01*
X11296291Y-14691342D02*
X11305814Y-14672294D01*
X11305814Y-14672294D02*
X11324862Y-14662770D01*
X11324862Y-14662770D02*
X11353433Y-14662770D01*
X11353433Y-14662770D02*
X11372481Y-14672294D01*
X11372481Y-14672294D02*
X11382005Y-14691342D01*
X11382005Y-14691342D02*
X11382005Y-14796104D01*
X11772481Y-14586580D02*
X11601053Y-14843723D01*
X12029624Y-14596104D02*
X12048672Y-14596104D01*
X12048672Y-14596104D02*
X12067719Y-14605628D01*
X12067719Y-14605628D02*
X12077243Y-14615151D01*
X12077243Y-14615151D02*
X12086767Y-14634199D01*
X12086767Y-14634199D02*
X12096291Y-14672294D01*
X12096291Y-14672294D02*
X12096291Y-14719913D01*
X12096291Y-14719913D02*
X12086767Y-14758008D01*
X12086767Y-14758008D02*
X12077243Y-14777056D01*
X12077243Y-14777056D02*
X12067719Y-14786580D01*
X12067719Y-14786580D02*
X12048672Y-14796104D01*
X12048672Y-14796104D02*
X12029624Y-14796104D01*
X12029624Y-14796104D02*
X12010576Y-14786580D01*
X12010576Y-14786580D02*
X12001053Y-14777056D01*
X12001053Y-14777056D02*
X11991529Y-14758008D01*
X11991529Y-14758008D02*
X11982005Y-14719913D01*
X11982005Y-14719913D02*
X11982005Y-14672294D01*
X11982005Y-14672294D02*
X11991529Y-14634199D01*
X11991529Y-14634199D02*
X12001053Y-14615151D01*
X12001053Y-14615151D02*
X12010576Y-14605628D01*
X12010576Y-14605628D02*
X12029624Y-14596104D01*
X12182005Y-14777056D02*
X12191529Y-14786580D01*
X12191529Y-14786580D02*
X12182005Y-14796104D01*
X12182005Y-14796104D02*
X12172481Y-14786580D01*
X12172481Y-14786580D02*
X12182005Y-14777056D01*
X12182005Y-14777056D02*
X12182005Y-14796104D01*
X12315338Y-14596104D02*
X12334386Y-14596104D01*
X12334386Y-14596104D02*
X12353434Y-14605628D01*
X12353434Y-14605628D02*
X12362957Y-14615151D01*
X12362957Y-14615151D02*
X12372481Y-14634199D01*
X12372481Y-14634199D02*
X12382005Y-14672294D01*
X12382005Y-14672294D02*
X12382005Y-14719913D01*
X12382005Y-14719913D02*
X12372481Y-14758008D01*
X12372481Y-14758008D02*
X12362957Y-14777056D01*
X12362957Y-14777056D02*
X12353434Y-14786580D01*
X12353434Y-14786580D02*
X12334386Y-14796104D01*
X12334386Y-14796104D02*
X12315338Y-14796104D01*
X12315338Y-14796104D02*
X12296291Y-14786580D01*
X12296291Y-14786580D02*
X12286767Y-14777056D01*
X12286767Y-14777056D02*
X12277243Y-14758008D01*
X12277243Y-14758008D02*
X12267719Y-14719913D01*
X12267719Y-14719913D02*
X12267719Y-14672294D01*
X12267719Y-14672294D02*
X12277243Y-14634199D01*
X12277243Y-14634199D02*
X12286767Y-14615151D01*
X12286767Y-14615151D02*
X12296291Y-14605628D01*
X12296291Y-14605628D02*
X12315338Y-14596104D01*
X12448672Y-14596104D02*
X12582005Y-14596104D01*
X12582005Y-14596104D02*
X12496291Y-14796104D01*
X12686767Y-14681818D02*
X12667719Y-14672294D01*
X12667719Y-14672294D02*
X12658196Y-14662770D01*
X12658196Y-14662770D02*
X12648672Y-14643723D01*
X12648672Y-14643723D02*
X12648672Y-14634199D01*
X12648672Y-14634199D02*
X12658196Y-14615151D01*
X12658196Y-14615151D02*
X12667719Y-14605628D01*
X12667719Y-14605628D02*
X12686767Y-14596104D01*
X12686767Y-14596104D02*
X12724862Y-14596104D01*
X12724862Y-14596104D02*
X12743910Y-14605628D01*
X12743910Y-14605628D02*
X12753434Y-14615151D01*
X12753434Y-14615151D02*
X12762957Y-14634199D01*
X12762957Y-14634199D02*
X12762957Y-14643723D01*
X12762957Y-14643723D02*
X12753434Y-14662770D01*
X12753434Y-14662770D02*
X12743910Y-14672294D01*
X12743910Y-14672294D02*
X12724862Y-14681818D01*
X12724862Y-14681818D02*
X12686767Y-14681818D01*
X12686767Y-14681818D02*
X12667719Y-14691342D01*
X12667719Y-14691342D02*
X12658196Y-14700866D01*
X12658196Y-14700866D02*
X12648672Y-14719913D01*
X12648672Y-14719913D02*
X12648672Y-14758008D01*
X12648672Y-14758008D02*
X12658196Y-14777056D01*
X12658196Y-14777056D02*
X12667719Y-14786580D01*
X12667719Y-14786580D02*
X12686767Y-14796104D01*
X12686767Y-14796104D02*
X12724862Y-14796104D01*
X12724862Y-14796104D02*
X12743910Y-14786580D01*
X12743910Y-14786580D02*
X12753434Y-14777056D01*
X12753434Y-14777056D02*
X12762957Y-14758008D01*
X12762957Y-14758008D02*
X12762957Y-14719913D01*
X12762957Y-14719913D02*
X12753434Y-14700866D01*
X12753434Y-14700866D02*
X12743910Y-14691342D01*
X12743910Y-14691342D02*
X12724862Y-14681818D01*
X12829624Y-14596104D02*
X12962957Y-14596104D01*
X12962957Y-14596104D02*
X12877243Y-14796104D01*
X13029624Y-14596104D02*
X13029624Y-14634199D01*
X13105815Y-14596104D02*
X13105815Y-14634199D01*
X13401053Y-14872294D02*
X13391529Y-14862770D01*
X13391529Y-14862770D02*
X13372481Y-14834199D01*
X13372481Y-14834199D02*
X13362958Y-14815151D01*
X13362958Y-14815151D02*
X13353434Y-14786580D01*
X13353434Y-14786580D02*
X13343910Y-14738961D01*
X13343910Y-14738961D02*
X13343910Y-14700866D01*
X13343910Y-14700866D02*
X13353434Y-14653247D01*
X13353434Y-14653247D02*
X13362958Y-14624675D01*
X13362958Y-14624675D02*
X13372481Y-14605628D01*
X13372481Y-14605628D02*
X13391529Y-14577056D01*
X13391529Y-14577056D02*
X13401053Y-14567532D01*
X13562958Y-14662770D02*
X13562958Y-14796104D01*
X13515338Y-14586580D02*
X13467719Y-14729437D01*
X13467719Y-14729437D02*
X13591529Y-14729437D01*
X13820100Y-14796104D02*
X13820100Y-14596104D01*
X13905815Y-14796104D02*
X13905815Y-14691342D01*
X13905815Y-14691342D02*
X13896291Y-14672294D01*
X13896291Y-14672294D02*
X13877243Y-14662770D01*
X13877243Y-14662770D02*
X13848672Y-14662770D01*
X13848672Y-14662770D02*
X13829624Y-14672294D01*
X13829624Y-14672294D02*
X13820100Y-14681818D01*
X14029624Y-14796104D02*
X14010577Y-14786580D01*
X14010577Y-14786580D02*
X14001053Y-14777056D01*
X14001053Y-14777056D02*
X13991529Y-14758008D01*
X13991529Y-14758008D02*
X13991529Y-14700866D01*
X13991529Y-14700866D02*
X14001053Y-14681818D01*
X14001053Y-14681818D02*
X14010577Y-14672294D01*
X14010577Y-14672294D02*
X14029624Y-14662770D01*
X14029624Y-14662770D02*
X14058196Y-14662770D01*
X14058196Y-14662770D02*
X14077243Y-14672294D01*
X14077243Y-14672294D02*
X14086767Y-14681818D01*
X14086767Y-14681818D02*
X14096291Y-14700866D01*
X14096291Y-14700866D02*
X14096291Y-14758008D01*
X14096291Y-14758008D02*
X14086767Y-14777056D01*
X14086767Y-14777056D02*
X14077243Y-14786580D01*
X14077243Y-14786580D02*
X14058196Y-14796104D01*
X14058196Y-14796104D02*
X14029624Y-14796104D01*
X14210577Y-14796104D02*
X14191529Y-14786580D01*
X14191529Y-14786580D02*
X14182005Y-14767532D01*
X14182005Y-14767532D02*
X14182005Y-14596104D01*
X14362958Y-14786580D02*
X14343910Y-14796104D01*
X14343910Y-14796104D02*
X14305815Y-14796104D01*
X14305815Y-14796104D02*
X14286767Y-14786580D01*
X14286767Y-14786580D02*
X14277243Y-14767532D01*
X14277243Y-14767532D02*
X14277243Y-14691342D01*
X14277243Y-14691342D02*
X14286767Y-14672294D01*
X14286767Y-14672294D02*
X14305815Y-14662770D01*
X14305815Y-14662770D02*
X14343910Y-14662770D01*
X14343910Y-14662770D02*
X14362958Y-14672294D01*
X14362958Y-14672294D02*
X14372481Y-14691342D01*
X14372481Y-14691342D02*
X14372481Y-14710389D01*
X14372481Y-14710389D02*
X14277243Y-14729437D01*
X14448672Y-14786580D02*
X14467720Y-14796104D01*
X14467720Y-14796104D02*
X14505815Y-14796104D01*
X14505815Y-14796104D02*
X14524862Y-14786580D01*
X14524862Y-14786580D02*
X14534386Y-14767532D01*
X14534386Y-14767532D02*
X14534386Y-14758008D01*
X14534386Y-14758008D02*
X14524862Y-14738961D01*
X14524862Y-14738961D02*
X14505815Y-14729437D01*
X14505815Y-14729437D02*
X14477243Y-14729437D01*
X14477243Y-14729437D02*
X14458196Y-14719913D01*
X14458196Y-14719913D02*
X14448672Y-14700866D01*
X14448672Y-14700866D02*
X14448672Y-14691342D01*
X14448672Y-14691342D02*
X14458196Y-14672294D01*
X14458196Y-14672294D02*
X14477243Y-14662770D01*
X14477243Y-14662770D02*
X14505815Y-14662770D01*
X14505815Y-14662770D02*
X14524862Y-14672294D01*
X14601053Y-14872294D02*
X14610577Y-14862770D01*
X14610577Y-14862770D02*
X14629624Y-14834199D01*
X14629624Y-14834199D02*
X14639148Y-14815151D01*
X14639148Y-14815151D02*
X14648672Y-14786580D01*
X14648672Y-14786580D02*
X14658196Y-14738961D01*
X14658196Y-14738961D02*
X14658196Y-14700866D01*
X14658196Y-14700866D02*
X14648672Y-14653247D01*
X14648672Y-14653247D02*
X14639148Y-14624675D01*
X14639148Y-14624675D02*
X14629624Y-14605628D01*
X14629624Y-14605628D02*
X14610577Y-14577056D01*
X14610577Y-14577056D02*
X14601053Y-14567532D01*
X14962958Y-14872294D02*
X14953434Y-14862770D01*
X14953434Y-14862770D02*
X14934386Y-14834199D01*
X14934386Y-14834199D02*
X14924862Y-14815151D01*
X14924862Y-14815151D02*
X14915339Y-14786580D01*
X14915339Y-14786580D02*
X14905815Y-14738961D01*
X14905815Y-14738961D02*
X14905815Y-14700866D01*
X14905815Y-14700866D02*
X14915339Y-14653247D01*
X14915339Y-14653247D02*
X14924862Y-14624675D01*
X14924862Y-14624675D02*
X14934386Y-14605628D01*
X14934386Y-14605628D02*
X14953434Y-14577056D01*
X14953434Y-14577056D02*
X14962958Y-14567532D01*
X15039148Y-14662770D02*
X15039148Y-14796104D01*
X15039148Y-14681818D02*
X15048672Y-14672294D01*
X15048672Y-14672294D02*
X15067720Y-14662770D01*
X15067720Y-14662770D02*
X15096291Y-14662770D01*
X15096291Y-14662770D02*
X15115339Y-14672294D01*
X15115339Y-14672294D02*
X15124862Y-14691342D01*
X15124862Y-14691342D02*
X15124862Y-14796104D01*
X15248672Y-14796104D02*
X15229624Y-14786580D01*
X15229624Y-14786580D02*
X15220101Y-14777056D01*
X15220101Y-14777056D02*
X15210577Y-14758008D01*
X15210577Y-14758008D02*
X15210577Y-14700866D01*
X15210577Y-14700866D02*
X15220101Y-14681818D01*
X15220101Y-14681818D02*
X15229624Y-14672294D01*
X15229624Y-14672294D02*
X15248672Y-14662770D01*
X15248672Y-14662770D02*
X15277243Y-14662770D01*
X15277243Y-14662770D02*
X15296291Y-14672294D01*
X15296291Y-14672294D02*
X15305815Y-14681818D01*
X15305815Y-14681818D02*
X15315339Y-14700866D01*
X15315339Y-14700866D02*
X15315339Y-14758008D01*
X15315339Y-14758008D02*
X15305815Y-14777056D01*
X15305815Y-14777056D02*
X15296291Y-14786580D01*
X15296291Y-14786580D02*
X15277243Y-14796104D01*
X15277243Y-14796104D02*
X15248672Y-14796104D01*
X15372482Y-14662770D02*
X15448672Y-14662770D01*
X15401053Y-14596104D02*
X15401053Y-14767532D01*
X15401053Y-14767532D02*
X15410577Y-14786580D01*
X15410577Y-14786580D02*
X15429624Y-14796104D01*
X15429624Y-14796104D02*
X15448672Y-14796104D01*
X15667720Y-14662770D02*
X15667720Y-14862770D01*
X15667720Y-14672294D02*
X15686767Y-14662770D01*
X15686767Y-14662770D02*
X15724863Y-14662770D01*
X15724863Y-14662770D02*
X15743910Y-14672294D01*
X15743910Y-14672294D02*
X15753434Y-14681818D01*
X15753434Y-14681818D02*
X15762958Y-14700866D01*
X15762958Y-14700866D02*
X15762958Y-14758008D01*
X15762958Y-14758008D02*
X15753434Y-14777056D01*
X15753434Y-14777056D02*
X15743910Y-14786580D01*
X15743910Y-14786580D02*
X15724863Y-14796104D01*
X15724863Y-14796104D02*
X15686767Y-14796104D01*
X15686767Y-14796104D02*
X15667720Y-14786580D01*
X15877243Y-14796104D02*
X15858196Y-14786580D01*
X15858196Y-14786580D02*
X15848672Y-14767532D01*
X15848672Y-14767532D02*
X15848672Y-14596104D01*
X16039148Y-14796104D02*
X16039148Y-14691342D01*
X16039148Y-14691342D02*
X16029624Y-14672294D01*
X16029624Y-14672294D02*
X16010577Y-14662770D01*
X16010577Y-14662770D02*
X15972482Y-14662770D01*
X15972482Y-14662770D02*
X15953434Y-14672294D01*
X16039148Y-14786580D02*
X16020101Y-14796104D01*
X16020101Y-14796104D02*
X15972482Y-14796104D01*
X15972482Y-14796104D02*
X15953434Y-14786580D01*
X15953434Y-14786580D02*
X15943910Y-14767532D01*
X15943910Y-14767532D02*
X15943910Y-14748485D01*
X15943910Y-14748485D02*
X15953434Y-14729437D01*
X15953434Y-14729437D02*
X15972482Y-14719913D01*
X15972482Y-14719913D02*
X16020101Y-14719913D01*
X16020101Y-14719913D02*
X16039148Y-14710389D01*
X16105815Y-14662770D02*
X16182005Y-14662770D01*
X16134386Y-14596104D02*
X16134386Y-14767532D01*
X16134386Y-14767532D02*
X16143910Y-14786580D01*
X16143910Y-14786580D02*
X16162958Y-14796104D01*
X16162958Y-14796104D02*
X16182005Y-14796104D01*
X16324863Y-14786580D02*
X16305815Y-14796104D01*
X16305815Y-14796104D02*
X16267720Y-14796104D01*
X16267720Y-14796104D02*
X16248672Y-14786580D01*
X16248672Y-14786580D02*
X16239148Y-14767532D01*
X16239148Y-14767532D02*
X16239148Y-14691342D01*
X16239148Y-14691342D02*
X16248672Y-14672294D01*
X16248672Y-14672294D02*
X16267720Y-14662770D01*
X16267720Y-14662770D02*
X16305815Y-14662770D01*
X16305815Y-14662770D02*
X16324863Y-14672294D01*
X16324863Y-14672294D02*
X16334386Y-14691342D01*
X16334386Y-14691342D02*
X16334386Y-14710389D01*
X16334386Y-14710389D02*
X16239148Y-14729437D01*
X16505815Y-14796104D02*
X16505815Y-14596104D01*
X16505815Y-14786580D02*
X16486767Y-14796104D01*
X16486767Y-14796104D02*
X16448672Y-14796104D01*
X16448672Y-14796104D02*
X16429624Y-14786580D01*
X16429624Y-14786580D02*
X16420101Y-14777056D01*
X16420101Y-14777056D02*
X16410577Y-14758008D01*
X16410577Y-14758008D02*
X16410577Y-14700866D01*
X16410577Y-14700866D02*
X16420101Y-14681818D01*
X16420101Y-14681818D02*
X16429624Y-14672294D01*
X16429624Y-14672294D02*
X16448672Y-14662770D01*
X16448672Y-14662770D02*
X16486767Y-14662770D01*
X16486767Y-14662770D02*
X16505815Y-14672294D01*
X16582005Y-14872294D02*
X16591529Y-14862770D01*
X16591529Y-14862770D02*
X16610577Y-14834199D01*
X16610577Y-14834199D02*
X16620101Y-14815151D01*
X16620101Y-14815151D02*
X16629624Y-14786580D01*
X16629624Y-14786580D02*
X16639148Y-14738961D01*
X16639148Y-14738961D02*
X16639148Y-14700866D01*
X16639148Y-14700866D02*
X16629624Y-14653247D01*
X16629624Y-14653247D02*
X16620101Y-14624675D01*
X16620101Y-14624675D02*
X16610577Y-14605628D01*
X16610577Y-14605628D02*
X16591529Y-14577056D01*
X16591529Y-14577056D02*
X16582005Y-14567532D01*
X9825990Y-15024620D02*
G75*
G02*
X9625990Y-15024620I-100000J0D01*
G01*
X9625990Y-15024620D02*
G75*
G02*
X9825990Y-15024620I100000J0D01*
G01*
X10077243Y-14935151D02*
X10086767Y-14925628D01*
X10086767Y-14925628D02*
X10105814Y-14916104D01*
X10105814Y-14916104D02*
X10153434Y-14916104D01*
X10153434Y-14916104D02*
X10172481Y-14925628D01*
X10172481Y-14925628D02*
X10182005Y-14935151D01*
X10182005Y-14935151D02*
X10191529Y-14954199D01*
X10191529Y-14954199D02*
X10191529Y-14973247D01*
X10191529Y-14973247D02*
X10182005Y-15001818D01*
X10182005Y-15001818D02*
X10067719Y-15116104D01*
X10067719Y-15116104D02*
X10191529Y-15116104D01*
X10277243Y-15097056D02*
X10286767Y-15106580D01*
X10286767Y-15106580D02*
X10277243Y-15116104D01*
X10277243Y-15116104D02*
X10267719Y-15106580D01*
X10267719Y-15106580D02*
X10277243Y-15097056D01*
X10277243Y-15097056D02*
X10277243Y-15116104D01*
X10401053Y-15001818D02*
X10382005Y-14992294D01*
X10382005Y-14992294D02*
X10372481Y-14982770D01*
X10372481Y-14982770D02*
X10362957Y-14963723D01*
X10362957Y-14963723D02*
X10362957Y-14954199D01*
X10362957Y-14954199D02*
X10372481Y-14935151D01*
X10372481Y-14935151D02*
X10382005Y-14925628D01*
X10382005Y-14925628D02*
X10401053Y-14916104D01*
X10401053Y-14916104D02*
X10439148Y-14916104D01*
X10439148Y-14916104D02*
X10458195Y-14925628D01*
X10458195Y-14925628D02*
X10467719Y-14935151D01*
X10467719Y-14935151D02*
X10477243Y-14954199D01*
X10477243Y-14954199D02*
X10477243Y-14963723D01*
X10477243Y-14963723D02*
X10467719Y-14982770D01*
X10467719Y-14982770D02*
X10458195Y-14992294D01*
X10458195Y-14992294D02*
X10439148Y-15001818D01*
X10439148Y-15001818D02*
X10401053Y-15001818D01*
X10401053Y-15001818D02*
X10382005Y-15011342D01*
X10382005Y-15011342D02*
X10372481Y-15020866D01*
X10372481Y-15020866D02*
X10362957Y-15039913D01*
X10362957Y-15039913D02*
X10362957Y-15078008D01*
X10362957Y-15078008D02*
X10372481Y-15097056D01*
X10372481Y-15097056D02*
X10382005Y-15106580D01*
X10382005Y-15106580D02*
X10401053Y-15116104D01*
X10401053Y-15116104D02*
X10439148Y-15116104D01*
X10439148Y-15116104D02*
X10458195Y-15106580D01*
X10458195Y-15106580D02*
X10467719Y-15097056D01*
X10467719Y-15097056D02*
X10477243Y-15078008D01*
X10477243Y-15078008D02*
X10477243Y-15039913D01*
X10477243Y-15039913D02*
X10467719Y-15020866D01*
X10467719Y-15020866D02*
X10458195Y-15011342D01*
X10458195Y-15011342D02*
X10439148Y-15001818D01*
X10601053Y-14916104D02*
X10620100Y-14916104D01*
X10620100Y-14916104D02*
X10639148Y-14925628D01*
X10639148Y-14925628D02*
X10648672Y-14935151D01*
X10648672Y-14935151D02*
X10658195Y-14954199D01*
X10658195Y-14954199D02*
X10667719Y-14992294D01*
X10667719Y-14992294D02*
X10667719Y-15039913D01*
X10667719Y-15039913D02*
X10658195Y-15078008D01*
X10658195Y-15078008D02*
X10648672Y-15097056D01*
X10648672Y-15097056D02*
X10639148Y-15106580D01*
X10639148Y-15106580D02*
X10620100Y-15116104D01*
X10620100Y-15116104D02*
X10601053Y-15116104D01*
X10601053Y-15116104D02*
X10582005Y-15106580D01*
X10582005Y-15106580D02*
X10572481Y-15097056D01*
X10572481Y-15097056D02*
X10562957Y-15078008D01*
X10562957Y-15078008D02*
X10553434Y-15039913D01*
X10553434Y-15039913D02*
X10553434Y-14992294D01*
X10553434Y-14992294D02*
X10562957Y-14954199D01*
X10562957Y-14954199D02*
X10572481Y-14935151D01*
X10572481Y-14935151D02*
X10582005Y-14925628D01*
X10582005Y-14925628D02*
X10601053Y-14916104D01*
X10791529Y-14916104D02*
X10810576Y-14916104D01*
X10810576Y-14916104D02*
X10829624Y-14925628D01*
X10829624Y-14925628D02*
X10839148Y-14935151D01*
X10839148Y-14935151D02*
X10848672Y-14954199D01*
X10848672Y-14954199D02*
X10858195Y-14992294D01*
X10858195Y-14992294D02*
X10858195Y-15039913D01*
X10858195Y-15039913D02*
X10848672Y-15078008D01*
X10848672Y-15078008D02*
X10839148Y-15097056D01*
X10839148Y-15097056D02*
X10829624Y-15106580D01*
X10829624Y-15106580D02*
X10810576Y-15116104D01*
X10810576Y-15116104D02*
X10791529Y-15116104D01*
X10791529Y-15116104D02*
X10772481Y-15106580D01*
X10772481Y-15106580D02*
X10762957Y-15097056D01*
X10762957Y-15097056D02*
X10753434Y-15078008D01*
X10753434Y-15078008D02*
X10743910Y-15039913D01*
X10743910Y-15039913D02*
X10743910Y-14992294D01*
X10743910Y-14992294D02*
X10753434Y-14954199D01*
X10753434Y-14954199D02*
X10762957Y-14935151D01*
X10762957Y-14935151D02*
X10772481Y-14925628D01*
X10772481Y-14925628D02*
X10791529Y-14916104D01*
X10943910Y-15116104D02*
X10943910Y-14982770D01*
X10943910Y-15001818D02*
X10953434Y-14992294D01*
X10953434Y-14992294D02*
X10972481Y-14982770D01*
X10972481Y-14982770D02*
X11001053Y-14982770D01*
X11001053Y-14982770D02*
X11020100Y-14992294D01*
X11020100Y-14992294D02*
X11029624Y-15011342D01*
X11029624Y-15011342D02*
X11029624Y-15116104D01*
X11029624Y-15011342D02*
X11039148Y-14992294D01*
X11039148Y-14992294D02*
X11058195Y-14982770D01*
X11058195Y-14982770D02*
X11086767Y-14982770D01*
X11086767Y-14982770D02*
X11105815Y-14992294D01*
X11105815Y-14992294D02*
X11115338Y-15011342D01*
X11115338Y-15011342D02*
X11115338Y-15116104D01*
X11210576Y-15116104D02*
X11210576Y-14982770D01*
X11210576Y-15001818D02*
X11220100Y-14992294D01*
X11220100Y-14992294D02*
X11239148Y-14982770D01*
X11239148Y-14982770D02*
X11267719Y-14982770D01*
X11267719Y-14982770D02*
X11286767Y-14992294D01*
X11286767Y-14992294D02*
X11296291Y-15011342D01*
X11296291Y-15011342D02*
X11296291Y-15116104D01*
X11296291Y-15011342D02*
X11305814Y-14992294D01*
X11305814Y-14992294D02*
X11324862Y-14982770D01*
X11324862Y-14982770D02*
X11353433Y-14982770D01*
X11353433Y-14982770D02*
X11372481Y-14992294D01*
X11372481Y-14992294D02*
X11382005Y-15011342D01*
X11382005Y-15011342D02*
X11382005Y-15116104D01*
X11772481Y-14906580D02*
X11601053Y-15163723D01*
X12029624Y-14916104D02*
X12048672Y-14916104D01*
X12048672Y-14916104D02*
X12067719Y-14925628D01*
X12067719Y-14925628D02*
X12077243Y-14935151D01*
X12077243Y-14935151D02*
X12086767Y-14954199D01*
X12086767Y-14954199D02*
X12096291Y-14992294D01*
X12096291Y-14992294D02*
X12096291Y-15039913D01*
X12096291Y-15039913D02*
X12086767Y-15078008D01*
X12086767Y-15078008D02*
X12077243Y-15097056D01*
X12077243Y-15097056D02*
X12067719Y-15106580D01*
X12067719Y-15106580D02*
X12048672Y-15116104D01*
X12048672Y-15116104D02*
X12029624Y-15116104D01*
X12029624Y-15116104D02*
X12010576Y-15106580D01*
X12010576Y-15106580D02*
X12001053Y-15097056D01*
X12001053Y-15097056D02*
X11991529Y-15078008D01*
X11991529Y-15078008D02*
X11982005Y-15039913D01*
X11982005Y-15039913D02*
X11982005Y-14992294D01*
X11982005Y-14992294D02*
X11991529Y-14954199D01*
X11991529Y-14954199D02*
X12001053Y-14935151D01*
X12001053Y-14935151D02*
X12010576Y-14925628D01*
X12010576Y-14925628D02*
X12029624Y-14916104D01*
X12182005Y-15097056D02*
X12191529Y-15106580D01*
X12191529Y-15106580D02*
X12182005Y-15116104D01*
X12182005Y-15116104D02*
X12172481Y-15106580D01*
X12172481Y-15106580D02*
X12182005Y-15097056D01*
X12182005Y-15097056D02*
X12182005Y-15116104D01*
X12382005Y-15116104D02*
X12267719Y-15116104D01*
X12324862Y-15116104D02*
X12324862Y-14916104D01*
X12324862Y-14916104D02*
X12305815Y-14944675D01*
X12305815Y-14944675D02*
X12286767Y-14963723D01*
X12286767Y-14963723D02*
X12267719Y-14973247D01*
X12572481Y-15116104D02*
X12458196Y-15116104D01*
X12515338Y-15116104D02*
X12515338Y-14916104D01*
X12515338Y-14916104D02*
X12496291Y-14944675D01*
X12496291Y-14944675D02*
X12477243Y-14963723D01*
X12477243Y-14963723D02*
X12458196Y-14973247D01*
X12696291Y-14916104D02*
X12715338Y-14916104D01*
X12715338Y-14916104D02*
X12734386Y-14925628D01*
X12734386Y-14925628D02*
X12743910Y-14935151D01*
X12743910Y-14935151D02*
X12753434Y-14954199D01*
X12753434Y-14954199D02*
X12762957Y-14992294D01*
X12762957Y-14992294D02*
X12762957Y-15039913D01*
X12762957Y-15039913D02*
X12753434Y-15078008D01*
X12753434Y-15078008D02*
X12743910Y-15097056D01*
X12743910Y-15097056D02*
X12734386Y-15106580D01*
X12734386Y-15106580D02*
X12715338Y-15116104D01*
X12715338Y-15116104D02*
X12696291Y-15116104D01*
X12696291Y-15116104D02*
X12677243Y-15106580D01*
X12677243Y-15106580D02*
X12667719Y-15097056D01*
X12667719Y-15097056D02*
X12658196Y-15078008D01*
X12658196Y-15078008D02*
X12648672Y-15039913D01*
X12648672Y-15039913D02*
X12648672Y-14992294D01*
X12648672Y-14992294D02*
X12658196Y-14954199D01*
X12658196Y-14954199D02*
X12667719Y-14935151D01*
X12667719Y-14935151D02*
X12677243Y-14925628D01*
X12677243Y-14925628D02*
X12696291Y-14916104D01*
X12839148Y-14935151D02*
X12848672Y-14925628D01*
X12848672Y-14925628D02*
X12867719Y-14916104D01*
X12867719Y-14916104D02*
X12915338Y-14916104D01*
X12915338Y-14916104D02*
X12934386Y-14925628D01*
X12934386Y-14925628D02*
X12943910Y-14935151D01*
X12943910Y-14935151D02*
X12953434Y-14954199D01*
X12953434Y-14954199D02*
X12953434Y-14973247D01*
X12953434Y-14973247D02*
X12943910Y-15001818D01*
X12943910Y-15001818D02*
X12829624Y-15116104D01*
X12829624Y-15116104D02*
X12953434Y-15116104D01*
X13029624Y-14916104D02*
X13029624Y-14954199D01*
X13105815Y-14916104D02*
X13105815Y-14954199D01*
X13401053Y-15192294D02*
X13391529Y-15182770D01*
X13391529Y-15182770D02*
X13372481Y-15154199D01*
X13372481Y-15154199D02*
X13362958Y-15135151D01*
X13362958Y-15135151D02*
X13353434Y-15106580D01*
X13353434Y-15106580D02*
X13343910Y-15058961D01*
X13343910Y-15058961D02*
X13343910Y-15020866D01*
X13343910Y-15020866D02*
X13353434Y-14973247D01*
X13353434Y-14973247D02*
X13362958Y-14944675D01*
X13362958Y-14944675D02*
X13372481Y-14925628D01*
X13372481Y-14925628D02*
X13391529Y-14897056D01*
X13391529Y-14897056D02*
X13401053Y-14887532D01*
X13562958Y-14982770D02*
X13562958Y-15116104D01*
X13515338Y-14906580D02*
X13467719Y-15049437D01*
X13467719Y-15049437D02*
X13591529Y-15049437D01*
X13820100Y-15116104D02*
X13820100Y-14916104D01*
X13905815Y-15116104D02*
X13905815Y-15011342D01*
X13905815Y-15011342D02*
X13896291Y-14992294D01*
X13896291Y-14992294D02*
X13877243Y-14982770D01*
X13877243Y-14982770D02*
X13848672Y-14982770D01*
X13848672Y-14982770D02*
X13829624Y-14992294D01*
X13829624Y-14992294D02*
X13820100Y-15001818D01*
X14029624Y-15116104D02*
X14010577Y-15106580D01*
X14010577Y-15106580D02*
X14001053Y-15097056D01*
X14001053Y-15097056D02*
X13991529Y-15078008D01*
X13991529Y-15078008D02*
X13991529Y-15020866D01*
X13991529Y-15020866D02*
X14001053Y-15001818D01*
X14001053Y-15001818D02*
X14010577Y-14992294D01*
X14010577Y-14992294D02*
X14029624Y-14982770D01*
X14029624Y-14982770D02*
X14058196Y-14982770D01*
X14058196Y-14982770D02*
X14077243Y-14992294D01*
X14077243Y-14992294D02*
X14086767Y-15001818D01*
X14086767Y-15001818D02*
X14096291Y-15020866D01*
X14096291Y-15020866D02*
X14096291Y-15078008D01*
X14096291Y-15078008D02*
X14086767Y-15097056D01*
X14086767Y-15097056D02*
X14077243Y-15106580D01*
X14077243Y-15106580D02*
X14058196Y-15116104D01*
X14058196Y-15116104D02*
X14029624Y-15116104D01*
X14210577Y-15116104D02*
X14191529Y-15106580D01*
X14191529Y-15106580D02*
X14182005Y-15087532D01*
X14182005Y-15087532D02*
X14182005Y-14916104D01*
X14362958Y-15106580D02*
X14343910Y-15116104D01*
X14343910Y-15116104D02*
X14305815Y-15116104D01*
X14305815Y-15116104D02*
X14286767Y-15106580D01*
X14286767Y-15106580D02*
X14277243Y-15087532D01*
X14277243Y-15087532D02*
X14277243Y-15011342D01*
X14277243Y-15011342D02*
X14286767Y-14992294D01*
X14286767Y-14992294D02*
X14305815Y-14982770D01*
X14305815Y-14982770D02*
X14343910Y-14982770D01*
X14343910Y-14982770D02*
X14362958Y-14992294D01*
X14362958Y-14992294D02*
X14372481Y-15011342D01*
X14372481Y-15011342D02*
X14372481Y-15030389D01*
X14372481Y-15030389D02*
X14277243Y-15049437D01*
X14448672Y-15106580D02*
X14467720Y-15116104D01*
X14467720Y-15116104D02*
X14505815Y-15116104D01*
X14505815Y-15116104D02*
X14524862Y-15106580D01*
X14524862Y-15106580D02*
X14534386Y-15087532D01*
X14534386Y-15087532D02*
X14534386Y-15078008D01*
X14534386Y-15078008D02*
X14524862Y-15058961D01*
X14524862Y-15058961D02*
X14505815Y-15049437D01*
X14505815Y-15049437D02*
X14477243Y-15049437D01*
X14477243Y-15049437D02*
X14458196Y-15039913D01*
X14458196Y-15039913D02*
X14448672Y-15020866D01*
X14448672Y-15020866D02*
X14448672Y-15011342D01*
X14448672Y-15011342D02*
X14458196Y-14992294D01*
X14458196Y-14992294D02*
X14477243Y-14982770D01*
X14477243Y-14982770D02*
X14505815Y-14982770D01*
X14505815Y-14982770D02*
X14524862Y-14992294D01*
X14601053Y-15192294D02*
X14610577Y-15182770D01*
X14610577Y-15182770D02*
X14629624Y-15154199D01*
X14629624Y-15154199D02*
X14639148Y-15135151D01*
X14639148Y-15135151D02*
X14648672Y-15106580D01*
X14648672Y-15106580D02*
X14658196Y-15058961D01*
X14658196Y-15058961D02*
X14658196Y-15020866D01*
X14658196Y-15020866D02*
X14648672Y-14973247D01*
X14648672Y-14973247D02*
X14639148Y-14944675D01*
X14639148Y-14944675D02*
X14629624Y-14925628D01*
X14629624Y-14925628D02*
X14610577Y-14897056D01*
X14610577Y-14897056D02*
X14601053Y-14887532D01*
X14962958Y-15192294D02*
X14953434Y-15182770D01*
X14953434Y-15182770D02*
X14934386Y-15154199D01*
X14934386Y-15154199D02*
X14924862Y-15135151D01*
X14924862Y-15135151D02*
X14915339Y-15106580D01*
X14915339Y-15106580D02*
X14905815Y-15058961D01*
X14905815Y-15058961D02*
X14905815Y-15020866D01*
X14905815Y-15020866D02*
X14915339Y-14973247D01*
X14915339Y-14973247D02*
X14924862Y-14944675D01*
X14924862Y-14944675D02*
X14934386Y-14925628D01*
X14934386Y-14925628D02*
X14953434Y-14897056D01*
X14953434Y-14897056D02*
X14962958Y-14887532D01*
X15039148Y-14982770D02*
X15039148Y-15116104D01*
X15039148Y-15001818D02*
X15048672Y-14992294D01*
X15048672Y-14992294D02*
X15067720Y-14982770D01*
X15067720Y-14982770D02*
X15096291Y-14982770D01*
X15096291Y-14982770D02*
X15115339Y-14992294D01*
X15115339Y-14992294D02*
X15124862Y-15011342D01*
X15124862Y-15011342D02*
X15124862Y-15116104D01*
X15248672Y-15116104D02*
X15229624Y-15106580D01*
X15229624Y-15106580D02*
X15220101Y-15097056D01*
X15220101Y-15097056D02*
X15210577Y-15078008D01*
X15210577Y-15078008D02*
X15210577Y-15020866D01*
X15210577Y-15020866D02*
X15220101Y-15001818D01*
X15220101Y-15001818D02*
X15229624Y-14992294D01*
X15229624Y-14992294D02*
X15248672Y-14982770D01*
X15248672Y-14982770D02*
X15277243Y-14982770D01*
X15277243Y-14982770D02*
X15296291Y-14992294D01*
X15296291Y-14992294D02*
X15305815Y-15001818D01*
X15305815Y-15001818D02*
X15315339Y-15020866D01*
X15315339Y-15020866D02*
X15315339Y-15078008D01*
X15315339Y-15078008D02*
X15305815Y-15097056D01*
X15305815Y-15097056D02*
X15296291Y-15106580D01*
X15296291Y-15106580D02*
X15277243Y-15116104D01*
X15277243Y-15116104D02*
X15248672Y-15116104D01*
X15372482Y-14982770D02*
X15448672Y-14982770D01*
X15401053Y-14916104D02*
X15401053Y-15087532D01*
X15401053Y-15087532D02*
X15410577Y-15106580D01*
X15410577Y-15106580D02*
X15429624Y-15116104D01*
X15429624Y-15116104D02*
X15448672Y-15116104D01*
X15667720Y-14982770D02*
X15667720Y-15182770D01*
X15667720Y-14992294D02*
X15686767Y-14982770D01*
X15686767Y-14982770D02*
X15724863Y-14982770D01*
X15724863Y-14982770D02*
X15743910Y-14992294D01*
X15743910Y-14992294D02*
X15753434Y-15001818D01*
X15753434Y-15001818D02*
X15762958Y-15020866D01*
X15762958Y-15020866D02*
X15762958Y-15078008D01*
X15762958Y-15078008D02*
X15753434Y-15097056D01*
X15753434Y-15097056D02*
X15743910Y-15106580D01*
X15743910Y-15106580D02*
X15724863Y-15116104D01*
X15724863Y-15116104D02*
X15686767Y-15116104D01*
X15686767Y-15116104D02*
X15667720Y-15106580D01*
X15877243Y-15116104D02*
X15858196Y-15106580D01*
X15858196Y-15106580D02*
X15848672Y-15087532D01*
X15848672Y-15087532D02*
X15848672Y-14916104D01*
X16039148Y-15116104D02*
X16039148Y-15011342D01*
X16039148Y-15011342D02*
X16029624Y-14992294D01*
X16029624Y-14992294D02*
X16010577Y-14982770D01*
X16010577Y-14982770D02*
X15972482Y-14982770D01*
X15972482Y-14982770D02*
X15953434Y-14992294D01*
X16039148Y-15106580D02*
X16020101Y-15116104D01*
X16020101Y-15116104D02*
X15972482Y-15116104D01*
X15972482Y-15116104D02*
X15953434Y-15106580D01*
X15953434Y-15106580D02*
X15943910Y-15087532D01*
X15943910Y-15087532D02*
X15943910Y-15068485D01*
X15943910Y-15068485D02*
X15953434Y-15049437D01*
X15953434Y-15049437D02*
X15972482Y-15039913D01*
X15972482Y-15039913D02*
X16020101Y-15039913D01*
X16020101Y-15039913D02*
X16039148Y-15030389D01*
X16105815Y-14982770D02*
X16182005Y-14982770D01*
X16134386Y-14916104D02*
X16134386Y-15087532D01*
X16134386Y-15087532D02*
X16143910Y-15106580D01*
X16143910Y-15106580D02*
X16162958Y-15116104D01*
X16162958Y-15116104D02*
X16182005Y-15116104D01*
X16324863Y-15106580D02*
X16305815Y-15116104D01*
X16305815Y-15116104D02*
X16267720Y-15116104D01*
X16267720Y-15116104D02*
X16248672Y-15106580D01*
X16248672Y-15106580D02*
X16239148Y-15087532D01*
X16239148Y-15087532D02*
X16239148Y-15011342D01*
X16239148Y-15011342D02*
X16248672Y-14992294D01*
X16248672Y-14992294D02*
X16267720Y-14982770D01*
X16267720Y-14982770D02*
X16305815Y-14982770D01*
X16305815Y-14982770D02*
X16324863Y-14992294D01*
X16324863Y-14992294D02*
X16334386Y-15011342D01*
X16334386Y-15011342D02*
X16334386Y-15030389D01*
X16334386Y-15030389D02*
X16239148Y-15049437D01*
X16505815Y-15116104D02*
X16505815Y-14916104D01*
X16505815Y-15106580D02*
X16486767Y-15116104D01*
X16486767Y-15116104D02*
X16448672Y-15116104D01*
X16448672Y-15116104D02*
X16429624Y-15106580D01*
X16429624Y-15106580D02*
X16420101Y-15097056D01*
X16420101Y-15097056D02*
X16410577Y-15078008D01*
X16410577Y-15078008D02*
X16410577Y-15020866D01*
X16410577Y-15020866D02*
X16420101Y-15001818D01*
X16420101Y-15001818D02*
X16429624Y-14992294D01*
X16429624Y-14992294D02*
X16448672Y-14982770D01*
X16448672Y-14982770D02*
X16486767Y-14982770D01*
X16486767Y-14982770D02*
X16505815Y-14992294D01*
X16582005Y-15192294D02*
X16591529Y-15182770D01*
X16591529Y-15182770D02*
X16610577Y-15154199D01*
X16610577Y-15154199D02*
X16620101Y-15135151D01*
X16620101Y-15135151D02*
X16629624Y-15106580D01*
X16629624Y-15106580D02*
X16639148Y-15058961D01*
X16639148Y-15058961D02*
X16639148Y-15020866D01*
X16639148Y-15020866D02*
X16629624Y-14973247D01*
X16629624Y-14973247D02*
X16620101Y-14944675D01*
X16620101Y-14944675D02*
X16610577Y-14925628D01*
X16610577Y-14925628D02*
X16591529Y-14897056D01*
X16591529Y-14897056D02*
X16582005Y-14887532D01*
X9725990Y-15244620D02*
X9725990Y-15444620D01*
X9625990Y-15344620D02*
X9825990Y-15344620D01*
X10067719Y-15236104D02*
X10191529Y-15236104D01*
X10191529Y-15236104D02*
X10124862Y-15312294D01*
X10124862Y-15312294D02*
X10153434Y-15312294D01*
X10153434Y-15312294D02*
X10172481Y-15321818D01*
X10172481Y-15321818D02*
X10182005Y-15331342D01*
X10182005Y-15331342D02*
X10191529Y-15350389D01*
X10191529Y-15350389D02*
X10191529Y-15398008D01*
X10191529Y-15398008D02*
X10182005Y-15417056D01*
X10182005Y-15417056D02*
X10172481Y-15426580D01*
X10172481Y-15426580D02*
X10153434Y-15436104D01*
X10153434Y-15436104D02*
X10096291Y-15436104D01*
X10096291Y-15436104D02*
X10077243Y-15426580D01*
X10077243Y-15426580D02*
X10067719Y-15417056D01*
X10277243Y-15417056D02*
X10286767Y-15426580D01*
X10286767Y-15426580D02*
X10277243Y-15436104D01*
X10277243Y-15436104D02*
X10267719Y-15426580D01*
X10267719Y-15426580D02*
X10277243Y-15417056D01*
X10277243Y-15417056D02*
X10277243Y-15436104D01*
X10362957Y-15255151D02*
X10372481Y-15245628D01*
X10372481Y-15245628D02*
X10391529Y-15236104D01*
X10391529Y-15236104D02*
X10439148Y-15236104D01*
X10439148Y-15236104D02*
X10458195Y-15245628D01*
X10458195Y-15245628D02*
X10467719Y-15255151D01*
X10467719Y-15255151D02*
X10477243Y-15274199D01*
X10477243Y-15274199D02*
X10477243Y-15293247D01*
X10477243Y-15293247D02*
X10467719Y-15321818D01*
X10467719Y-15321818D02*
X10353434Y-15436104D01*
X10353434Y-15436104D02*
X10477243Y-15436104D01*
X10658195Y-15236104D02*
X10562957Y-15236104D01*
X10562957Y-15236104D02*
X10553434Y-15331342D01*
X10553434Y-15331342D02*
X10562957Y-15321818D01*
X10562957Y-15321818D02*
X10582005Y-15312294D01*
X10582005Y-15312294D02*
X10629624Y-15312294D01*
X10629624Y-15312294D02*
X10648672Y-15321818D01*
X10648672Y-15321818D02*
X10658195Y-15331342D01*
X10658195Y-15331342D02*
X10667719Y-15350389D01*
X10667719Y-15350389D02*
X10667719Y-15398008D01*
X10667719Y-15398008D02*
X10658195Y-15417056D01*
X10658195Y-15417056D02*
X10648672Y-15426580D01*
X10648672Y-15426580D02*
X10629624Y-15436104D01*
X10629624Y-15436104D02*
X10582005Y-15436104D01*
X10582005Y-15436104D02*
X10562957Y-15426580D01*
X10562957Y-15426580D02*
X10553434Y-15417056D01*
X10858195Y-15436104D02*
X10743910Y-15436104D01*
X10801053Y-15436104D02*
X10801053Y-15236104D01*
X10801053Y-15236104D02*
X10782005Y-15264675D01*
X10782005Y-15264675D02*
X10762957Y-15283723D01*
X10762957Y-15283723D02*
X10743910Y-15293247D01*
X10943910Y-15436104D02*
X10943910Y-15302770D01*
X10943910Y-15321818D02*
X10953434Y-15312294D01*
X10953434Y-15312294D02*
X10972481Y-15302770D01*
X10972481Y-15302770D02*
X11001053Y-15302770D01*
X11001053Y-15302770D02*
X11020100Y-15312294D01*
X11020100Y-15312294D02*
X11029624Y-15331342D01*
X11029624Y-15331342D02*
X11029624Y-15436104D01*
X11029624Y-15331342D02*
X11039148Y-15312294D01*
X11039148Y-15312294D02*
X11058195Y-15302770D01*
X11058195Y-15302770D02*
X11086767Y-15302770D01*
X11086767Y-15302770D02*
X11105815Y-15312294D01*
X11105815Y-15312294D02*
X11115338Y-15331342D01*
X11115338Y-15331342D02*
X11115338Y-15436104D01*
X11210576Y-15436104D02*
X11210576Y-15302770D01*
X11210576Y-15321818D02*
X11220100Y-15312294D01*
X11220100Y-15312294D02*
X11239148Y-15302770D01*
X11239148Y-15302770D02*
X11267719Y-15302770D01*
X11267719Y-15302770D02*
X11286767Y-15312294D01*
X11286767Y-15312294D02*
X11296291Y-15331342D01*
X11296291Y-15331342D02*
X11296291Y-15436104D01*
X11296291Y-15331342D02*
X11305814Y-15312294D01*
X11305814Y-15312294D02*
X11324862Y-15302770D01*
X11324862Y-15302770D02*
X11353433Y-15302770D01*
X11353433Y-15302770D02*
X11372481Y-15312294D01*
X11372481Y-15312294D02*
X11382005Y-15331342D01*
X11382005Y-15331342D02*
X11382005Y-15436104D01*
X11772481Y-15226580D02*
X11601053Y-15483723D01*
X12029624Y-15236104D02*
X12048672Y-15236104D01*
X12048672Y-15236104D02*
X12067719Y-15245628D01*
X12067719Y-15245628D02*
X12077243Y-15255151D01*
X12077243Y-15255151D02*
X12086767Y-15274199D01*
X12086767Y-15274199D02*
X12096291Y-15312294D01*
X12096291Y-15312294D02*
X12096291Y-15359913D01*
X12096291Y-15359913D02*
X12086767Y-15398008D01*
X12086767Y-15398008D02*
X12077243Y-15417056D01*
X12077243Y-15417056D02*
X12067719Y-15426580D01*
X12067719Y-15426580D02*
X12048672Y-15436104D01*
X12048672Y-15436104D02*
X12029624Y-15436104D01*
X12029624Y-15436104D02*
X12010576Y-15426580D01*
X12010576Y-15426580D02*
X12001053Y-15417056D01*
X12001053Y-15417056D02*
X11991529Y-15398008D01*
X11991529Y-15398008D02*
X11982005Y-15359913D01*
X11982005Y-15359913D02*
X11982005Y-15312294D01*
X11982005Y-15312294D02*
X11991529Y-15274199D01*
X11991529Y-15274199D02*
X12001053Y-15255151D01*
X12001053Y-15255151D02*
X12010576Y-15245628D01*
X12010576Y-15245628D02*
X12029624Y-15236104D01*
X12182005Y-15417056D02*
X12191529Y-15426580D01*
X12191529Y-15426580D02*
X12182005Y-15436104D01*
X12182005Y-15436104D02*
X12172481Y-15426580D01*
X12172481Y-15426580D02*
X12182005Y-15417056D01*
X12182005Y-15417056D02*
X12182005Y-15436104D01*
X12382005Y-15436104D02*
X12267719Y-15436104D01*
X12324862Y-15436104D02*
X12324862Y-15236104D01*
X12324862Y-15236104D02*
X12305815Y-15264675D01*
X12305815Y-15264675D02*
X12286767Y-15283723D01*
X12286767Y-15283723D02*
X12267719Y-15293247D01*
X12458196Y-15255151D02*
X12467719Y-15245628D01*
X12467719Y-15245628D02*
X12486767Y-15236104D01*
X12486767Y-15236104D02*
X12534386Y-15236104D01*
X12534386Y-15236104D02*
X12553434Y-15245628D01*
X12553434Y-15245628D02*
X12562957Y-15255151D01*
X12562957Y-15255151D02*
X12572481Y-15274199D01*
X12572481Y-15274199D02*
X12572481Y-15293247D01*
X12572481Y-15293247D02*
X12562957Y-15321818D01*
X12562957Y-15321818D02*
X12448672Y-15436104D01*
X12448672Y-15436104D02*
X12572481Y-15436104D01*
X12686767Y-15321818D02*
X12667719Y-15312294D01*
X12667719Y-15312294D02*
X12658196Y-15302770D01*
X12658196Y-15302770D02*
X12648672Y-15283723D01*
X12648672Y-15283723D02*
X12648672Y-15274199D01*
X12648672Y-15274199D02*
X12658196Y-15255151D01*
X12658196Y-15255151D02*
X12667719Y-15245628D01*
X12667719Y-15245628D02*
X12686767Y-15236104D01*
X12686767Y-15236104D02*
X12724862Y-15236104D01*
X12724862Y-15236104D02*
X12743910Y-15245628D01*
X12743910Y-15245628D02*
X12753434Y-15255151D01*
X12753434Y-15255151D02*
X12762957Y-15274199D01*
X12762957Y-15274199D02*
X12762957Y-15283723D01*
X12762957Y-15283723D02*
X12753434Y-15302770D01*
X12753434Y-15302770D02*
X12743910Y-15312294D01*
X12743910Y-15312294D02*
X12724862Y-15321818D01*
X12724862Y-15321818D02*
X12686767Y-15321818D01*
X12686767Y-15321818D02*
X12667719Y-15331342D01*
X12667719Y-15331342D02*
X12658196Y-15340866D01*
X12658196Y-15340866D02*
X12648672Y-15359913D01*
X12648672Y-15359913D02*
X12648672Y-15398008D01*
X12648672Y-15398008D02*
X12658196Y-15417056D01*
X12658196Y-15417056D02*
X12667719Y-15426580D01*
X12667719Y-15426580D02*
X12686767Y-15436104D01*
X12686767Y-15436104D02*
X12724862Y-15436104D01*
X12724862Y-15436104D02*
X12743910Y-15426580D01*
X12743910Y-15426580D02*
X12753434Y-15417056D01*
X12753434Y-15417056D02*
X12762957Y-15398008D01*
X12762957Y-15398008D02*
X12762957Y-15359913D01*
X12762957Y-15359913D02*
X12753434Y-15340866D01*
X12753434Y-15340866D02*
X12743910Y-15331342D01*
X12743910Y-15331342D02*
X12724862Y-15321818D01*
X12886767Y-15236104D02*
X12905815Y-15236104D01*
X12905815Y-15236104D02*
X12924862Y-15245628D01*
X12924862Y-15245628D02*
X12934386Y-15255151D01*
X12934386Y-15255151D02*
X12943910Y-15274199D01*
X12943910Y-15274199D02*
X12953434Y-15312294D01*
X12953434Y-15312294D02*
X12953434Y-15359913D01*
X12953434Y-15359913D02*
X12943910Y-15398008D01*
X12943910Y-15398008D02*
X12934386Y-15417056D01*
X12934386Y-15417056D02*
X12924862Y-15426580D01*
X12924862Y-15426580D02*
X12905815Y-15436104D01*
X12905815Y-15436104D02*
X12886767Y-15436104D01*
X12886767Y-15436104D02*
X12867719Y-15426580D01*
X12867719Y-15426580D02*
X12858196Y-15417056D01*
X12858196Y-15417056D02*
X12848672Y-15398008D01*
X12848672Y-15398008D02*
X12839148Y-15359913D01*
X12839148Y-15359913D02*
X12839148Y-15312294D01*
X12839148Y-15312294D02*
X12848672Y-15274199D01*
X12848672Y-15274199D02*
X12858196Y-15255151D01*
X12858196Y-15255151D02*
X12867719Y-15245628D01*
X12867719Y-15245628D02*
X12886767Y-15236104D01*
X13029624Y-15236104D02*
X13029624Y-15274199D01*
X13105815Y-15236104D02*
X13105815Y-15274199D01*
X13401053Y-15512294D02*
X13391529Y-15502770D01*
X13391529Y-15502770D02*
X13372481Y-15474199D01*
X13372481Y-15474199D02*
X13362958Y-15455151D01*
X13362958Y-15455151D02*
X13353434Y-15426580D01*
X13353434Y-15426580D02*
X13343910Y-15378961D01*
X13343910Y-15378961D02*
X13343910Y-15340866D01*
X13343910Y-15340866D02*
X13353434Y-15293247D01*
X13353434Y-15293247D02*
X13362958Y-15264675D01*
X13362958Y-15264675D02*
X13372481Y-15245628D01*
X13372481Y-15245628D02*
X13391529Y-15217056D01*
X13391529Y-15217056D02*
X13401053Y-15207532D01*
X13562958Y-15302770D02*
X13562958Y-15436104D01*
X13515338Y-15226580D02*
X13467719Y-15369437D01*
X13467719Y-15369437D02*
X13591529Y-15369437D01*
X13820100Y-15436104D02*
X13820100Y-15236104D01*
X13905815Y-15436104D02*
X13905815Y-15331342D01*
X13905815Y-15331342D02*
X13896291Y-15312294D01*
X13896291Y-15312294D02*
X13877243Y-15302770D01*
X13877243Y-15302770D02*
X13848672Y-15302770D01*
X13848672Y-15302770D02*
X13829624Y-15312294D01*
X13829624Y-15312294D02*
X13820100Y-15321818D01*
X14029624Y-15436104D02*
X14010577Y-15426580D01*
X14010577Y-15426580D02*
X14001053Y-15417056D01*
X14001053Y-15417056D02*
X13991529Y-15398008D01*
X13991529Y-15398008D02*
X13991529Y-15340866D01*
X13991529Y-15340866D02*
X14001053Y-15321818D01*
X14001053Y-15321818D02*
X14010577Y-15312294D01*
X14010577Y-15312294D02*
X14029624Y-15302770D01*
X14029624Y-15302770D02*
X14058196Y-15302770D01*
X14058196Y-15302770D02*
X14077243Y-15312294D01*
X14077243Y-15312294D02*
X14086767Y-15321818D01*
X14086767Y-15321818D02*
X14096291Y-15340866D01*
X14096291Y-15340866D02*
X14096291Y-15398008D01*
X14096291Y-15398008D02*
X14086767Y-15417056D01*
X14086767Y-15417056D02*
X14077243Y-15426580D01*
X14077243Y-15426580D02*
X14058196Y-15436104D01*
X14058196Y-15436104D02*
X14029624Y-15436104D01*
X14210577Y-15436104D02*
X14191529Y-15426580D01*
X14191529Y-15426580D02*
X14182005Y-15407532D01*
X14182005Y-15407532D02*
X14182005Y-15236104D01*
X14362958Y-15426580D02*
X14343910Y-15436104D01*
X14343910Y-15436104D02*
X14305815Y-15436104D01*
X14305815Y-15436104D02*
X14286767Y-15426580D01*
X14286767Y-15426580D02*
X14277243Y-15407532D01*
X14277243Y-15407532D02*
X14277243Y-15331342D01*
X14277243Y-15331342D02*
X14286767Y-15312294D01*
X14286767Y-15312294D02*
X14305815Y-15302770D01*
X14305815Y-15302770D02*
X14343910Y-15302770D01*
X14343910Y-15302770D02*
X14362958Y-15312294D01*
X14362958Y-15312294D02*
X14372481Y-15331342D01*
X14372481Y-15331342D02*
X14372481Y-15350389D01*
X14372481Y-15350389D02*
X14277243Y-15369437D01*
X14448672Y-15426580D02*
X14467720Y-15436104D01*
X14467720Y-15436104D02*
X14505815Y-15436104D01*
X14505815Y-15436104D02*
X14524862Y-15426580D01*
X14524862Y-15426580D02*
X14534386Y-15407532D01*
X14534386Y-15407532D02*
X14534386Y-15398008D01*
X14534386Y-15398008D02*
X14524862Y-15378961D01*
X14524862Y-15378961D02*
X14505815Y-15369437D01*
X14505815Y-15369437D02*
X14477243Y-15369437D01*
X14477243Y-15369437D02*
X14458196Y-15359913D01*
X14458196Y-15359913D02*
X14448672Y-15340866D01*
X14448672Y-15340866D02*
X14448672Y-15331342D01*
X14448672Y-15331342D02*
X14458196Y-15312294D01*
X14458196Y-15312294D02*
X14477243Y-15302770D01*
X14477243Y-15302770D02*
X14505815Y-15302770D01*
X14505815Y-15302770D02*
X14524862Y-15312294D01*
X14601053Y-15512294D02*
X14610577Y-15502770D01*
X14610577Y-15502770D02*
X14629624Y-15474199D01*
X14629624Y-15474199D02*
X14639148Y-15455151D01*
X14639148Y-15455151D02*
X14648672Y-15426580D01*
X14648672Y-15426580D02*
X14658196Y-15378961D01*
X14658196Y-15378961D02*
X14658196Y-15340866D01*
X14658196Y-15340866D02*
X14648672Y-15293247D01*
X14648672Y-15293247D02*
X14639148Y-15264675D01*
X14639148Y-15264675D02*
X14629624Y-15245628D01*
X14629624Y-15245628D02*
X14610577Y-15217056D01*
X14610577Y-15217056D02*
X14601053Y-15207532D01*
X14962958Y-15512294D02*
X14953434Y-15502770D01*
X14953434Y-15502770D02*
X14934386Y-15474199D01*
X14934386Y-15474199D02*
X14924862Y-15455151D01*
X14924862Y-15455151D02*
X14915339Y-15426580D01*
X14915339Y-15426580D02*
X14905815Y-15378961D01*
X14905815Y-15378961D02*
X14905815Y-15340866D01*
X14905815Y-15340866D02*
X14915339Y-15293247D01*
X14915339Y-15293247D02*
X14924862Y-15264675D01*
X14924862Y-15264675D02*
X14934386Y-15245628D01*
X14934386Y-15245628D02*
X14953434Y-15217056D01*
X14953434Y-15217056D02*
X14962958Y-15207532D01*
X15039148Y-15302770D02*
X15039148Y-15436104D01*
X15039148Y-15321818D02*
X15048672Y-15312294D01*
X15048672Y-15312294D02*
X15067720Y-15302770D01*
X15067720Y-15302770D02*
X15096291Y-15302770D01*
X15096291Y-15302770D02*
X15115339Y-15312294D01*
X15115339Y-15312294D02*
X15124862Y-15331342D01*
X15124862Y-15331342D02*
X15124862Y-15436104D01*
X15248672Y-15436104D02*
X15229624Y-15426580D01*
X15229624Y-15426580D02*
X15220101Y-15417056D01*
X15220101Y-15417056D02*
X15210577Y-15398008D01*
X15210577Y-15398008D02*
X15210577Y-15340866D01*
X15210577Y-15340866D02*
X15220101Y-15321818D01*
X15220101Y-15321818D02*
X15229624Y-15312294D01*
X15229624Y-15312294D02*
X15248672Y-15302770D01*
X15248672Y-15302770D02*
X15277243Y-15302770D01*
X15277243Y-15302770D02*
X15296291Y-15312294D01*
X15296291Y-15312294D02*
X15305815Y-15321818D01*
X15305815Y-15321818D02*
X15315339Y-15340866D01*
X15315339Y-15340866D02*
X15315339Y-15398008D01*
X15315339Y-15398008D02*
X15305815Y-15417056D01*
X15305815Y-15417056D02*
X15296291Y-15426580D01*
X15296291Y-15426580D02*
X15277243Y-15436104D01*
X15277243Y-15436104D02*
X15248672Y-15436104D01*
X15372482Y-15302770D02*
X15448672Y-15302770D01*
X15401053Y-15236104D02*
X15401053Y-15407532D01*
X15401053Y-15407532D02*
X15410577Y-15426580D01*
X15410577Y-15426580D02*
X15429624Y-15436104D01*
X15429624Y-15436104D02*
X15448672Y-15436104D01*
X15667720Y-15302770D02*
X15667720Y-15502770D01*
X15667720Y-15312294D02*
X15686767Y-15302770D01*
X15686767Y-15302770D02*
X15724863Y-15302770D01*
X15724863Y-15302770D02*
X15743910Y-15312294D01*
X15743910Y-15312294D02*
X15753434Y-15321818D01*
X15753434Y-15321818D02*
X15762958Y-15340866D01*
X15762958Y-15340866D02*
X15762958Y-15398008D01*
X15762958Y-15398008D02*
X15753434Y-15417056D01*
X15753434Y-15417056D02*
X15743910Y-15426580D01*
X15743910Y-15426580D02*
X15724863Y-15436104D01*
X15724863Y-15436104D02*
X15686767Y-15436104D01*
X15686767Y-15436104D02*
X15667720Y-15426580D01*
X15877243Y-15436104D02*
X15858196Y-15426580D01*
X15858196Y-15426580D02*
X15848672Y-15407532D01*
X15848672Y-15407532D02*
X15848672Y-15236104D01*
X16039148Y-15436104D02*
X16039148Y-15331342D01*
X16039148Y-15331342D02*
X16029624Y-15312294D01*
X16029624Y-15312294D02*
X16010577Y-15302770D01*
X16010577Y-15302770D02*
X15972482Y-15302770D01*
X15972482Y-15302770D02*
X15953434Y-15312294D01*
X16039148Y-15426580D02*
X16020101Y-15436104D01*
X16020101Y-15436104D02*
X15972482Y-15436104D01*
X15972482Y-15436104D02*
X15953434Y-15426580D01*
X15953434Y-15426580D02*
X15943910Y-15407532D01*
X15943910Y-15407532D02*
X15943910Y-15388485D01*
X15943910Y-15388485D02*
X15953434Y-15369437D01*
X15953434Y-15369437D02*
X15972482Y-15359913D01*
X15972482Y-15359913D02*
X16020101Y-15359913D01*
X16020101Y-15359913D02*
X16039148Y-15350389D01*
X16105815Y-15302770D02*
X16182005Y-15302770D01*
X16134386Y-15236104D02*
X16134386Y-15407532D01*
X16134386Y-15407532D02*
X16143910Y-15426580D01*
X16143910Y-15426580D02*
X16162958Y-15436104D01*
X16162958Y-15436104D02*
X16182005Y-15436104D01*
X16324863Y-15426580D02*
X16305815Y-15436104D01*
X16305815Y-15436104D02*
X16267720Y-15436104D01*
X16267720Y-15436104D02*
X16248672Y-15426580D01*
X16248672Y-15426580D02*
X16239148Y-15407532D01*
X16239148Y-15407532D02*
X16239148Y-15331342D01*
X16239148Y-15331342D02*
X16248672Y-15312294D01*
X16248672Y-15312294D02*
X16267720Y-15302770D01*
X16267720Y-15302770D02*
X16305815Y-15302770D01*
X16305815Y-15302770D02*
X16324863Y-15312294D01*
X16324863Y-15312294D02*
X16334386Y-15331342D01*
X16334386Y-15331342D02*
X16334386Y-15350389D01*
X16334386Y-15350389D02*
X16239148Y-15369437D01*
X16505815Y-15436104D02*
X16505815Y-15236104D01*
X16505815Y-15426580D02*
X16486767Y-15436104D01*
X16486767Y-15436104D02*
X16448672Y-15436104D01*
X16448672Y-15436104D02*
X16429624Y-15426580D01*
X16429624Y-15426580D02*
X16420101Y-15417056D01*
X16420101Y-15417056D02*
X16410577Y-15398008D01*
X16410577Y-15398008D02*
X16410577Y-15340866D01*
X16410577Y-15340866D02*
X16420101Y-15321818D01*
X16420101Y-15321818D02*
X16429624Y-15312294D01*
X16429624Y-15312294D02*
X16448672Y-15302770D01*
X16448672Y-15302770D02*
X16486767Y-15302770D01*
X16486767Y-15302770D02*
X16505815Y-15312294D01*
X16582005Y-15512294D02*
X16591529Y-15502770D01*
X16591529Y-15502770D02*
X16610577Y-15474199D01*
X16610577Y-15474199D02*
X16620101Y-15455151D01*
X16620101Y-15455151D02*
X16629624Y-15426580D01*
X16629624Y-15426580D02*
X16639148Y-15378961D01*
X16639148Y-15378961D02*
X16639148Y-15340866D01*
X16639148Y-15340866D02*
X16629624Y-15293247D01*
X16629624Y-15293247D02*
X16620101Y-15264675D01*
X16620101Y-15264675D02*
X16610577Y-15245628D01*
X16610577Y-15245628D02*
X16591529Y-15217056D01*
X16591529Y-15217056D02*
X16582005Y-15207532D01*
M02*
