G04 #@! TF.GenerationSoftware,KiCad,Pcbnew,8.0.4*
G04 #@! TF.CreationDate,2024-08-22T17:22:31+02:00*
G04 #@! TF.ProjectId,CENTRALE,43454e54-5241-44c4-952e-6b696361645f,rev?*
G04 #@! TF.SameCoordinates,Original*
G04 #@! TF.FileFunction,Soldermask,Bot*
G04 #@! TF.FilePolarity,Negative*
%FSLAX46Y46*%
G04 Gerber Fmt 4.6, Leading zero omitted, Abs format (unit mm)*
G04 Created by KiCad (PCBNEW 8.0.4) date 2024-08-22 17:22:31*
%MOMM*%
%LPD*%
G01*
G04 APERTURE LIST*
G04 Aperture macros list*
%AMRoundRect*
0 Rectangle with rounded corners*
0 $1 Rounding radius*
0 $2 $3 $4 $5 $6 $7 $8 $9 X,Y pos of 4 corners*
0 Add a 4 corners polygon primitive as box body*
4,1,4,$2,$3,$4,$5,$6,$7,$8,$9,$2,$3,0*
0 Add four circle primitives for the rounded corners*
1,1,$1+$1,$2,$3*
1,1,$1+$1,$4,$5*
1,1,$1+$1,$6,$7*
1,1,$1+$1,$8,$9*
0 Add four rect primitives between the rounded corners*
20,1,$1+$1,$2,$3,$4,$5,0*
20,1,$1+$1,$4,$5,$6,$7,0*
20,1,$1+$1,$6,$7,$8,$9,0*
20,1,$1+$1,$8,$9,$2,$3,0*%
%AMFreePoly0*
4,1,25,0.389919,0.742596,0.402042,0.732242,0.732242,0.402042,0.760749,0.346094,0.762000,0.330200,0.762000,-0.330200,0.742596,-0.389919,0.732242,-0.402042,0.402042,-0.732242,0.346094,-0.760749,0.330200,-0.762000,-0.330200,-0.762000,-0.389919,-0.742596,-0.402042,-0.732242,-0.732242,-0.402042,-0.760749,-0.346094,-0.762000,-0.330200,-0.762000,0.330200,-0.742596,0.389919,-0.732242,0.402042,
-0.402042,0.732242,-0.346094,0.760749,-0.330200,0.762000,0.330200,0.762000,0.389919,0.742596,0.389919,0.742596,$1*%
%AMFreePoly1*
4,1,25,0.459769,0.882296,0.471892,0.871942,0.871942,0.471892,0.900449,0.415944,0.901700,0.400050,0.901700,-0.400050,0.882296,-0.459769,0.871942,-0.471892,0.471892,-0.871942,0.415944,-0.900449,0.400050,-0.901700,-0.400050,-0.901700,-0.459769,-0.882296,-0.471892,-0.871942,-0.871942,-0.471892,-0.900449,-0.415944,-0.901700,-0.400050,-0.901700,0.400050,-0.882296,0.459769,-0.871942,0.471892,
-0.471892,0.871942,-0.415944,0.900449,-0.400050,0.901700,0.400050,0.901700,0.459769,0.882296,0.459769,0.882296,$1*%
%AMFreePoly2*
4,1,25,0.478819,0.920396,0.490942,0.910042,0.910042,0.490942,0.938549,0.434994,0.939800,0.419100,0.939800,-0.419100,0.920396,-0.478819,0.910042,-0.490942,0.490942,-0.910042,0.434994,-0.938549,0.419100,-0.939800,-0.419100,-0.939800,-0.478819,-0.920396,-0.490942,-0.910042,-0.910042,-0.490942,-0.938549,-0.434994,-0.939800,-0.419100,-0.939800,0.419100,-0.920396,0.478819,-0.910042,0.490942,
-0.490942,0.910042,-0.434994,0.938549,-0.419100,0.939800,0.419100,0.939800,0.478819,0.920396,0.478819,0.920396,$1*%
%AMFreePoly3*
4,1,25,0.694719,1.352196,0.706842,1.341842,1.341842,0.706842,1.370349,0.650894,1.371600,0.635000,1.371600,-0.635000,1.352196,-0.694719,1.341842,-0.706842,0.706842,-1.341842,0.650894,-1.370349,0.635000,-1.371600,-0.635000,-1.371600,-0.694719,-1.352196,-0.706842,-1.341842,-1.341842,-0.706842,-1.370349,-0.650894,-1.371600,-0.635000,-1.371600,0.635000,-1.352196,0.694719,-1.341842,0.706842,
-0.706842,1.341842,-0.650894,1.370349,-0.635000,1.371600,0.635000,1.371600,0.694719,1.352196,0.694719,1.352196,$1*%
G04 Aperture macros list end*
%ADD10C,0.000000*%
%ADD11C,2.003200*%
%ADD12O,3.251200X1.727200*%
%ADD13RoundRect,0.101600X1.524000X0.762000X-1.524000X0.762000X-1.524000X-0.762000X1.524000X-0.762000X0*%
%ADD14RoundRect,0.101600X-1.524000X-0.762000X1.524000X-0.762000X1.524000X0.762000X-1.524000X0.762000X0*%
%ADD15O,2.844800X1.524000*%
%ADD16RoundRect,0.101600X-1.320800X-0.660400X1.320800X-0.660400X1.320800X0.660400X-1.320800X0.660400X0*%
%ADD17RoundRect,0.101600X-2.184400X-1.092200X2.184400X-1.092200X2.184400X1.092200X-2.184400X1.092200X0*%
%ADD18O,2.387600X4.572000*%
%ADD19O,4.572000X2.387600*%
%ADD20FreePoly0,180.000000*%
%ADD21C,1.803400*%
%ADD22FreePoly1,270.000000*%
%ADD23C,1.903200*%
%ADD24FreePoly2,270.000000*%
%ADD25C,2.800000*%
%ADD26FreePoly0,0.000000*%
%ADD27RoundRect,0.101600X1.000000X1.000000X-1.000000X1.000000X-1.000000X-1.000000X1.000000X-1.000000X0*%
%ADD28C,2.203200*%
%ADD29C,2.743200*%
%ADD30FreePoly3,270.000000*%
%ADD31C,3.251200*%
%ADD32C,2.082800*%
%ADD33C,2.000000*%
%ADD34O,1.727200X3.251200*%
%ADD35RoundRect,0.101600X0.762000X-1.524000X0.762000X1.524000X-0.762000X1.524000X-0.762000X-1.524000X0*%
%ADD36O,2.003200X3.803200*%
%ADD37RoundRect,0.101600X0.900000X-1.800000X0.900000X1.800000X-0.900000X1.800000X-0.900000X-1.800000X0*%
%ADD38RoundRect,0.101600X-0.762000X1.524000X-0.762000X-1.524000X0.762000X-1.524000X0.762000X1.524000X0*%
%ADD39RoundRect,0.101600X0.754000X0.754000X-0.754000X0.754000X-0.754000X-0.754000X0.754000X-0.754000X0*%
%ADD40C,1.711200*%
%ADD41C,2.153200*%
%ADD42RoundRect,0.101600X0.800000X0.900000X-0.800000X0.900000X-0.800000X-0.900000X0.800000X-0.900000X0*%
%ADD43RoundRect,0.101600X-0.800000X-1.000000X0.800000X-1.000000X0.800000X1.000000X-0.800000X1.000000X0*%
%ADD44RoundRect,0.101600X-0.750000X0.650000X-0.750000X-0.650000X0.750000X-0.650000X0.750000X0.650000X0*%
%ADD45RoundRect,0.101600X0.584200X0.800100X-0.584200X0.800100X-0.584200X-0.800100X0.584200X-0.800100X0*%
%ADD46RoundRect,0.101600X0.650000X0.750000X-0.650000X0.750000X-0.650000X-0.750000X0.650000X-0.750000X0*%
%ADD47RoundRect,0.101600X1.600000X-0.900000X1.600000X0.900000X-1.600000X0.900000X-1.600000X-0.900000X0*%
%ADD48RoundRect,0.101600X0.750000X-0.650000X0.750000X0.650000X-0.750000X0.650000X-0.750000X-0.650000X0*%
%ADD49RoundRect,0.101600X-0.800000X-0.900000X0.800000X-0.900000X0.800000X0.900000X-0.800000X0.900000X0*%
%ADD50RoundRect,0.101600X-0.735000X0.635000X-0.735000X-0.635000X0.735000X-0.635000X0.735000X0.635000X0*%
%ADD51RoundRect,0.101600X0.735000X-0.635000X0.735000X0.635000X-0.735000X0.635000X-0.735000X-0.635000X0*%
%ADD52RoundRect,0.101600X-0.650000X-0.750000X0.650000X-0.750000X0.650000X0.750000X-0.650000X0.750000X0*%
%ADD53RoundRect,0.101600X0.800100X-0.584200X0.800100X0.584200X-0.800100X0.584200X-0.800100X-0.584200X0*%
%ADD54RoundRect,0.101600X-0.750000X-0.300000X0.750000X-0.300000X0.750000X0.300000X-0.750000X0.300000X0*%
%ADD55RoundRect,0.101600X0.750000X0.300000X-0.750000X0.300000X-0.750000X-0.300000X0.750000X-0.300000X0*%
%ADD56RoundRect,0.101600X0.900000X-0.800000X0.900000X0.800000X-0.900000X0.800000X-0.900000X-0.800000X0*%
%ADD57RoundRect,0.101600X-0.900000X0.800000X-0.900000X-0.800000X0.900000X-0.800000X0.900000X0.800000X0*%
%ADD58RoundRect,0.101600X1.100000X-0.300000X1.100000X0.300000X-1.100000X0.300000X-1.100000X-0.300000X0*%
%ADD59RoundRect,0.101600X0.750000X-1.060000X0.750000X1.060000X-0.750000X1.060000X-0.750000X-1.060000X0*%
G04 APERTURE END LIST*
D10*
G36*
X190799175Y-109153385D02*
G01*
X190646775Y-109153385D01*
X190646775Y-107324585D01*
X190799175Y-107324585D01*
X190799175Y-109153385D01*
G37*
G36*
X191329550Y-117258982D02*
G01*
X191177150Y-117258982D01*
X191177150Y-115430182D01*
X191329550Y-115430182D01*
X191329550Y-117258982D01*
G37*
G36*
X190735546Y-103994313D02*
G01*
X190583146Y-103994313D01*
X190583146Y-102165513D01*
X190735546Y-102165513D01*
X190735546Y-103994313D01*
G37*
G36*
X127914400Y-99136200D02*
G01*
X126085600Y-99136200D01*
X126085600Y-98983800D01*
X127914400Y-98983800D01*
X127914400Y-99136200D01*
G37*
G36*
X185790765Y-113403369D02*
G01*
X185638365Y-113403369D01*
X185638365Y-111574569D01*
X185790765Y-111574569D01*
X185790765Y-113403369D01*
G37*
D11*
X157552443Y-131675491D03*
X170052443Y-131675491D03*
X157552443Y-136675491D03*
X170052443Y-136675491D03*
X141134134Y-131720000D03*
X153634134Y-131720000D03*
X141134134Y-136720000D03*
X153634134Y-136720000D03*
D12*
X188587106Y-82854891D03*
D13*
X188587106Y-80314891D03*
D12*
X137487234Y-110364094D03*
X137487234Y-107824094D03*
D13*
X137487234Y-105284094D03*
X137487234Y-102744094D03*
D14*
X196003243Y-130868219D03*
D12*
X196003243Y-133408219D03*
X196003243Y-135948219D03*
X196003243Y-138488219D03*
D15*
X131356100Y-130410000D03*
X105956100Y-130410000D03*
X105956100Y-94850000D03*
D16*
X131356100Y-127870000D03*
X105956100Y-127870000D03*
D15*
X131356100Y-122790000D03*
X131356100Y-120250000D03*
X131356100Y-112630000D03*
X105956100Y-122790000D03*
X105956100Y-125330000D03*
X105956100Y-120250000D03*
X131356100Y-125330000D03*
X131356100Y-117710000D03*
X131356100Y-115170000D03*
X131356100Y-110090000D03*
X131356100Y-107550000D03*
X131356100Y-105010000D03*
X131356100Y-97390000D03*
X131356100Y-94850000D03*
X105956100Y-112630000D03*
X105956100Y-115170000D03*
X105956100Y-117710000D03*
X105956100Y-107550000D03*
X105956100Y-110090000D03*
X105956100Y-102470000D03*
X105956100Y-105010000D03*
X105956100Y-97390000D03*
X105956100Y-99930000D03*
X131356100Y-102470000D03*
X131356100Y-99930000D03*
D17*
X179616100Y-75343522D03*
D18*
X174816100Y-78343522D03*
D19*
X179616100Y-81343522D03*
D20*
X146588500Y-85054319D03*
X144048500Y-85054319D03*
D15*
X193310137Y-120414672D03*
X185690137Y-120414672D03*
D11*
X179822946Y-131720000D03*
X192322946Y-131720000D03*
X179822946Y-136720000D03*
X192322946Y-136720000D03*
D21*
X120168403Y-112368154D03*
D22*
X120168403Y-114908154D03*
D23*
X144631940Y-72580816D03*
X141131940Y-72580816D03*
D24*
X188152243Y-103177500D03*
X188152243Y-105717500D03*
X188152243Y-108257500D03*
X193232243Y-103177500D03*
X190692243Y-105717500D03*
X193232243Y-108257500D03*
D12*
X100876100Y-133620757D03*
X100876100Y-131080757D03*
D13*
X100876100Y-128540757D03*
D12*
X100876100Y-126000757D03*
X100876100Y-123460757D03*
X100876100Y-120920757D03*
X100876100Y-118380757D03*
X100876100Y-115840757D03*
X100876100Y-113300757D03*
X100876100Y-110760757D03*
X100876100Y-108220757D03*
X100876100Y-105680757D03*
X100876100Y-103140757D03*
D25*
X105662762Y-136869144D03*
D26*
X139086431Y-84920313D03*
X141626431Y-84920313D03*
D27*
X171948675Y-101543579D03*
X171948675Y-99003579D03*
D28*
X171948675Y-113481579D03*
X171948675Y-110941579D03*
D27*
X145786675Y-101543579D03*
X145786675Y-99003579D03*
D28*
X145786675Y-113481579D03*
X145786675Y-110941579D03*
D29*
X175212265Y-85583235D03*
D30*
X175212265Y-90663235D03*
D31*
X121196100Y-74533522D03*
X111036100Y-74533522D03*
D32*
X119291100Y-83423522D03*
X118021100Y-80883522D03*
X116751100Y-83423522D03*
X115481100Y-80883522D03*
X114211100Y-83423522D03*
X112941100Y-80883522D03*
D33*
X182787754Y-131970493D03*
X189287754Y-131970493D03*
X182787754Y-136470493D03*
X189287754Y-136470493D03*
D34*
X119926100Y-88500000D03*
X122466100Y-88500000D03*
D35*
X125006100Y-88500000D03*
D14*
X100876100Y-89297522D03*
D12*
X100876100Y-91837522D03*
X100876100Y-94377522D03*
X100876100Y-96917522D03*
D36*
X152066100Y-79137522D03*
X153766100Y-74057522D03*
X155466100Y-79137522D03*
X157166100Y-74057522D03*
X158866100Y-79137522D03*
D37*
X160566100Y-74057522D03*
D36*
X162266100Y-79137522D03*
X163966100Y-74057522D03*
X165666100Y-79137522D03*
X167366100Y-74057522D03*
X169066100Y-79137522D03*
D27*
X169344393Y-102737785D03*
X169344393Y-100197785D03*
D28*
X169344393Y-113405785D03*
X169344393Y-110865785D03*
D27*
X150802393Y-102737785D03*
X150802393Y-100197785D03*
D28*
X150802393Y-113405785D03*
X150802393Y-110865785D03*
D34*
X188385893Y-125452275D03*
D35*
X190925893Y-125452275D03*
D34*
X193465893Y-125452275D03*
X196005893Y-125452275D03*
X145326100Y-125330000D03*
D38*
X142786100Y-125330000D03*
D34*
X140246100Y-125330000D03*
X137706100Y-125330000D03*
D25*
X103538743Y-75327522D03*
D31*
X135166100Y-74533522D03*
X125006100Y-74533522D03*
D32*
X133261100Y-83423522D03*
X131991100Y-80883522D03*
X130721100Y-83423522D03*
X129451100Y-80883522D03*
X128181100Y-83423522D03*
X126911100Y-80883522D03*
D12*
X106272871Y-82947522D03*
X106272871Y-80407522D03*
D33*
X174932815Y-119384238D03*
X174932815Y-96270238D03*
X154104815Y-119384238D03*
X154104815Y-96270238D03*
D39*
X168328815Y-120527238D03*
D40*
X165788815Y-120527238D03*
X163248815Y-120527238D03*
X160708815Y-120527238D03*
D33*
X160627348Y-131907538D03*
X167127348Y-131907538D03*
X160627348Y-136407538D03*
X167127348Y-136407538D03*
D25*
X174928787Y-136882482D03*
D34*
X140341937Y-80858207D03*
X142881937Y-80858207D03*
X145421937Y-80858207D03*
D41*
X145286100Y-74806291D03*
X140286100Y-74806291D03*
D34*
X161493034Y-125411338D03*
X164033034Y-125411338D03*
X166573034Y-125411338D03*
D35*
X169113034Y-125411338D03*
D33*
X144093696Y-132049854D03*
X150593696Y-132049854D03*
X144093696Y-136549854D03*
X150593696Y-136549854D03*
D14*
X137518646Y-130778588D03*
D12*
X137518646Y-133318588D03*
X137518646Y-135858588D03*
X137518646Y-138398588D03*
D34*
X160020000Y-111760000D03*
D35*
X162560000Y-111760000D03*
D34*
X165100000Y-111760000D03*
D25*
X193586100Y-75327522D03*
D42*
X155289790Y-83002519D03*
X152489790Y-83002519D03*
D43*
X106100043Y-86195350D03*
X108900043Y-86195350D03*
D44*
X179771512Y-114801760D03*
X179771512Y-116701760D03*
D45*
X191484975Y-108238985D03*
X189960975Y-108238985D03*
D44*
X108500000Y-105325297D03*
X108500000Y-107225297D03*
D46*
X182113612Y-100801225D03*
X180213612Y-100801225D03*
D47*
X183552093Y-91413747D03*
X183552093Y-85813747D03*
D48*
X149508071Y-85133829D03*
X149508071Y-83233829D03*
D44*
X110709944Y-105300243D03*
X110709944Y-107200243D03*
D49*
X175299406Y-111061338D03*
X178099406Y-111061338D03*
D42*
X185414259Y-98079794D03*
X182614259Y-98079794D03*
D45*
X192015350Y-116344582D03*
X190491350Y-116344582D03*
D50*
X157063737Y-92265129D03*
D51*
X157063737Y-87965129D03*
D42*
X186334734Y-116431269D03*
X183534734Y-116431269D03*
D49*
X165999943Y-82946682D03*
X168799943Y-82946682D03*
D52*
X190510262Y-112581413D03*
X192410262Y-112581413D03*
D49*
X165940982Y-87137240D03*
X168740982Y-87137240D03*
D45*
X191421346Y-103079913D03*
X189897346Y-103079913D03*
D48*
X114500000Y-113000000D03*
X114500000Y-111100000D03*
D53*
X127000000Y-99822000D03*
X127000000Y-98298000D03*
D54*
X112797100Y-103401638D03*
X112797100Y-102131638D03*
X112797100Y-100861638D03*
X112797100Y-99591638D03*
D55*
X118097100Y-99591638D03*
X118097100Y-100861638D03*
X118097100Y-102131638D03*
X118097100Y-103401638D03*
D47*
X188199653Y-91468250D03*
X188199653Y-85868250D03*
D56*
X111871887Y-93899225D03*
X111871887Y-91099225D03*
D57*
X138385334Y-92553788D03*
X138385334Y-95353788D03*
X125610640Y-113559397D03*
X125610640Y-116359397D03*
D58*
X176413796Y-107120872D03*
X176413796Y-105850872D03*
X176413796Y-104580872D03*
X176413796Y-103310872D03*
X181613796Y-103310872D03*
X181613796Y-104580872D03*
X181613796Y-105850872D03*
X181613796Y-107120872D03*
D46*
X162874081Y-117759250D03*
X160974081Y-117759250D03*
D52*
X160660000Y-99060000D03*
X162560000Y-99060000D03*
D59*
X187089204Y-73094271D03*
X187089204Y-77324271D03*
D56*
X114500000Y-108300000D03*
X114500000Y-105500000D03*
D45*
X186476565Y-112488969D03*
X184952565Y-112488969D03*
D46*
X181599562Y-120352054D03*
X179699562Y-120352054D03*
D56*
X102146100Y-84820000D03*
X102146100Y-82020000D03*
D50*
X152973528Y-92152594D03*
D51*
X152973528Y-87852594D03*
D52*
X166377696Y-117786360D03*
X168277696Y-117786360D03*
D44*
X185632687Y-106944422D03*
X185632687Y-108844422D03*
D46*
X162560000Y-101600000D03*
X160660000Y-101600000D03*
D48*
X185615787Y-103005182D03*
X185615787Y-101105182D03*
M02*
